<svg width="629" height="523" viewBox="0 0 629 523" fill="none" xmlns="http://www.w3.org/2000/svg">
<path d="M178.125 275.918L198.875 238.36" stroke="white" stroke-opacity="0.14" stroke-width="2" stroke-dasharray="4 4"/>
<path d="M365.625 275.917L344.875 238.36" stroke="white" stroke-opacity="0.14" stroke-width="2" stroke-dasharray="4 4"/>
<path d="M257 393.844C257 323.151 199.692 265.844 129 265.844C58.3075 265.844 1 323.151 1 393.844C1 464.536 58.3075 521.844 129 521.844C199.692 521.844 257 464.536 257 393.844Z" fill="#1B0B2F" stroke="white" stroke-opacity="0.14" stroke-width="2" stroke-dasharray="4 4"/>
<path d="M97.295 413.762C97.9577 413.921 98.457 414.205 98.793 414.616C99.1384 415.017 99.311 415.535 99.311 416.17C99.311 417.019 98.9984 417.677 98.373 418.144C97.757 418.611 96.8564 418.844 95.671 418.844H91.191V409.044H95.405C96.4784 409.044 97.3137 409.263 97.911 409.702C98.5177 410.131 98.821 410.752 98.821 411.564C98.821 412.096 98.6857 412.549 98.415 412.922C98.1537 413.295 97.7804 413.575 97.295 413.762ZM92.577 413.356H95.307C95.9884 413.356 96.5064 413.221 96.861 412.95C97.225 412.679 97.407 412.283 97.407 411.76C97.407 411.237 97.225 410.841 96.861 410.57C96.497 410.29 95.979 410.15 95.307 410.15H92.577V413.356ZM95.643 417.738C97.1457 417.738 97.897 417.178 97.897 416.058C97.897 415.498 97.7057 415.087 97.323 414.826C96.9497 414.555 96.3897 414.42 95.643 414.42H92.577V417.738H95.643ZM104.072 411.354C105.099 411.354 105.883 411.606 106.424 412.11C106.975 412.614 107.25 413.365 107.25 414.364V418.844H105.976V417.864C105.752 418.209 105.43 418.475 105.01 418.662C104.599 418.839 104.109 418.928 103.54 418.928C102.709 418.928 102.042 418.727 101.538 418.326C101.043 417.925 100.796 417.397 100.796 416.744C100.796 416.091 101.034 415.568 101.51 415.176C101.986 414.775 102.742 414.574 103.778 414.574H105.906V414.308C105.906 413.729 105.738 413.286 105.402 412.978C105.066 412.67 104.571 412.516 103.918 412.516C103.479 412.516 103.05 412.591 102.63 412.74C102.21 412.88 101.855 413.071 101.566 413.314L101.006 412.306C101.389 411.998 101.846 411.765 102.378 411.606C102.91 411.438 103.475 411.354 104.072 411.354ZM103.764 417.892C104.277 417.892 104.721 417.78 105.094 417.556C105.467 417.323 105.738 416.996 105.906 416.576V415.54H103.834C102.695 415.54 102.126 415.923 102.126 416.688C102.126 417.061 102.271 417.355 102.56 417.57C102.849 417.785 103.251 417.892 103.764 417.892ZM120.24 411.424V418.844H109.67V411.424H111.014V417.668H114.29V411.424H115.634V417.668H118.896V411.424H120.24ZM132.14 412.6H129.424V418.844H128.08V412.6H125.364V411.424H132.14V412.6ZM136.364 418.928C135.626 418.928 134.964 418.765 134.376 418.438C133.788 418.111 133.326 417.663 132.99 417.094C132.663 416.515 132.5 415.862 132.5 415.134C132.5 414.406 132.663 413.757 132.99 413.188C133.326 412.609 133.788 412.161 134.376 411.844C134.964 411.517 135.626 411.354 136.364 411.354C137.101 411.354 137.759 411.517 138.338 411.844C138.926 412.161 139.383 412.609 139.71 413.188C140.046 413.757 140.214 414.406 140.214 415.134C140.214 415.862 140.046 416.515 139.71 417.094C139.383 417.663 138.926 418.111 138.338 418.438C137.759 418.765 137.101 418.928 136.364 418.928ZM136.364 417.752C136.84 417.752 137.264 417.645 137.638 417.43C138.02 417.206 138.319 416.898 138.534 416.506C138.748 416.105 138.856 415.647 138.856 415.134C138.856 414.621 138.748 414.168 138.534 413.776C138.319 413.375 138.02 413.067 137.638 412.852C137.264 412.637 136.84 412.53 136.364 412.53C135.888 412.53 135.458 412.637 135.076 412.852C134.702 413.067 134.404 413.375 134.18 413.776C133.965 414.168 133.858 414.621 133.858 415.134C133.858 415.647 133.965 416.105 134.18 416.506C134.404 416.898 134.702 417.206 135.076 417.43C135.458 417.645 135.888 417.752 136.364 417.752ZM147.209 414.994C148.17 415.237 148.651 415.839 148.651 416.8C148.651 417.453 148.403 417.957 147.909 418.312C147.423 418.667 146.695 418.844 145.725 418.844H142.155V411.424H145.599C146.476 411.424 147.162 411.592 147.657 411.928C148.151 412.255 148.399 412.721 148.399 413.328C148.399 413.72 148.291 414.061 148.077 414.35C147.871 414.63 147.582 414.845 147.209 414.994ZM143.471 414.616H145.487C146 414.616 146.387 414.523 146.649 414.336C146.919 414.149 147.055 413.879 147.055 413.524C147.055 412.815 146.532 412.46 145.487 412.46H143.471V414.616ZM145.627 417.808C146.187 417.808 146.607 417.719 146.887 417.542C147.167 417.365 147.307 417.089 147.307 416.716C147.307 416.333 147.176 416.049 146.915 415.862C146.663 415.675 146.261 415.582 145.711 415.582H143.471V417.808H145.627ZM153.4 411.354C154.427 411.354 155.211 411.606 155.752 412.11C156.303 412.614 156.578 413.365 156.578 414.364V418.844H155.304V417.864C155.08 418.209 154.758 418.475 154.338 418.662C153.927 418.839 153.437 418.928 152.868 418.928C152.037 418.928 151.37 418.727 150.866 418.326C150.371 417.925 150.124 417.397 150.124 416.744C150.124 416.091 150.362 415.568 150.838 415.176C151.314 414.775 152.07 414.574 153.106 414.574H155.234V414.308C155.234 413.729 155.066 413.286 154.73 412.978C154.394 412.67 153.899 412.516 153.246 412.516C152.807 412.516 152.378 412.591 151.958 412.74C151.538 412.88 151.183 413.071 150.894 413.314L150.334 412.306C150.717 411.998 151.174 411.765 151.706 411.606C152.238 411.438 152.803 411.354 153.4 411.354ZM153.092 417.892C153.605 417.892 154.049 417.78 154.422 417.556C154.795 417.323 155.066 416.996 155.234 416.576V415.54H153.162C152.023 415.54 151.454 415.923 151.454 416.688C151.454 417.061 151.599 417.355 151.888 417.57C152.177 417.785 152.579 417.892 153.092 417.892ZM162.932 411.354C163.651 411.354 164.295 411.513 164.864 411.83C165.434 412.147 165.877 412.591 166.194 413.16C166.521 413.729 166.684 414.387 166.684 415.134C166.684 415.881 166.521 416.543 166.194 417.122C165.877 417.691 165.434 418.135 164.864 418.452C164.295 418.769 163.651 418.928 162.932 418.928C162.4 418.928 161.91 418.825 161.462 418.62C161.024 418.415 160.65 418.116 160.342 417.724V421.56H158.998V411.424H160.286V412.6C160.585 412.189 160.963 411.881 161.42 411.676C161.878 411.461 162.382 411.354 162.932 411.354ZM162.82 417.752C163.296 417.752 163.721 417.645 164.094 417.43C164.477 417.206 164.776 416.898 164.99 416.506C165.214 416.105 165.326 415.647 165.326 415.134C165.326 414.621 165.214 414.168 164.99 413.776C164.776 413.375 164.477 413.067 164.094 412.852C163.721 412.637 163.296 412.53 162.82 412.53C162.354 412.53 161.929 412.642 161.546 412.866C161.173 413.081 160.874 413.384 160.65 413.776C160.436 414.168 160.328 414.621 160.328 415.134C160.328 415.647 160.436 416.105 160.65 416.506C160.865 416.898 161.164 417.206 161.546 417.43C161.929 417.645 162.354 417.752 162.82 417.752ZM65.9309 433.424V440.844H64.5869V434.6H60.4009V440.844H59.0569V433.424H65.9309ZM71.7095 440.928C70.9722 440.928 70.3095 440.765 69.7215 440.438C69.1335 440.111 68.6715 439.663 68.3355 439.094C68.0088 438.515 67.8455 437.862 67.8455 437.134C67.8455 436.406 68.0088 435.757 68.3355 435.188C68.6715 434.609 69.1335 434.161 69.7215 433.844C70.3095 433.517 70.9722 433.354 71.7095 433.354C72.4468 433.354 73.1048 433.517 73.6835 433.844C74.2715 434.161 74.7288 434.609 75.0555 435.188C75.3915 435.757 75.5595 436.406 75.5595 437.134C75.5595 437.862 75.3915 438.515 75.0555 439.094C74.7288 439.663 74.2715 440.111 73.6835 440.438C73.1048 440.765 72.4468 440.928 71.7095 440.928ZM71.7095 439.752C72.1855 439.752 72.6102 439.645 72.9835 439.43C73.3662 439.206 73.6648 438.898 73.8795 438.506C74.0942 438.105 74.2015 437.647 74.2015 437.134C74.2015 436.621 74.0942 436.168 73.8795 435.776C73.6648 435.375 73.3662 435.067 72.9835 434.852C72.6102 434.637 72.1855 434.53 71.7095 434.53C71.2335 434.53 70.8042 434.637 70.4215 434.852C70.0482 435.067 69.7495 435.375 69.5255 435.776C69.3108 436.168 69.2035 436.621 69.2035 437.134C69.2035 437.647 69.3108 438.105 69.5255 438.506C69.7495 438.898 70.0482 439.206 70.4215 439.43C70.8042 439.645 71.2335 439.752 71.7095 439.752ZM83.2041 433.424V440.844H82.0001V438.492H79.8441H79.6901L78.0661 440.844H76.6241L78.4301 438.31C77.8701 438.142 77.4408 437.867 77.1421 437.484C76.8435 437.092 76.6941 436.607 76.6941 436.028C76.6941 435.179 76.9835 434.535 77.5621 434.096C78.1408 433.648 78.9388 433.424 79.9561 433.424H83.2041ZM78.0661 436.07C78.0661 436.565 78.2201 436.933 78.5281 437.176C78.8455 437.409 79.3168 437.526 79.9421 437.526H82.0001V434.6H79.9981C78.7101 434.6 78.0661 435.09 78.0661 436.07ZM90.8804 436.994C91.8417 437.237 92.3224 437.839 92.3224 438.8C92.3224 439.453 92.0751 439.957 91.5804 440.312C91.0951 440.667 90.3671 440.844 89.3964 440.844H85.8264V433.424H89.2704C90.1477 433.424 90.8337 433.592 91.3284 433.928C91.8231 434.255 92.0704 434.721 92.0704 435.328C92.0704 435.72 91.9631 436.061 91.7484 436.35C91.5431 436.63 91.2537 436.845 90.8804 436.994ZM87.1424 436.616H89.1584C89.6717 436.616 90.0591 436.523 90.3204 436.336C90.5911 436.149 90.7264 435.879 90.7264 435.524C90.7264 434.815 90.2037 434.46 89.1584 434.46H87.1424V436.616ZM89.2984 439.808C89.8584 439.808 90.2784 439.719 90.5584 439.542C90.8384 439.365 90.9784 439.089 90.9784 438.716C90.9784 438.333 90.8477 438.049 90.5864 437.862C90.3344 437.675 89.9331 437.582 89.3824 437.582H87.1424V439.808H89.2984ZM100.796 433.424V440.844H99.452V434.6H96.26L96.176 436.252C96.1294 437.251 96.0407 438.086 95.91 438.758C95.7794 439.421 95.5647 439.953 95.266 440.354C94.9674 440.755 94.552 440.956 94.02 440.956C93.7774 440.956 93.502 440.914 93.194 440.83L93.278 439.696C93.3994 439.724 93.5114 439.738 93.614 439.738C93.9874 439.738 94.2674 439.575 94.454 439.248C94.6407 438.921 94.762 438.534 94.818 438.086C94.874 437.638 94.9254 436.999 94.972 436.168L95.098 433.424H100.796ZM109.345 433.424V440.844H108.141V438.492H105.985H105.831L104.207 440.844H102.765L104.571 438.31C104.011 438.142 103.581 437.867 103.283 437.484C102.984 437.092 102.835 436.607 102.835 436.028C102.835 435.179 103.124 434.535 103.703 434.096C104.281 433.648 105.079 433.424 106.097 433.424H109.345ZM104.207 436.07C104.207 436.565 104.361 436.933 104.669 437.176C104.986 437.409 105.457 437.526 106.083 437.526H108.141V434.6H106.139C104.851 434.6 104.207 435.09 104.207 436.07ZM118.673 437.176C118.673 437.279 118.664 437.414 118.645 437.582H112.625C112.709 438.235 112.994 438.763 113.479 439.164C113.974 439.556 114.585 439.752 115.313 439.752C116.2 439.752 116.914 439.453 117.455 438.856L118.197 439.724C117.861 440.116 117.441 440.415 116.937 440.62C116.442 440.825 115.887 440.928 115.271 440.928C114.487 440.928 113.792 440.769 113.185 440.452C112.578 440.125 112.107 439.673 111.771 439.094C111.444 438.515 111.281 437.862 111.281 437.134C111.281 436.415 111.44 435.767 111.757 435.188C112.084 434.609 112.527 434.161 113.087 433.844C113.656 433.517 114.296 433.354 115.005 433.354C115.714 433.354 116.344 433.517 116.895 433.844C117.455 434.161 117.889 434.609 118.197 435.188C118.514 435.767 118.673 436.429 118.673 437.176ZM115.005 434.488C114.361 434.488 113.82 434.684 113.381 435.076C112.952 435.468 112.7 435.981 112.625 436.616H117.385C117.31 435.991 117.054 435.482 116.615 435.09C116.186 434.689 115.649 434.488 115.005 434.488ZM125.974 434.6H123.258V440.844H121.914V434.6H119.198V433.424H125.974V434.6ZM130.254 440.928C129.498 440.928 128.821 440.765 128.224 440.438C127.636 440.111 127.174 439.663 126.838 439.094C126.502 438.515 126.334 437.862 126.334 437.134C126.334 436.406 126.502 435.757 126.838 435.188C127.174 434.609 127.636 434.161 128.224 433.844C128.821 433.517 129.498 433.354 130.254 433.354C130.926 433.354 131.523 433.489 132.046 433.76C132.578 434.031 132.988 434.423 133.278 434.936L132.256 435.594C132.022 435.239 131.733 434.973 131.388 434.796C131.042 434.619 130.66 434.53 130.24 434.53C129.754 434.53 129.316 434.637 128.924 434.852C128.541 435.067 128.238 435.375 128.014 435.776C127.799 436.168 127.692 436.621 127.692 437.134C127.692 437.657 127.799 438.119 128.014 438.52C128.238 438.912 128.541 439.215 128.924 439.43C129.316 439.645 129.754 439.752 130.24 439.752C130.66 439.752 131.042 439.663 131.388 439.486C131.733 439.309 132.022 439.043 132.256 438.688L133.278 439.332C132.988 439.845 132.578 440.242 132.046 440.522C131.523 440.793 130.926 440.928 130.254 440.928ZM140.735 433.424V440.844H139.531V438.492H137.375H137.221L135.597 440.844H134.155L135.961 438.31C135.401 438.142 134.972 437.867 134.673 437.484C134.375 437.092 134.225 436.607 134.225 436.028C134.225 435.179 134.515 434.535 135.093 434.096C135.672 433.648 136.47 433.424 137.487 433.424H140.735ZM135.597 436.07C135.597 436.565 135.751 436.933 136.059 437.176C136.377 437.409 136.848 437.526 137.473 437.526H139.531V434.6H137.529C136.241 434.6 135.597 435.09 135.597 436.07ZM147.117 433.424H148.461V436.574H152.689V433.424H154.033V440.844H152.689V437.736H148.461V440.844H147.117V433.424ZM159.293 433.354C160.319 433.354 161.103 433.606 161.645 434.11C162.195 434.614 162.471 435.365 162.471 436.364V440.844H161.197V439.864C160.973 440.209 160.651 440.475 160.231 440.662C159.82 440.839 159.33 440.928 158.761 440.928C157.93 440.928 157.263 440.727 156.759 440.326C156.264 439.925 156.017 439.397 156.017 438.744C156.017 438.091 156.255 437.568 156.731 437.176C157.207 436.775 157.963 436.574 158.999 436.574H161.127V436.308C161.127 435.729 160.959 435.286 160.623 434.978C160.287 434.67 159.792 434.516 159.139 434.516C158.7 434.516 158.271 434.591 157.851 434.74C157.431 434.88 157.076 435.071 156.787 435.314L156.227 434.306C156.609 433.998 157.067 433.765 157.599 433.606C158.131 433.438 158.695 433.354 159.293 433.354ZM158.985 439.892C159.498 439.892 159.941 439.78 160.315 439.556C160.688 439.323 160.959 438.996 161.127 438.576V437.54H159.055C157.916 437.54 157.347 437.923 157.347 438.688C157.347 439.061 157.491 439.355 157.781 439.57C158.07 439.785 158.471 439.892 158.985 439.892ZM171.059 431.044V440.844H169.673V432.262H167.461V431.044H171.059ZM176.002 434.95C177.402 434.95 178.429 435.216 179.082 435.748C179.745 436.271 180.076 436.989 180.076 437.904C180.076 438.483 179.936 439.005 179.656 439.472C179.386 439.929 178.97 440.293 178.41 440.564C177.86 440.825 177.178 440.956 176.366 440.956C175.676 440.956 175.008 440.853 174.364 440.648C173.72 440.433 173.188 440.139 172.768 439.766L173.412 438.66C173.748 438.977 174.178 439.234 174.7 439.43C175.223 439.617 175.774 439.71 176.352 439.71C177.09 439.71 177.659 439.556 178.06 439.248C178.471 438.931 178.676 438.501 178.676 437.96C178.676 437.372 178.452 436.929 178.004 436.63C177.556 436.322 176.791 436.168 175.708 436.168H173.482L174 431.044H179.53V432.262H175.176L174.91 434.95H176.002ZM185.245 440.956C184.471 440.956 183.78 440.76 183.173 440.368C182.576 439.967 182.105 439.388 181.759 438.632C181.414 437.876 181.241 436.98 181.241 435.944C181.241 434.908 181.414 434.012 181.759 433.256C182.105 432.5 182.576 431.926 183.173 431.534C183.78 431.133 184.471 430.932 185.245 430.932C186.011 430.932 186.692 431.133 187.289 431.534C187.896 431.926 188.372 432.5 188.717 433.256C189.063 434.012 189.235 434.908 189.235 435.944C189.235 436.98 189.063 437.876 188.717 438.632C188.372 439.388 187.896 439.967 187.289 440.368C186.692 440.76 186.011 440.956 185.245 440.956ZM185.245 439.71C186.029 439.71 186.655 439.388 187.121 438.744C187.597 438.1 187.835 437.167 187.835 435.944C187.835 434.721 187.597 433.788 187.121 433.144C186.655 432.5 186.029 432.178 185.245 432.178C184.452 432.178 183.817 432.5 183.341 433.144C182.875 433.788 182.641 434.721 182.641 435.944C182.641 437.167 182.875 438.1 183.341 438.744C183.817 439.388 184.452 439.71 185.245 439.71ZM194.583 440.956C193.809 440.956 193.118 440.76 192.511 440.368C191.914 439.967 191.443 439.388 191.097 438.632C190.752 437.876 190.579 436.98 190.579 435.944C190.579 434.908 190.752 434.012 191.097 433.256C191.443 432.5 191.914 431.926 192.511 431.534C193.118 431.133 193.809 430.932 194.583 430.932C195.349 430.932 196.03 431.133 196.627 431.534C197.234 431.926 197.71 432.5 198.055 433.256C198.401 434.012 198.573 434.908 198.573 435.944C198.573 436.98 198.401 437.876 198.055 438.632C197.71 439.388 197.234 439.967 196.627 440.368C196.03 440.76 195.349 440.956 194.583 440.956ZM194.583 439.71C195.367 439.71 195.993 439.388 196.459 438.744C196.935 438.1 197.173 437.167 197.173 435.944C197.173 434.721 196.935 433.788 196.459 433.144C195.993 432.5 195.367 432.178 194.583 432.178C193.79 432.178 193.155 432.5 192.679 433.144C192.213 433.788 191.979 434.721 191.979 435.944C191.979 437.167 192.213 438.1 192.679 438.744C193.155 439.388 193.79 439.71 194.583 439.71ZM69.677 455.424V462.844H68.333V456.6H64.147V462.844H62.803V455.424H69.677ZM75.4556 462.928C74.7183 462.928 74.0556 462.765 73.4676 462.438C72.8796 462.111 72.4176 461.663 72.0816 461.094C71.7549 460.515 71.5916 459.862 71.5916 459.134C71.5916 458.406 71.7549 457.757 72.0816 457.188C72.4176 456.609 72.8796 456.161 73.4676 455.844C74.0556 455.517 74.7183 455.354 75.4556 455.354C76.1929 455.354 76.8509 455.517 77.4296 455.844C78.0176 456.161 78.4749 456.609 78.8016 457.188C79.1376 457.757 79.3056 458.406 79.3056 459.134C79.3056 459.862 79.1376 460.515 78.8016 461.094C78.4749 461.663 78.0176 462.111 77.4296 462.438C76.8509 462.765 76.1929 462.928 75.4556 462.928ZM75.4556 461.752C75.9316 461.752 76.3563 461.645 76.7296 461.43C77.1123 461.206 77.4109 460.898 77.6256 460.506C77.8403 460.105 77.9476 459.647 77.9476 459.134C77.9476 458.621 77.8403 458.168 77.6256 457.776C77.4109 457.375 77.1123 457.067 76.7296 456.852C76.3563 456.637 75.9316 456.53 75.4556 456.53C74.9796 456.53 74.5503 456.637 74.1676 456.852C73.7943 457.067 73.4956 457.375 73.2716 457.776C73.0569 458.168 72.9496 458.621 72.9496 459.134C72.9496 459.647 73.0569 460.105 73.2716 460.506C73.4956 460.898 73.7943 461.206 74.1676 461.43C74.5503 461.645 74.9796 461.752 75.4556 461.752ZM85.1823 458.98C85.677 459.111 86.0596 459.321 86.3303 459.61C86.601 459.899 86.7363 460.259 86.7363 460.688C86.7363 461.127 86.587 461.519 86.2883 461.864C85.9896 462.2 85.5743 462.466 85.0423 462.662C84.5196 462.849 83.9316 462.942 83.2783 462.942C82.7276 462.942 82.1863 462.872 81.6543 462.732C81.1316 462.583 80.665 462.373 80.2543 462.102L80.6603 461.08C81.015 461.304 81.421 461.481 81.8783 461.612C82.3356 461.733 82.7976 461.794 83.2643 461.794C83.899 461.794 84.403 461.687 84.7763 461.472C85.159 461.248 85.3503 460.949 85.3503 460.576C85.3503 460.231 85.1963 459.965 84.8883 459.778C84.5896 459.591 84.165 459.498 83.6143 459.498H82.2563V458.532H83.5163C84.0203 458.532 84.417 458.443 84.7063 458.266C84.9956 458.089 85.1403 457.846 85.1403 457.538C85.1403 457.202 84.9676 456.941 84.6223 456.754C84.2863 456.567 83.829 456.474 83.2503 456.474C82.513 456.474 81.7336 456.665 80.9123 457.048L80.5483 456.012C81.4536 455.555 82.401 455.326 83.3903 455.326C83.9876 455.326 84.5243 455.41 85.0003 455.578C85.4763 455.746 85.8496 455.984 86.1203 456.292C86.391 456.6 86.5263 456.95 86.5263 457.342C86.5263 457.706 86.405 458.033 86.1623 458.322C85.9196 458.611 85.593 458.831 85.1823 458.98ZM88.7795 455.424H90.1235V460.828L94.6735 455.424H95.8915V462.844H94.5475V457.44L90.0115 462.844H88.7795V455.424ZM106.424 461.668V464.622H105.15V462.844H98.5002V455.424H99.8442V461.668H103.904V455.424H105.248V461.668H106.424ZM108.166 455.424H109.51V460.828L114.06 455.424H115.278V462.844H113.934V457.44L109.398 462.844H108.166V455.424ZM117.887 455.424H119.231V460.828L123.781 455.424H124.999V462.844H123.655V457.44L119.119 462.844H117.887V455.424ZM136.421 458.994C137.383 459.237 137.863 459.839 137.863 460.8C137.863 461.453 137.616 461.957 137.121 462.312C136.636 462.667 135.908 462.844 134.937 462.844H131.367V455.424H134.811C135.689 455.424 136.375 455.592 136.869 455.928C137.364 456.255 137.611 456.721 137.611 457.328C137.611 457.72 137.504 458.061 137.289 458.35C137.084 458.63 136.795 458.845 136.421 458.994ZM132.683 458.616H134.699C135.213 458.616 135.6 458.523 135.861 458.336C136.132 458.149 136.267 457.879 136.267 457.524C136.267 456.815 135.745 456.46 134.699 456.46H132.683V458.616ZM134.839 461.808C135.399 461.808 135.819 461.719 136.099 461.542C136.379 461.365 136.519 461.089 136.519 460.716C136.519 460.333 136.389 460.049 136.127 459.862C135.875 459.675 135.474 459.582 134.923 459.582H132.683V461.808H134.839ZM150.601 455.424V462.844H149.257V456.6H145.071V462.844H143.727V455.424H150.601ZM156.379 462.928C155.642 462.928 154.979 462.765 154.391 462.438C153.803 462.111 153.341 461.663 153.005 461.094C152.679 460.515 152.515 459.862 152.515 459.134C152.515 458.406 152.679 457.757 153.005 457.188C153.341 456.609 153.803 456.161 154.391 455.844C154.979 455.517 155.642 455.354 156.379 455.354C157.117 455.354 157.775 455.517 158.353 455.844C158.941 456.161 159.399 456.609 159.725 457.188C160.061 457.757 160.229 458.406 160.229 459.134C160.229 459.862 160.061 460.515 159.725 461.094C159.399 461.663 158.941 462.111 158.353 462.438C157.775 462.765 157.117 462.928 156.379 462.928ZM156.379 461.752C156.855 461.752 157.28 461.645 157.653 461.43C158.036 461.206 158.335 460.898 158.549 460.506C158.764 460.105 158.871 459.647 158.871 459.134C158.871 458.621 158.764 458.168 158.549 457.776C158.335 457.375 158.036 457.067 157.653 456.852C157.28 456.637 156.855 456.53 156.379 456.53C155.903 456.53 155.474 456.637 155.091 456.852C154.718 457.067 154.419 457.375 154.195 457.776C153.981 458.168 153.873 458.621 153.873 459.134C153.873 459.647 153.981 460.105 154.195 460.506C154.419 460.898 154.718 461.206 155.091 461.43C155.474 461.645 155.903 461.752 156.379 461.752ZM162.17 455.424H163.514V460.828L168.064 455.424H169.282V462.844H167.938V457.44L163.402 462.844H162.17V455.424ZM175.125 462.928C174.369 462.928 173.692 462.765 173.095 462.438C172.507 462.111 172.045 461.663 171.709 461.094C171.373 460.515 171.205 459.862 171.205 459.134C171.205 458.406 171.373 457.757 171.709 457.188C172.045 456.609 172.507 456.161 173.095 455.844C173.692 455.517 174.369 455.354 175.125 455.354C175.797 455.354 176.394 455.489 176.917 455.76C177.449 456.031 177.86 456.423 178.149 456.936L177.127 457.594C176.894 457.239 176.604 456.973 176.259 456.796C175.914 456.619 175.531 456.53 175.111 456.53C174.626 456.53 174.187 456.637 173.795 456.852C173.412 457.067 173.109 457.375 172.885 457.776C172.67 458.168 172.563 458.621 172.563 459.134C172.563 459.657 172.67 460.119 172.885 460.52C173.109 460.912 173.412 461.215 173.795 461.43C174.187 461.645 174.626 461.752 175.111 461.752C175.531 461.752 175.914 461.663 176.259 461.486C176.604 461.309 176.894 461.043 177.127 460.688L178.149 461.332C177.86 461.845 177.449 462.242 176.917 462.522C176.394 462.793 175.797 462.928 175.125 462.928ZM182.773 459.708H181.233V462.844H179.889V455.424H181.233V458.56H182.801L185.209 455.424H186.651L183.837 458.994L186.847 462.844H185.265L182.773 459.708ZM194.716 459.176C194.716 459.279 194.707 459.414 194.688 459.582H188.668C188.752 460.235 189.037 460.763 189.522 461.164C190.017 461.556 190.628 461.752 191.356 461.752C192.243 461.752 192.957 461.453 193.498 460.856L194.24 461.724C193.904 462.116 193.484 462.415 192.98 462.62C192.485 462.825 191.93 462.928 191.314 462.928C190.53 462.928 189.835 462.769 189.228 462.452C188.621 462.125 188.15 461.673 187.814 461.094C187.487 460.515 187.324 459.862 187.324 459.134C187.324 458.415 187.483 457.767 187.8 457.188C188.127 456.609 188.57 456.161 189.13 455.844C189.699 455.517 190.339 455.354 191.048 455.354C191.757 455.354 192.387 455.517 192.938 455.844C193.498 456.161 193.932 456.609 194.24 457.188C194.557 457.767 194.716 458.429 194.716 459.176ZM191.048 456.488C190.404 456.488 189.863 456.684 189.424 457.076C188.995 457.468 188.743 457.981 188.668 458.616H193.428C193.353 457.991 193.097 457.482 192.658 457.09C192.229 456.689 191.692 456.488 191.048 456.488Z" fill="#ECE7F2"/>
<path d="M126 358.844C142.016 358.844 155 345.86 155 329.844C155 313.827 142.016 300.844 126 300.844C109.984 300.844 97 313.827 97 329.844C97 345.86 109.984 358.844 126 358.844Z" fill="#1C0C31" stroke="#00CCCC" stroke-width="2"/>
<path d="M128.18 323.844V337.844H124.94V326.444H122.14V323.844H128.18Z" fill="#00CCCC"/>
<path d="M148.5 362.844C155.404 362.844 161 357.247 161 350.344C161 343.44 155.404 337.844 148.5 337.844C141.596 337.844 136 343.44 136 350.344C136 357.247 141.596 362.844 148.5 362.844Z" fill="#ECE7F2"/>
<path d="M541 393.844C541 323.151 483.692 265.844 413 265.844C342.308 265.844 285 323.151 285 393.844C285 464.536 342.308 521.844 413 521.844C483.692 521.844 541 464.536 541 393.844Z" fill="#1B0B2F" stroke="white" stroke-opacity="0.14" stroke-width="2" stroke-dasharray="4 4"/>
<path d="M349.23 391.044V400.844H347.858V392.262H342.174V400.844H340.788V391.044H349.23ZM355.24 400.928C354.502 400.928 353.84 400.765 353.252 400.438C352.664 400.111 352.202 399.663 351.866 399.094C351.539 398.515 351.376 397.862 351.376 397.134C351.376 396.406 351.539 395.757 351.866 395.188C352.202 394.609 352.664 394.161 353.252 393.844C353.84 393.517 354.502 393.354 355.24 393.354C355.977 393.354 356.635 393.517 357.214 393.844C357.802 394.161 358.259 394.609 358.586 395.188C358.922 395.757 359.09 396.406 359.09 397.134C359.09 397.862 358.922 398.515 358.586 399.094C358.259 399.663 357.802 400.111 357.214 400.438C356.635 400.765 355.977 400.928 355.24 400.928ZM355.24 399.752C355.716 399.752 356.14 399.645 356.514 399.43C356.896 399.206 357.195 398.898 357.41 398.506C357.624 398.105 357.732 397.647 357.732 397.134C357.732 396.621 357.624 396.168 357.41 395.776C357.195 395.375 356.896 395.067 356.514 394.852C356.14 394.637 355.716 394.53 355.24 394.53C354.764 394.53 354.334 394.637 353.952 394.852C353.578 395.067 353.28 395.375 353.056 395.776C352.841 396.168 352.734 396.621 352.734 397.134C352.734 397.647 352.841 398.105 353.056 398.506C353.28 398.898 353.578 399.206 353.952 399.43C354.334 399.645 354.764 399.752 355.24 399.752ZM366.085 396.994C367.046 397.237 367.527 397.839 367.527 398.8C367.527 399.453 367.279 399.957 366.785 400.312C366.299 400.667 365.571 400.844 364.601 400.844H361.031V393.424H364.475C365.352 393.424 366.038 393.592 366.533 393.928C367.027 394.255 367.275 394.721 367.275 395.328C367.275 395.72 367.167 396.061 366.953 396.35C366.747 396.63 366.458 396.845 366.085 396.994ZM362.347 396.616H364.363C364.876 396.616 365.263 396.523 365.525 396.336C365.795 396.149 365.931 395.879 365.931 395.524C365.931 394.815 365.408 394.46 364.363 394.46H362.347V396.616ZM364.503 399.808C365.063 399.808 365.483 399.719 365.763 399.542C366.043 399.365 366.183 399.089 366.183 398.716C366.183 398.333 366.052 398.049 365.791 397.862C365.539 397.675 365.137 397.582 364.587 397.582H362.347V399.808H364.503ZM372.976 395.944C373.909 395.953 374.623 396.168 375.118 396.588C375.613 397.008 375.86 397.601 375.86 398.366C375.86 399.169 375.589 399.789 375.048 400.228C374.516 400.657 373.751 400.867 372.752 400.858L369.63 400.844V393.424H370.974V395.93L372.976 395.944ZM376.966 393.424H378.31V400.844H376.966V393.424ZM372.654 399.836C373.261 399.845 373.718 399.724 374.026 399.472C374.343 399.22 374.502 398.847 374.502 398.352C374.502 397.867 374.348 397.512 374.04 397.288C373.732 397.064 373.27 396.947 372.654 396.938L370.974 396.91V399.822L372.654 399.836ZM391.493 393.424V400.844H380.923V393.424H382.267V399.668H385.543V393.424H386.887V399.668H390.149V393.424H391.493ZM396.749 393.354C397.775 393.354 398.559 393.606 399.101 394.11C399.651 394.614 399.927 395.365 399.927 396.364V400.844H398.653V399.864C398.429 400.209 398.107 400.475 397.687 400.662C397.276 400.839 396.786 400.928 396.217 400.928C395.386 400.928 394.719 400.727 394.215 400.326C393.72 399.925 393.473 399.397 393.473 398.744C393.473 398.091 393.711 397.568 394.187 397.176C394.663 396.775 395.419 396.574 396.455 396.574H398.583V396.308C398.583 395.729 398.415 395.286 398.079 394.978C397.743 394.67 397.248 394.516 396.595 394.516C396.156 394.516 395.727 394.591 395.307 394.74C394.887 394.88 394.532 395.071 394.243 395.314L393.683 394.306C394.065 393.998 394.523 393.765 395.055 393.606C395.587 393.438 396.151 393.354 396.749 393.354ZM396.441 399.892C396.954 399.892 397.397 399.78 397.771 399.556C398.144 399.323 398.415 398.996 398.583 398.576V397.54H396.511C395.372 397.54 394.803 397.923 394.803 398.688C394.803 399.061 394.947 399.355 395.237 399.57C395.526 399.785 395.927 399.892 396.441 399.892ZM409.053 397.176C409.053 397.279 409.044 397.414 409.025 397.582H403.005C403.089 398.235 403.374 398.763 403.859 399.164C404.354 399.556 404.965 399.752 405.693 399.752C406.58 399.752 407.294 399.453 407.835 398.856L408.577 399.724C408.241 400.116 407.821 400.415 407.317 400.62C406.822 400.825 406.267 400.928 405.651 400.928C404.867 400.928 404.172 400.769 403.565 400.452C402.958 400.125 402.487 399.673 402.151 399.094C401.824 398.515 401.661 397.862 401.661 397.134C401.661 396.415 401.82 395.767 402.137 395.188C402.464 394.609 402.907 394.161 403.467 393.844C404.036 393.517 404.676 393.354 405.385 393.354C406.094 393.354 406.724 393.517 407.275 393.844C407.835 394.161 408.269 394.609 408.577 395.188C408.894 395.767 409.053 396.429 409.053 397.176ZM405.385 394.488C404.741 394.488 404.2 394.684 403.761 395.076C403.332 395.468 403.08 395.981 403.005 396.616H407.765C407.69 395.991 407.434 395.482 406.995 395.09C406.566 394.689 406.029 394.488 405.385 394.488ZM419.692 393.424V400.844H418.474V395.426L415.702 400.004H415.114L412.37 395.412V400.844H411.138V393.424H412.524L415.436 398.436L418.432 393.424H419.692ZM432.942 393.424V400.844H431.598V394.6H427.412V400.844H426.068V393.424H432.942ZM439.476 393.354C440.195 393.354 440.839 393.513 441.408 393.83C441.978 394.147 442.421 394.591 442.738 395.16C443.065 395.729 443.228 396.387 443.228 397.134C443.228 397.881 443.065 398.543 442.738 399.122C442.421 399.691 441.978 400.135 441.408 400.452C440.839 400.769 440.195 400.928 439.476 400.928C438.944 400.928 438.454 400.825 438.006 400.62C437.568 400.415 437.194 400.116 436.886 399.724V403.56H435.542V393.424H436.83V394.6C437.129 394.189 437.507 393.881 437.964 393.676C438.422 393.461 438.926 393.354 439.476 393.354ZM439.364 399.752C439.84 399.752 440.265 399.645 440.638 399.43C441.021 399.206 441.32 398.898 441.534 398.506C441.758 398.105 441.87 397.647 441.87 397.134C441.87 396.621 441.758 396.168 441.534 395.776C441.32 395.375 441.021 395.067 440.638 394.852C440.265 394.637 439.84 394.53 439.364 394.53C438.898 394.53 438.473 394.642 438.09 394.866C437.717 395.081 437.418 395.384 437.194 395.776C436.98 396.168 436.872 396.621 436.872 397.134C436.872 397.647 436.98 398.105 437.194 398.506C437.409 398.898 437.708 399.206 438.09 399.43C438.473 399.645 438.898 399.752 439.364 399.752ZM448.359 400.928C447.622 400.928 446.959 400.765 446.371 400.438C445.783 400.111 445.321 399.663 444.985 399.094C444.658 398.515 444.495 397.862 444.495 397.134C444.495 396.406 444.658 395.757 444.985 395.188C445.321 394.609 445.783 394.161 446.371 393.844C446.959 393.517 447.622 393.354 448.359 393.354C449.096 393.354 449.754 393.517 450.333 393.844C450.921 394.161 451.378 394.609 451.705 395.188C452.041 395.757 452.209 396.406 452.209 397.134C452.209 397.862 452.041 398.515 451.705 399.094C451.378 399.663 450.921 400.111 450.333 400.438C449.754 400.765 449.096 400.928 448.359 400.928ZM448.359 399.752C448.835 399.752 449.26 399.645 449.633 399.43C450.016 399.206 450.314 398.898 450.529 398.506C450.744 398.105 450.851 397.647 450.851 397.134C450.851 396.621 450.744 396.168 450.529 395.776C450.314 395.375 450.016 395.067 449.633 394.852C449.26 394.637 448.835 394.53 448.359 394.53C447.883 394.53 447.454 394.637 447.071 394.852C446.698 395.067 446.399 395.375 446.175 395.776C445.96 396.168 445.853 396.621 445.853 397.134C445.853 397.647 445.96 398.105 446.175 398.506C446.399 398.898 446.698 399.206 447.071 399.43C447.454 399.645 447.883 399.752 448.359 399.752ZM462.074 399.668V402.622H460.8V400.844H454.15V393.424H455.494V399.668H459.554V393.424H460.898V399.668H462.074ZM470.522 397.176C470.522 397.279 470.512 397.414 470.494 397.582H464.474C464.558 398.235 464.842 398.763 465.328 399.164C465.822 399.556 466.434 399.752 467.162 399.752C468.048 399.752 468.762 399.453 469.304 398.856L470.046 399.724C469.71 400.116 469.29 400.415 468.786 400.62C468.291 400.825 467.736 400.928 467.12 400.928C466.336 400.928 465.64 400.769 465.034 400.452C464.427 400.125 463.956 399.673 463.62 399.094C463.293 398.515 463.13 397.862 463.13 397.134C463.13 396.415 463.288 395.767 463.606 395.188C463.932 394.609 464.376 394.161 464.936 393.844C465.505 393.517 466.144 393.354 466.854 393.354C467.563 393.354 468.193 393.517 468.744 393.844C469.304 394.161 469.738 394.609 470.046 395.188C470.363 395.767 470.522 396.429 470.522 397.176ZM466.854 394.488C466.21 394.488 465.668 394.684 465.23 395.076C464.8 395.468 464.548 395.981 464.474 396.616H469.234C469.159 395.991 468.902 395.482 468.464 395.09C468.034 394.689 467.498 394.488 466.854 394.488ZM472.607 393.424H473.951V396.574H478.179V393.424H479.523V400.844H478.179V397.736H473.951V400.844H472.607V393.424ZM487.666 394.6H484.95V400.844H483.606V394.6H480.89V393.424H487.666V394.6ZM336.336 415.424V422.844H334.992V416.6H330.806V422.844H329.462V415.424H336.336ZM342.871 415.354C343.589 415.354 344.233 415.513 344.803 415.83C345.372 416.147 345.815 416.591 346.133 417.16C346.459 417.729 346.623 418.387 346.623 419.134C346.623 419.881 346.459 420.543 346.133 421.122C345.815 421.691 345.372 422.135 344.803 422.452C344.233 422.769 343.589 422.928 342.871 422.928C342.339 422.928 341.849 422.825 341.401 422.62C340.962 422.415 340.589 422.116 340.281 421.724V425.56H338.937V415.424H340.225V416.6C340.523 416.189 340.901 415.881 341.359 415.676C341.816 415.461 342.32 415.354 342.871 415.354ZM342.759 421.752C343.235 421.752 343.659 421.645 344.033 421.43C344.415 421.206 344.714 420.898 344.929 420.506C345.153 420.105 345.265 419.647 345.265 419.134C345.265 418.621 345.153 418.168 344.929 417.776C344.714 417.375 344.415 417.067 344.033 416.852C343.659 416.637 343.235 416.53 342.759 416.53C342.292 416.53 341.867 416.642 341.485 416.866C341.111 417.081 340.813 417.384 340.589 417.776C340.374 418.168 340.267 418.621 340.267 419.134C340.267 419.647 340.374 420.105 340.589 420.506C340.803 420.898 341.102 421.206 341.485 421.43C341.867 421.645 342.292 421.752 342.759 421.752ZM351.753 422.928C351.016 422.928 350.353 422.765 349.765 422.438C349.177 422.111 348.715 421.663 348.379 421.094C348.053 420.515 347.889 419.862 347.889 419.134C347.889 418.406 348.053 417.757 348.379 417.188C348.715 416.609 349.177 416.161 349.765 415.844C350.353 415.517 351.016 415.354 351.753 415.354C352.491 415.354 353.149 415.517 353.727 415.844C354.315 416.161 354.773 416.609 355.099 417.188C355.435 417.757 355.603 418.406 355.603 419.134C355.603 419.862 355.435 420.515 355.099 421.094C354.773 421.663 354.315 422.111 353.727 422.438C353.149 422.765 352.491 422.928 351.753 422.928ZM351.753 421.752C352.229 421.752 352.654 421.645 353.027 421.43C353.41 421.206 353.709 420.898 353.923 420.506C354.138 420.105 354.245 419.647 354.245 419.134C354.245 418.621 354.138 418.168 353.923 417.776C353.709 417.375 353.41 417.067 353.027 416.852C352.654 416.637 352.229 416.53 351.753 416.53C351.277 416.53 350.848 416.637 350.465 416.852C350.092 417.067 349.793 417.375 349.569 417.776C349.355 418.168 349.247 418.621 349.247 419.134C349.247 419.647 349.355 420.105 349.569 420.506C349.793 420.898 350.092 421.206 350.465 421.43C350.848 421.645 351.277 421.752 351.753 421.752ZM365.036 421.668V424.566H363.776V422.844H357.574V424.566H356.3V421.668H356.692C357.168 421.64 357.494 421.304 357.672 420.66C357.849 420.016 357.97 419.106 358.035 417.93L358.148 415.424H363.901V421.668H365.036ZM359.268 418.028C359.23 418.961 359.151 419.736 359.03 420.352C358.918 420.959 358.708 421.397 358.4 421.668H362.558V416.6H359.338L359.268 418.028ZM369.432 415.354C370.459 415.354 371.243 415.606 371.784 416.11C372.335 416.614 372.61 417.365 372.61 418.364V422.844H371.336V421.864C371.112 422.209 370.79 422.475 370.37 422.662C369.96 422.839 369.47 422.928 368.9 422.928C368.07 422.928 367.402 422.727 366.898 422.326C366.404 421.925 366.156 421.397 366.156 420.744C366.156 420.091 366.394 419.568 366.87 419.176C367.346 418.775 368.102 418.574 369.138 418.574H371.266V418.308C371.266 417.729 371.098 417.286 370.762 416.978C370.426 416.67 369.932 416.516 369.278 416.516C368.84 416.516 368.41 416.591 367.99 416.74C367.57 416.88 367.216 417.071 366.926 417.314L366.366 416.306C366.749 415.998 367.206 415.765 367.738 415.606C368.27 415.438 368.835 415.354 369.432 415.354ZM369.124 421.892C369.638 421.892 370.081 421.78 370.454 421.556C370.828 421.323 371.098 420.996 371.266 420.576V419.54H369.194C368.056 419.54 367.486 419.923 367.486 420.688C367.486 421.061 367.631 421.355 367.92 421.57C368.21 421.785 368.611 421.892 369.124 421.892ZM381.779 419.708H380.337V422.844H378.993V419.708H377.551L375.507 422.844H373.911L376.459 419.008L374.107 415.424H375.535L377.537 418.56H378.993V415.424H380.337V418.56H381.793L383.795 415.424H385.237L382.885 419.022L385.433 422.844H383.837L381.779 419.708ZM390.671 415.424H392.015V420.828L396.565 415.424H397.783V422.844H396.439V417.44L391.903 422.844H390.671V415.424ZM407.036 419.708H405.496V422.844H404.152V415.424H405.496V418.56H407.064L409.472 415.424H410.914L408.1 418.994L411.11 422.844H409.528L407.036 419.708ZM415.451 422.928C414.713 422.928 414.051 422.765 413.463 422.438C412.875 422.111 412.413 421.663 412.077 421.094C411.75 420.515 411.587 419.862 411.587 419.134C411.587 418.406 411.75 417.757 412.077 417.188C412.413 416.609 412.875 416.161 413.463 415.844C414.051 415.517 414.713 415.354 415.451 415.354C416.188 415.354 416.846 415.517 417.425 415.844C418.013 416.161 418.47 416.609 418.797 417.188C419.133 417.757 419.301 418.406 419.301 419.134C419.301 419.862 419.133 420.515 418.797 421.094C418.47 421.663 418.013 422.111 417.425 422.438C416.846 422.765 416.188 422.928 415.451 422.928ZM415.451 421.752C415.927 421.752 416.351 421.645 416.725 421.43C417.107 421.206 417.406 420.898 417.621 420.506C417.835 420.105 417.943 419.647 417.943 419.134C417.943 418.621 417.835 418.168 417.621 417.776C417.406 417.375 417.107 417.067 416.725 416.852C416.351 416.637 415.927 416.53 415.451 416.53C414.975 416.53 414.545 416.637 414.163 416.852C413.789 417.067 413.491 417.375 413.267 417.776C413.052 418.168 412.945 418.621 412.945 419.134C412.945 419.647 413.052 420.105 413.267 420.506C413.491 420.898 413.789 421.206 414.163 421.43C414.545 421.645 414.975 421.752 415.451 421.752ZM421.241 415.424H422.585V418.574H426.813V415.424H428.157V422.844H426.813V419.736H422.585V422.844H421.241V415.424ZM435.825 418.994C436.786 419.237 437.267 419.839 437.267 420.8C437.267 421.453 437.019 421.957 436.525 422.312C436.039 422.667 435.311 422.844 434.341 422.844H430.771V415.424H434.215C435.092 415.424 435.778 415.592 436.273 415.928C436.767 416.255 437.015 416.721 437.015 417.328C437.015 417.72 436.907 418.061 436.693 418.35C436.487 418.63 436.198 418.845 435.825 418.994ZM432.087 418.616H434.103C434.616 418.616 435.003 418.523 435.265 418.336C435.535 418.149 435.671 417.879 435.671 417.524C435.671 416.815 435.148 416.46 434.103 416.46H432.087V418.616ZM434.243 421.808C434.803 421.808 435.223 421.719 435.503 421.542C435.783 421.365 435.923 421.089 435.923 420.716C435.923 420.333 435.792 420.049 435.531 419.862C435.279 419.675 434.877 419.582 434.327 419.582H432.087V421.808H434.243ZM446.076 419.176C446.076 419.279 446.067 419.414 446.048 419.582H440.028C440.112 420.235 440.397 420.763 440.882 421.164C441.377 421.556 441.988 421.752 442.716 421.752C443.603 421.752 444.317 421.453 444.858 420.856L445.6 421.724C445.264 422.116 444.844 422.415 444.34 422.62C443.846 422.825 443.29 422.928 442.674 422.928C441.89 422.928 441.195 422.769 440.588 422.452C439.982 422.125 439.51 421.673 439.174 421.094C438.848 420.515 438.684 419.862 438.684 419.134C438.684 418.415 438.843 417.767 439.16 417.188C439.487 416.609 439.93 416.161 440.49 415.844C441.06 415.517 441.699 415.354 442.408 415.354C443.118 415.354 443.748 415.517 444.298 415.844C444.858 416.161 445.292 416.609 445.6 417.188C445.918 417.767 446.076 418.429 446.076 419.176ZM442.408 416.488C441.764 416.488 441.223 416.684 440.784 417.076C440.355 417.468 440.103 417.981 440.028 418.616H444.788C444.714 417.991 444.457 417.482 444.018 417.09C443.589 416.689 443.052 416.488 442.408 416.488ZM452.095 415.354C452.814 415.354 453.458 415.513 454.027 415.83C454.597 416.147 455.04 416.591 455.357 417.16C455.684 417.729 455.847 418.387 455.847 419.134C455.847 419.881 455.684 420.543 455.357 421.122C455.04 421.691 454.597 422.135 454.027 422.452C453.458 422.769 452.814 422.928 452.095 422.928C451.563 422.928 451.073 422.825 450.625 422.62C450.187 422.415 449.813 422.116 449.505 421.724V425.56H448.161V415.424H449.449V416.6C449.748 416.189 450.126 415.881 450.583 415.676C451.041 415.461 451.545 415.354 452.095 415.354ZM451.983 421.752C452.459 421.752 452.884 421.645 453.257 421.43C453.64 421.206 453.939 420.898 454.153 420.506C454.377 420.105 454.489 419.647 454.489 419.134C454.489 418.621 454.377 418.168 454.153 417.776C453.939 417.375 453.64 417.067 453.257 416.852C452.884 416.637 452.459 416.53 451.983 416.53C451.517 416.53 451.092 416.642 450.709 416.866C450.336 417.081 450.037 417.384 449.813 417.776C449.599 418.168 449.491 418.621 449.491 419.134C449.491 419.647 449.599 420.105 449.813 420.506C450.028 420.898 450.327 421.206 450.709 421.43C451.092 421.645 451.517 421.752 451.983 421.752ZM461.034 422.928C460.278 422.928 459.601 422.765 459.004 422.438C458.416 422.111 457.954 421.663 457.618 421.094C457.282 420.515 457.114 419.862 457.114 419.134C457.114 418.406 457.282 417.757 457.618 417.188C457.954 416.609 458.416 416.161 459.004 415.844C459.601 415.517 460.278 415.354 461.034 415.354C461.706 415.354 462.303 415.489 462.826 415.76C463.358 416.031 463.769 416.423 464.058 416.936L463.036 417.594C462.803 417.239 462.513 416.973 462.168 416.796C461.823 416.619 461.44 416.53 461.02 416.53C460.535 416.53 460.096 416.637 459.704 416.852C459.321 417.067 459.018 417.375 458.794 417.776C458.579 418.168 458.472 418.621 458.472 419.134C458.472 419.657 458.579 420.119 458.794 420.52C459.018 420.912 459.321 421.215 459.704 421.43C460.096 421.645 460.535 421.752 461.02 421.752C461.44 421.752 461.823 421.663 462.168 421.486C462.513 421.309 462.803 421.043 463.036 420.688L464.058 421.332C463.769 421.845 463.358 422.242 462.826 422.522C462.303 422.793 461.706 422.928 461.034 422.928ZM465.798 415.424H467.142V420.828L471.692 415.424H472.91V422.844H471.566V417.44L467.03 422.844H465.798V415.424ZM482.085 415.354C482.803 415.354 483.447 415.517 484.017 415.844C484.586 416.161 485.034 416.609 485.361 417.188C485.687 417.757 485.851 418.406 485.851 419.134C485.851 419.862 485.687 420.515 485.361 421.094C485.034 421.663 484.586 422.111 484.017 422.438C483.447 422.765 482.803 422.928 482.085 422.928C481.431 422.928 480.839 422.793 480.307 422.522C479.775 422.251 479.336 421.873 478.991 421.388C478.655 420.893 478.445 420.333 478.361 419.708H476.863V422.844H475.519V415.424H476.863V418.462H478.375C478.468 417.846 478.683 417.305 479.019 416.838C479.364 416.362 479.798 415.998 480.321 415.746C480.853 415.485 481.441 415.354 482.085 415.354ZM482.085 421.752C482.542 421.752 482.953 421.645 483.317 421.43C483.69 421.215 483.984 420.912 484.199 420.52C484.413 420.119 484.521 419.657 484.521 419.134C484.521 418.621 484.413 418.168 484.199 417.776C483.984 417.375 483.69 417.067 483.317 416.852C482.953 416.637 482.542 416.53 482.085 416.53C481.627 416.53 481.212 416.637 480.839 416.852C480.465 417.067 480.171 417.375 479.957 417.776C479.751 418.168 479.649 418.621 479.649 419.134C479.649 419.657 479.751 420.119 479.957 420.52C480.171 420.912 480.465 421.215 480.839 421.43C481.212 421.645 481.627 421.752 482.085 421.752ZM496.596 418.994C497.558 419.237 498.038 419.839 498.038 420.8C498.038 421.453 497.791 421.957 497.296 422.312C496.811 422.667 496.083 422.844 495.112 422.844H491.542V415.424H494.986C495.864 415.424 496.55 415.592 497.044 415.928C497.539 416.255 497.786 416.721 497.786 417.328C497.786 417.72 497.679 418.061 497.464 418.35C497.259 418.63 496.97 418.845 496.596 418.994ZM492.858 418.616H494.874C495.388 418.616 495.775 418.523 496.036 418.336C496.307 418.149 496.442 417.879 496.442 417.524C496.442 416.815 495.92 416.46 494.874 416.46H492.858V418.616ZM495.014 421.808C495.574 421.808 495.994 421.719 496.274 421.542C496.554 421.365 496.694 421.089 496.694 420.716C496.694 420.333 496.564 420.049 496.302 419.862C496.05 419.675 495.649 419.582 495.098 419.582H492.858V421.808H495.014ZM341.989 437.424V444.844H340.645V438.6H336.459V444.844H335.115V437.424H341.989ZM347.768 444.928C347.031 444.928 346.368 444.765 345.78 444.438C345.192 444.111 344.73 443.663 344.394 443.094C344.067 442.515 343.904 441.862 343.904 441.134C343.904 440.406 344.067 439.757 344.394 439.188C344.73 438.609 345.192 438.161 345.78 437.844C346.368 437.517 347.031 437.354 347.768 437.354C348.505 437.354 349.163 437.517 349.742 437.844C350.33 438.161 350.787 438.609 351.114 439.188C351.45 439.757 351.618 440.406 351.618 441.134C351.618 441.862 351.45 442.515 351.114 443.094C350.787 443.663 350.33 444.111 349.742 444.438C349.163 444.765 348.505 444.928 347.768 444.928ZM347.768 443.752C348.244 443.752 348.669 443.645 349.042 443.43C349.425 443.206 349.723 442.898 349.938 442.506C350.153 442.105 350.26 441.647 350.26 441.134C350.26 440.621 350.153 440.168 349.938 439.776C349.723 439.375 349.425 439.067 349.042 438.852C348.669 438.637 348.244 438.53 347.768 438.53C347.292 438.53 346.863 438.637 346.48 438.852C346.107 439.067 345.808 439.375 345.584 439.776C345.369 440.168 345.262 440.621 345.262 441.134C345.262 441.647 345.369 442.105 345.584 442.506C345.808 442.898 346.107 443.206 346.48 443.43C346.863 443.645 347.292 443.752 347.768 443.752ZM356.443 441.708H354.903V444.844H353.559V437.424H354.903V440.56H356.471L358.879 437.424H360.321L357.507 440.994L360.517 444.844H358.935L356.443 441.708ZM368.124 437.424L364.526 445.586C364.209 446.342 363.836 446.874 363.406 447.182C362.986 447.49 362.478 447.644 361.88 447.644C361.516 447.644 361.162 447.583 360.816 447.462C360.48 447.35 360.2 447.182 359.976 446.958L360.55 445.95C360.933 446.314 361.376 446.496 361.88 446.496C362.207 446.496 362.478 446.407 362.692 446.23C362.916 446.062 363.117 445.768 363.294 445.348L363.532 444.83L360.256 437.424H361.656L364.246 443.36L366.808 437.424H368.124ZM376.374 437.424V444.844H375.03V438.6H370.844V444.844H369.5V437.424H376.374ZM381.859 441.708H380.319V444.844H378.975V437.424H380.319V440.56H381.887L384.295 437.424H385.737L382.923 440.994L385.933 444.844H384.351L381.859 441.708ZM393.54 437.424L389.942 445.586C389.625 446.342 389.252 446.874 388.822 447.182C388.402 447.49 387.894 447.644 387.296 447.644C386.932 447.644 386.578 447.583 386.232 447.462C385.896 447.35 385.616 447.182 385.392 446.958L385.966 445.95C386.349 446.314 386.792 446.496 387.296 446.496C387.623 446.496 387.894 446.407 388.108 446.23C388.332 446.062 388.533 445.768 388.71 445.348L388.948 444.83L385.672 437.424H387.072L389.662 443.36L392.224 437.424H393.54ZM398.676 437.424H400.02V442.828L404.57 437.424H405.788V444.844H404.444V439.44L399.908 444.844H398.676V437.424ZM412.292 440.98C412.786 441.111 413.169 441.321 413.44 441.61C413.71 441.899 413.846 442.259 413.846 442.688C413.846 443.127 413.696 443.519 413.398 443.864C413.099 444.2 412.684 444.466 412.152 444.662C411.629 444.849 411.041 444.942 410.388 444.942C409.837 444.942 409.296 444.872 408.764 444.732C408.241 444.583 407.774 444.373 407.364 444.102L407.77 443.08C408.124 443.304 408.53 443.481 408.988 443.612C409.445 443.733 409.907 443.794 410.374 443.794C411.008 443.794 411.512 443.687 411.886 443.472C412.268 443.248 412.46 442.949 412.46 442.576C412.46 442.231 412.306 441.965 411.998 441.778C411.699 441.591 411.274 441.498 410.724 441.498H409.366V440.532H410.626C411.13 440.532 411.526 440.443 411.816 440.266C412.105 440.089 412.25 439.846 412.25 439.538C412.25 439.202 412.077 438.941 411.732 438.754C411.396 438.567 410.938 438.474 410.36 438.474C409.622 438.474 408.843 438.665 408.022 439.048L407.658 438.012C408.563 437.555 409.51 437.326 410.5 437.326C411.097 437.326 411.634 437.41 412.11 437.578C412.586 437.746 412.959 437.984 413.23 438.292C413.5 438.6 413.636 438.95 413.636 439.342C413.636 439.706 413.514 440.033 413.272 440.322C413.029 440.611 412.702 440.831 412.292 440.98ZM426.523 437.424V444.844H425.179V438.6H420.993V444.844H419.649V437.424H426.523ZM432.301 444.928C431.564 444.928 430.901 444.765 430.313 444.438C429.725 444.111 429.263 443.663 428.927 443.094C428.601 442.515 428.437 441.862 428.437 441.134C428.437 440.406 428.601 439.757 428.927 439.188C429.263 438.609 429.725 438.161 430.313 437.844C430.901 437.517 431.564 437.354 432.301 437.354C433.039 437.354 433.697 437.517 434.275 437.844C434.863 438.161 435.321 438.609 435.647 439.188C435.983 439.757 436.151 440.406 436.151 441.134C436.151 441.862 435.983 442.515 435.647 443.094C435.321 443.663 434.863 444.111 434.275 444.438C433.697 444.765 433.039 444.928 432.301 444.928ZM432.301 443.752C432.777 443.752 433.202 443.645 433.575 443.43C433.958 443.206 434.257 442.898 434.471 442.506C434.686 442.105 434.793 441.647 434.793 441.134C434.793 440.621 434.686 440.168 434.471 439.776C434.257 439.375 433.958 439.067 433.575 438.852C433.202 438.637 432.777 438.53 432.301 438.53C431.825 438.53 431.396 438.637 431.013 438.852C430.64 439.067 430.341 439.375 430.117 439.776C429.903 440.168 429.795 440.621 429.795 441.134C429.795 441.647 429.903 442.105 430.117 442.506C430.341 442.898 430.64 443.206 431.013 443.43C431.396 443.645 431.825 443.752 432.301 443.752ZM438.092 437.424H439.436V442.828L443.986 437.424H445.204V444.844H443.86V439.44L439.324 444.844H438.092V437.424ZM451.047 444.928C450.291 444.928 449.614 444.765 449.017 444.438C448.429 444.111 447.967 443.663 447.631 443.094C447.295 442.515 447.127 441.862 447.127 441.134C447.127 440.406 447.295 439.757 447.631 439.188C447.967 438.609 448.429 438.161 449.017 437.844C449.614 437.517 450.291 437.354 451.047 437.354C451.719 437.354 452.316 437.489 452.839 437.76C453.371 438.031 453.781 438.423 454.071 438.936L453.049 439.594C452.815 439.239 452.526 438.973 452.181 438.796C451.835 438.619 451.453 438.53 451.033 438.53C450.547 438.53 450.109 438.637 449.717 438.852C449.334 439.067 449.031 439.375 448.807 439.776C448.592 440.168 448.485 440.621 448.485 441.134C448.485 441.657 448.592 442.119 448.807 442.52C449.031 442.912 449.334 443.215 449.717 443.43C450.109 443.645 450.547 443.752 451.033 443.752C451.453 443.752 451.835 443.663 452.181 443.486C452.526 443.309 452.815 443.043 453.049 442.688L454.071 443.332C453.781 443.845 453.371 444.242 452.839 444.522C452.316 444.793 451.719 444.928 451.047 444.928ZM458.695 441.708H457.155V444.844H455.811V437.424H457.155V440.56H458.723L461.131 437.424H462.573L459.759 440.994L462.769 444.844H461.187L458.695 441.708ZM466.687 437.354C467.714 437.354 468.498 437.606 469.039 438.11C469.59 438.614 469.865 439.365 469.865 440.364V444.844H468.591V443.864C468.367 444.209 468.045 444.475 467.625 444.662C467.215 444.839 466.725 444.928 466.155 444.928C465.325 444.928 464.657 444.727 464.153 444.326C463.659 443.925 463.411 443.397 463.411 442.744C463.411 442.091 463.649 441.568 464.125 441.176C464.601 440.775 465.357 440.574 466.393 440.574H468.521V440.308C468.521 439.729 468.353 439.286 468.017 438.978C467.681 438.67 467.187 438.516 466.533 438.516C466.095 438.516 465.665 438.591 465.245 438.74C464.825 438.88 464.471 439.071 464.181 439.314L463.621 438.306C464.004 437.998 464.461 437.765 464.993 437.606C465.525 437.438 466.09 437.354 466.687 437.354ZM466.379 443.892C466.893 443.892 467.336 443.78 467.709 443.556C468.083 443.323 468.353 442.996 468.521 442.576V441.54H466.449C465.311 441.54 464.741 441.923 464.741 442.688C464.741 443.061 464.886 443.355 465.175 443.57C465.465 443.785 465.866 443.892 466.379 443.892ZM482.919 437.424V444.844H481.575V438.6H477.389V444.844H476.045V437.424H482.919ZM488.698 444.928C487.96 444.928 487.298 444.765 486.71 444.438C486.122 444.111 485.66 443.663 485.324 443.094C484.997 442.515 484.834 441.862 484.834 441.134C484.834 440.406 484.997 439.757 485.324 439.188C485.66 438.609 486.122 438.161 486.71 437.844C487.298 437.517 487.96 437.354 488.698 437.354C489.435 437.354 490.093 437.517 490.672 437.844C491.26 438.161 491.717 438.609 492.044 439.188C492.38 439.757 492.548 440.406 492.548 441.134C492.548 441.862 492.38 442.515 492.044 443.094C491.717 443.663 491.26 444.111 490.672 444.438C490.093 444.765 489.435 444.928 488.698 444.928ZM488.698 443.752C489.174 443.752 489.598 443.645 489.972 443.43C490.354 443.206 490.653 442.898 490.868 442.506C491.082 442.105 491.19 441.647 491.19 441.134C491.19 440.621 491.082 440.168 490.868 439.776C490.653 439.375 490.354 439.067 489.972 438.852C489.598 438.637 489.174 438.53 488.698 438.53C488.222 438.53 487.792 438.637 487.41 438.852C487.036 439.067 486.738 439.375 486.514 439.776C486.299 440.168 486.192 440.621 486.192 441.134C486.192 441.647 486.299 442.105 486.514 442.506C486.738 442.898 487.036 443.206 487.41 443.43C487.792 443.645 488.222 443.752 488.698 443.752ZM349.949 463.708H348.409V466.844H347.065V459.424H348.409V462.56H349.977L352.385 459.424H353.827L351.013 462.994L354.023 466.844H352.441L349.949 463.708ZM361.802 459.424V466.844H360.458V460.6H357.266L357.182 462.252C357.135 463.251 357.047 464.086 356.916 464.758C356.785 465.421 356.571 465.953 356.272 466.354C355.973 466.755 355.558 466.956 355.026 466.956C354.783 466.956 354.508 466.914 354.2 466.83L354.284 465.696C354.405 465.724 354.517 465.738 354.62 465.738C354.993 465.738 355.273 465.575 355.46 465.248C355.647 464.921 355.768 464.534 355.824 464.086C355.88 463.638 355.931 462.999 355.978 462.168L356.104 459.424H361.802ZM370.967 459.354C371.685 459.354 372.329 459.517 372.899 459.844C373.468 460.161 373.916 460.609 374.243 461.188C374.569 461.757 374.733 462.406 374.733 463.134C374.733 463.862 374.569 464.515 374.243 465.094C373.916 465.663 373.468 466.111 372.899 466.438C372.329 466.765 371.685 466.928 370.967 466.928C370.313 466.928 369.721 466.793 369.189 466.522C368.657 466.251 368.218 465.873 367.873 465.388C367.537 464.893 367.327 464.333 367.243 463.708H365.745V466.844H364.401V459.424H365.745V462.462H367.257C367.35 461.846 367.565 461.305 367.901 460.838C368.246 460.362 368.68 459.998 369.203 459.746C369.735 459.485 370.323 459.354 370.967 459.354ZM370.967 465.752C371.424 465.752 371.835 465.645 372.199 465.43C372.572 465.215 372.866 464.912 373.081 464.52C373.295 464.119 373.403 463.657 373.403 463.134C373.403 462.621 373.295 462.168 373.081 461.776C372.866 461.375 372.572 461.067 372.199 460.852C371.835 460.637 371.424 460.53 370.967 460.53C370.509 460.53 370.094 460.637 369.721 460.852C369.347 461.067 369.053 461.375 368.839 461.776C368.633 462.168 368.531 462.621 368.531 463.134C368.531 463.657 368.633 464.119 368.839 464.52C369.053 464.912 369.347 465.215 369.721 465.43C370.094 465.645 370.509 465.752 370.967 465.752ZM382.586 459.424V466.844H381.242V463.848C380.44 464.221 379.642 464.408 378.848 464.408C377.924 464.408 377.21 464.193 376.706 463.764C376.202 463.335 375.95 462.691 375.95 461.832V459.424H377.294V461.748C377.294 462.261 377.453 462.649 377.77 462.91C378.097 463.171 378.55 463.302 379.128 463.302C379.782 463.302 380.486 463.139 381.242 462.812V459.424H382.586ZM391.902 463.176C391.902 463.279 391.892 463.414 391.874 463.582H385.854C385.938 464.235 386.222 464.763 386.708 465.164C387.202 465.556 387.814 465.752 388.542 465.752C389.428 465.752 390.142 465.453 390.684 464.856L391.426 465.724C391.09 466.116 390.67 466.415 390.166 466.62C389.671 466.825 389.116 466.928 388.5 466.928C387.716 466.928 387.02 466.769 386.414 466.452C385.807 466.125 385.336 465.673 385 465.094C384.673 464.515 384.51 463.862 384.51 463.134C384.51 462.415 384.668 461.767 384.986 461.188C385.312 460.609 385.756 460.161 386.316 459.844C386.885 459.517 387.524 459.354 388.234 459.354C388.943 459.354 389.573 459.517 390.124 459.844C390.684 460.161 391.118 460.609 391.426 461.188C391.743 461.767 391.902 462.429 391.902 463.176ZM388.234 460.488C387.59 460.488 387.048 460.684 386.61 461.076C386.18 461.468 385.928 461.981 385.854 462.616H390.614C390.539 461.991 390.282 461.482 389.844 461.09C389.414 460.689 388.878 460.488 388.234 460.488ZM399.041 462.994C400.002 463.237 400.483 463.839 400.483 464.8C400.483 465.453 400.235 465.957 399.741 466.312C399.255 466.667 398.527 466.844 397.557 466.844H393.987V459.424H397.431C398.308 459.424 398.994 459.592 399.489 459.928C399.983 460.255 400.231 460.721 400.231 461.328C400.231 461.72 400.123 462.061 399.909 462.35C399.703 462.63 399.414 462.845 399.041 462.994ZM395.303 462.616H397.319C397.832 462.616 398.219 462.523 398.481 462.336C398.751 462.149 398.887 461.879 398.887 461.524C398.887 460.815 398.364 460.46 397.319 460.46H395.303V462.616ZM397.459 465.808C398.019 465.808 398.439 465.719 398.719 465.542C398.999 465.365 399.139 465.089 399.139 464.716C399.139 464.333 399.008 464.049 398.747 463.862C398.495 463.675 398.093 463.582 397.543 463.582H395.303V465.808H397.459ZM405.932 461.944C406.866 461.953 407.58 462.168 408.074 462.588C408.569 463.008 408.816 463.601 408.816 464.366C408.816 465.169 408.546 465.789 408.004 466.228C407.472 466.657 406.707 466.867 405.708 466.858L402.586 466.844V459.424H403.93V461.93L405.932 461.944ZM409.922 459.424H411.266V466.844H409.922V459.424ZM405.61 465.836C406.217 465.845 406.674 465.724 406.982 465.472C407.3 465.22 407.458 464.847 407.458 464.352C407.458 463.867 407.304 463.512 406.996 463.288C406.688 463.064 406.226 462.947 405.61 462.938L403.93 462.91V465.822L405.61 465.836ZM422.433 459.424V466.844H421.215V461.426L418.443 466.004H417.855L415.111 461.412V466.844H413.879V459.424H415.265L418.177 464.436L421.173 459.424H422.433ZM432.043 466.928C431.287 466.928 430.61 466.765 430.013 466.438C429.425 466.111 428.963 465.663 428.627 465.094C428.291 464.515 428.123 463.862 428.123 463.134C428.123 462.406 428.291 461.757 428.627 461.188C428.963 460.609 429.425 460.161 430.013 459.844C430.61 459.517 431.287 459.354 432.043 459.354C432.715 459.354 433.312 459.489 433.835 459.76C434.367 460.031 434.778 460.423 435.067 460.936L434.045 461.594C433.812 461.239 433.522 460.973 433.177 460.796C432.832 460.619 432.449 460.53 432.029 460.53C431.544 460.53 431.105 460.637 430.713 460.852C430.33 461.067 430.027 461.375 429.803 461.776C429.588 462.168 429.481 462.621 429.481 463.134C429.481 463.657 429.588 464.119 429.803 464.52C430.027 464.912 430.33 465.215 430.713 465.43C431.105 465.645 431.544 465.752 432.029 465.752C432.449 465.752 432.832 465.663 433.177 465.486C433.522 465.309 433.812 465.043 434.045 464.688L435.067 465.332C434.778 465.845 434.367 466.242 433.835 466.522C433.312 466.793 432.715 466.928 432.043 466.928ZM442.958 459.424V466.844H441.614V460.6H438.422L438.338 462.252C438.291 463.251 438.203 464.086 438.072 464.758C437.941 465.421 437.727 465.953 437.428 466.354C437.129 466.755 436.714 466.956 436.182 466.956C435.939 466.956 435.664 466.914 435.356 466.83L435.44 465.696C435.561 465.724 435.673 465.738 435.776 465.738C436.149 465.738 436.429 465.575 436.616 465.248C436.803 464.921 436.924 464.534 436.98 464.086C437.036 463.638 437.087 462.999 437.134 462.168L437.26 459.424H442.958ZM448.735 466.928C447.998 466.928 447.335 466.765 446.747 466.438C446.159 466.111 445.697 465.663 445.361 465.094C445.034 464.515 444.871 463.862 444.871 463.134C444.871 462.406 445.034 461.757 445.361 461.188C445.697 460.609 446.159 460.161 446.747 459.844C447.335 459.517 447.998 459.354 448.735 459.354C449.472 459.354 450.13 459.517 450.709 459.844C451.297 460.161 451.754 460.609 452.081 461.188C452.417 461.757 452.585 462.406 452.585 463.134C452.585 463.862 452.417 464.515 452.081 465.094C451.754 465.663 451.297 466.111 450.709 466.438C450.13 466.765 449.472 466.928 448.735 466.928ZM448.735 465.752C449.211 465.752 449.636 465.645 450.009 465.43C450.392 465.206 450.69 464.898 450.905 464.506C451.12 464.105 451.227 463.647 451.227 463.134C451.227 462.621 451.12 462.168 450.905 461.776C450.69 461.375 450.392 461.067 450.009 460.852C449.636 460.637 449.211 460.53 448.735 460.53C448.259 460.53 447.83 460.637 447.447 460.852C447.074 461.067 446.775 461.375 446.551 461.776C446.336 462.168 446.229 462.621 446.229 463.134C446.229 463.647 446.336 464.105 446.551 464.506C446.775 464.898 447.074 465.206 447.447 465.43C447.83 465.645 448.259 465.752 448.735 465.752ZM459.58 462.994C460.541 463.237 461.022 463.839 461.022 464.8C461.022 465.453 460.774 465.957 460.28 466.312C459.794 466.667 459.066 466.844 458.096 466.844H454.526V459.424H457.97C458.847 459.424 459.533 459.592 460.028 459.928C460.522 460.255 460.77 460.721 460.77 461.328C460.77 461.72 460.662 462.061 460.448 462.35C460.242 462.63 459.953 462.845 459.58 462.994ZM455.842 462.616H457.858C458.371 462.616 458.758 462.523 459.02 462.336C459.29 462.149 459.426 461.879 459.426 461.524C459.426 460.815 458.903 460.46 457.858 460.46H455.842V462.616ZM457.998 465.808C458.558 465.808 458.978 465.719 459.258 465.542C459.538 465.365 459.678 465.089 459.678 464.716C459.678 464.333 459.547 464.049 459.286 463.862C459.034 463.675 458.632 463.582 458.082 463.582H455.842V465.808H457.998ZM465.771 459.354C466.798 459.354 467.582 459.606 468.123 460.11C468.674 460.614 468.949 461.365 468.949 462.364V466.844H467.675V465.864C467.451 466.209 467.129 466.475 466.709 466.662C466.299 466.839 465.809 466.928 465.239 466.928C464.409 466.928 463.741 466.727 463.237 466.326C462.743 465.925 462.495 465.397 462.495 464.744C462.495 464.091 462.733 463.568 463.209 463.176C463.685 462.775 464.441 462.574 465.477 462.574H467.605V462.308C467.605 461.729 467.437 461.286 467.101 460.978C466.765 460.67 466.271 460.516 465.617 460.516C465.179 460.516 464.749 460.591 464.329 460.74C463.909 460.88 463.555 461.071 463.265 461.314L462.705 460.306C463.088 459.998 463.545 459.765 464.077 459.606C464.609 459.438 465.174 459.354 465.771 459.354ZM465.463 465.892C465.977 465.892 466.42 465.78 466.793 465.556C467.167 465.323 467.437 464.996 467.605 464.576V463.54H465.533C464.395 463.54 463.825 463.923 463.825 464.688C463.825 465.061 463.97 465.355 464.259 465.57C464.549 465.785 464.95 465.892 465.463 465.892ZM479.923 459.424V466.844H478.705V461.426L475.933 466.004H475.345L472.601 461.412V466.844H471.369V459.424H472.755L475.667 464.436L478.663 459.424H479.923Z" fill="#ECE7F2"/>
<path d="M410 358.844C426.016 358.844 439 345.86 439 329.844C439 313.827 426.016 300.844 410 300.844C393.984 300.844 381 313.827 381 329.844C381 345.86 393.984 358.844 410 358.844Z" fill="#1C0C31" stroke="#00CCCC" stroke-width="2"/>
<path d="M411.32 329.544C412.547 329.744 413.487 330.204 414.14 330.924C414.793 331.631 415.12 332.511 415.12 333.564C415.12 334.377 414.907 335.131 414.48 335.824C414.053 336.504 413.4 337.051 412.52 337.464C411.653 337.877 410.587 338.084 409.32 338.084C408.333 338.084 407.36 337.957 406.4 337.704C405.453 337.437 404.647 337.064 403.98 336.584L405.24 334.104C405.773 334.504 406.387 334.817 407.08 335.044C407.787 335.257 408.507 335.364 409.24 335.364C410.053 335.364 410.693 335.211 411.16 334.904C411.627 334.584 411.86 334.137 411.86 333.564C411.86 332.417 410.987 331.844 409.24 331.844H407.76V329.704L410.64 326.444H404.68V323.844H414.48V325.944L411.32 329.544Z" fill="#00CCCC"/>
<path d="M432.5 362.844C439.404 362.844 445 357.247 445 350.344C445 343.44 439.404 337.844 432.5 337.844C425.596 337.844 420 343.44 420 350.344C420 357.247 425.596 362.844 432.5 362.844Z" fill="#ECE7F2"/>
<path d="M400 129.844C400 59.1513 342.692 1.84375 272 1.84375C201.308 1.84375 144 59.1513 144 129.844C144 200.536 201.308 257.844 272 257.844C342.692 257.844 400 200.536 400 129.844Z" fill="#1B0B2F" stroke="white" stroke-opacity="0.14" stroke-width="2" stroke-dasharray="4 4"/>
<path d="M269 94.8438C285.016 94.8438 298 81.86 298 65.8438C298 49.8275 285.016 36.8438 269 36.8438C252.984 36.8438 240 49.8275 240 65.8438C240 81.86 252.984 94.8438 269 94.8438Z" fill="#1C0C31" stroke="#00CCCC" stroke-width="2"/>
<path d="M274.24 71.2038V73.8438H263.66V71.7438L269.06 66.6438C269.633 66.0971 270.02 65.6305 270.22 65.2438C270.42 64.8438 270.52 64.4505 270.52 64.0638C270.52 63.5038 270.327 63.0771 269.94 62.7838C269.567 62.4771 269.013 62.3238 268.28 62.3238C267.667 62.3238 267.113 62.4438 266.62 62.6838C266.127 62.9105 265.713 63.2571 265.38 63.7238L263.02 62.2038C263.567 61.3905 264.32 60.7571 265.28 60.3038C266.24 59.8371 267.34 59.6038 268.58 59.6038C269.62 59.6038 270.527 59.7771 271.3 60.1238C272.087 60.4571 272.693 60.9371 273.12 61.5638C273.56 62.1771 273.78 62.9038 273.78 63.7438C273.78 64.5038 273.62 65.2171 273.3 65.8838C272.98 66.5505 272.36 67.3105 271.44 68.1638L268.22 71.2038H274.24Z" fill="#00CCCC"/>
<path d="M291.5 98.8438C298.404 98.8438 304 93.2473 304 86.3438C304 79.4402 298.404 73.8438 291.5 73.8438C284.596 73.8438 279 79.4402 279 86.3438C279 93.2473 284.596 98.8438 291.5 98.8438Z" fill="#ECE7F2"/>
<path d="M171.971 148V135.4H172.277L178.271 145.876H178.109L184.085 135.4H184.391V148H184.031V135.922H184.175L178.289 146.218H178.073L172.169 135.922H172.331V148H171.971ZM197.709 148V138.694H198.069V148H197.709ZM192.309 142.222C193.449 142.234 194.313 142.48 194.901 142.96C195.501 143.44 195.801 144.148 195.801 145.084C195.801 146.056 195.489 146.794 194.865 147.298C194.253 147.802 193.347 148.048 192.147 148.036L188.961 148V138.694H189.321V142.186L192.309 142.222ZM192.183 147.712C193.263 147.724 194.073 147.508 194.613 147.064C195.165 146.62 195.441 145.966 195.441 145.102C195.441 144.25 195.171 143.614 194.631 143.194C194.091 142.774 193.275 142.558 192.183 142.546L189.321 142.51V147.676L192.183 147.712ZM208.819 148.054C208.207 148.054 207.583 147.952 206.947 147.748C206.311 147.532 205.753 147.19 205.273 146.722L205.507 146.488C205.951 146.932 206.479 147.256 207.091 147.46C207.703 147.652 208.309 147.742 208.909 147.73C209.557 147.718 210.127 147.61 210.619 147.406C211.123 147.19 211.513 146.902 211.789 146.542C212.077 146.182 212.221 145.786 212.221 145.354C212.221 144.718 211.927 144.22 211.339 143.86C210.763 143.5 209.989 143.32 209.017 143.32H207.649V142.978H209.035C209.575 142.978 210.067 142.906 210.511 142.762C210.955 142.606 211.303 142.384 211.555 142.096C211.819 141.796 211.951 141.442 211.951 141.034C211.951 140.578 211.801 140.2 211.501 139.9C211.201 139.588 210.805 139.354 210.313 139.198C209.833 139.042 209.311 138.97 208.747 138.982C208.279 138.994 207.799 139.072 207.307 139.216C206.815 139.348 206.341 139.552 205.885 139.828L205.723 139.522C206.215 139.222 206.725 139 207.253 138.856C207.781 138.712 208.315 138.64 208.855 138.64C209.467 138.64 210.037 138.73 210.565 138.91C211.093 139.09 211.513 139.36 211.825 139.72C212.149 140.068 212.311 140.494 212.311 140.998C212.311 141.466 212.167 141.868 211.879 142.204C211.591 142.54 211.207 142.798 210.727 142.978C210.247 143.158 209.713 143.248 209.125 143.248L209.179 143.05C210.271 143.05 211.111 143.26 211.699 143.68C212.287 144.1 212.581 144.658 212.581 145.354C212.581 145.918 212.401 146.404 212.041 146.812C211.693 147.208 211.231 147.514 210.655 147.73C210.091 147.946 209.479 148.054 208.819 148.054ZM221.935 148V145.786V145.48V141.916C221.935 140.944 221.683 140.212 221.179 139.72C220.675 139.228 219.943 138.982 218.983 138.982C218.287 138.982 217.651 139.102 217.075 139.342C216.499 139.582 216.007 139.894 215.599 140.278L215.347 140.026C215.791 139.606 216.331 139.27 216.967 139.018C217.603 138.766 218.269 138.64 218.965 138.64C220.045 138.64 220.867 138.916 221.431 139.468C222.007 140.02 222.295 140.83 222.295 141.898V148H221.935ZM218.389 148.054C217.693 148.054 217.099 147.946 216.607 147.73C216.115 147.514 215.737 147.208 215.473 146.812C215.221 146.416 215.095 145.96 215.095 145.444C215.095 145 215.197 144.592 215.401 144.22C215.617 143.836 215.965 143.53 216.445 143.302C216.925 143.062 217.579 142.942 218.407 142.942H222.133V143.284H218.389C217.333 143.284 216.577 143.488 216.121 143.896C215.677 144.292 215.455 144.802 215.455 145.426C215.455 146.122 215.713 146.68 216.229 147.1C216.745 147.508 217.465 147.712 218.389 147.712C219.289 147.712 220.027 147.508 220.603 147.1C221.191 146.68 221.635 146.092 221.935 145.336L222.115 145.57C221.863 146.314 221.419 146.914 220.783 147.37C220.159 147.826 219.361 148.054 218.389 148.054ZM233.245 148L228.979 143.266L229.303 143.122L233.677 148H233.245ZM226.279 148V138.694H226.639V148H226.279ZM226.513 143.428V143.104H229.339V143.428H226.513ZM229.303 143.374L228.979 143.266L232.957 138.694H233.389L229.303 143.374ZM241.869 148V145.786V145.48V141.916C241.869 140.944 241.617 140.212 241.113 139.72C240.609 139.228 239.877 138.982 238.917 138.982C238.221 138.982 237.585 139.102 237.009 139.342C236.433 139.582 235.941 139.894 235.533 140.278L235.281 140.026C235.725 139.606 236.265 139.27 236.901 139.018C237.537 138.766 238.203 138.64 238.899 138.64C239.979 138.64 240.801 138.916 241.365 139.468C241.941 140.02 242.229 140.83 242.229 141.898V148H241.869ZM238.323 148.054C237.627 148.054 237.033 147.946 236.541 147.73C236.049 147.514 235.671 147.208 235.407 146.812C235.155 146.416 235.029 145.96 235.029 145.444C235.029 145 235.131 144.592 235.335 144.22C235.551 143.836 235.899 143.53 236.379 143.302C236.859 143.062 237.513 142.942 238.341 142.942H242.067V143.284H238.323C237.267 143.284 236.511 143.488 236.055 143.896C235.611 144.292 235.389 144.802 235.389 145.426C235.389 146.122 235.647 146.68 236.163 147.1C236.679 147.508 237.399 147.712 238.323 147.712C239.223 147.712 239.961 147.508 240.537 147.1C241.125 146.68 241.569 146.092 241.869 145.336L242.049 145.57C241.797 146.314 241.353 146.914 240.717 147.37C240.093 147.826 239.295 148.054 238.323 148.054ZM247.983 148.054C247.371 148.054 246.747 147.952 246.111 147.748C245.475 147.532 244.917 147.19 244.437 146.722L244.671 146.488C245.115 146.932 245.643 147.256 246.255 147.46C246.867 147.652 247.473 147.742 248.073 147.73C248.721 147.718 249.291 147.61 249.783 147.406C250.287 147.19 250.677 146.902 250.953 146.542C251.241 146.182 251.385 145.786 251.385 145.354C251.385 144.718 251.091 144.22 250.503 143.86C249.927 143.5 249.153 143.32 248.181 143.32H246.813V142.978H248.199C248.739 142.978 249.231 142.906 249.675 142.762C250.119 142.606 250.467 142.384 250.719 142.096C250.983 141.796 251.115 141.442 251.115 141.034C251.115 140.578 250.965 140.2 250.665 139.9C250.365 139.588 249.969 139.354 249.477 139.198C248.997 139.042 248.475 138.97 247.911 138.982C247.443 138.994 246.963 139.072 246.471 139.216C245.979 139.348 245.505 139.552 245.049 139.828L244.887 139.522C245.379 139.222 245.889 139 246.417 138.856C246.945 138.712 247.479 138.64 248.019 138.64C248.631 138.64 249.201 138.73 249.729 138.91C250.257 139.09 250.677 139.36 250.989 139.72C251.313 140.068 251.475 140.494 251.475 140.998C251.475 141.466 251.331 141.868 251.043 142.204C250.755 142.54 250.371 142.798 249.891 142.978C249.411 143.158 248.877 143.248 248.289 143.248L248.343 143.05C249.435 143.05 250.275 143.26 250.863 143.68C251.451 144.1 251.745 144.658 251.745 145.354C251.745 145.918 251.565 146.404 251.205 146.812C250.857 147.208 250.395 147.514 249.819 147.73C249.255 147.946 248.643 148.054 247.983 148.054ZM263.943 148V138.694H264.303V148H263.943ZM258.543 142.222C259.683 142.234 260.547 142.48 261.135 142.96C261.735 143.44 262.035 144.148 262.035 145.084C262.035 146.056 261.723 146.794 261.099 147.298C260.487 147.802 259.581 148.048 258.381 148.036L255.195 148V138.694H255.555V142.186L258.543 142.222ZM258.417 147.712C259.497 147.724 260.307 147.508 260.847 147.064C261.399 146.62 261.675 145.966 261.675 145.102C261.675 144.25 261.405 143.614 260.865 143.194C260.325 142.774 259.509 142.558 258.417 142.546L255.555 142.51V147.676L258.417 147.712ZM268.519 148V138.694H272.173C273.157 138.694 273.931 138.892 274.495 139.288C275.071 139.684 275.359 140.272 275.359 141.052C275.359 141.82 275.077 142.396 274.513 142.78C273.961 143.152 273.241 143.338 272.353 143.338L272.587 143.176C273.679 143.176 274.471 143.38 274.963 143.788C275.455 144.184 275.701 144.772 275.701 145.552C275.701 146.344 275.419 146.95 274.855 147.37C274.291 147.79 273.421 148 272.245 148H268.519ZM268.879 147.658H272.299C273.295 147.658 274.051 147.49 274.567 147.154C275.083 146.818 275.341 146.284 275.341 145.552C275.341 144.82 275.113 144.286 274.657 143.95C274.201 143.614 273.475 143.446 272.479 143.446H268.879V147.658ZM268.879 143.104H272.191C273.079 143.104 273.769 142.936 274.261 142.6C274.753 142.252 274.999 141.742 274.999 141.07C274.999 140.398 274.753 139.894 274.261 139.558C273.769 139.21 273.079 139.036 272.191 139.036H268.879V143.104ZM285.111 148V145.786V145.48V141.916C285.111 140.944 284.859 140.212 284.355 139.72C283.851 139.228 283.119 138.982 282.159 138.982C281.463 138.982 280.827 139.102 280.251 139.342C279.675 139.582 279.183 139.894 278.775 140.278L278.523 140.026C278.967 139.606 279.507 139.27 280.143 139.018C280.779 138.766 281.445 138.64 282.141 138.64C283.221 138.64 284.043 138.916 284.607 139.468C285.183 140.02 285.471 140.83 285.471 141.898V148H285.111ZM281.565 148.054C280.869 148.054 280.275 147.946 279.783 147.73C279.291 147.514 278.913 147.208 278.649 146.812C278.397 146.416 278.271 145.96 278.271 145.444C278.271 145 278.373 144.592 278.577 144.22C278.793 143.836 279.141 143.53 279.621 143.302C280.101 143.062 280.755 142.942 281.583 142.942H285.309V143.284H281.565C280.509 143.284 279.753 143.488 279.297 143.896C278.853 144.292 278.631 144.802 278.631 145.426C278.631 146.122 278.889 146.68 279.405 147.1C279.921 147.508 280.641 147.712 281.565 147.712C282.465 147.712 283.203 147.508 283.779 147.1C284.367 146.68 284.811 146.092 285.111 145.336L285.291 145.57C285.039 146.314 284.595 146.914 283.959 147.37C283.335 147.826 282.537 148.054 281.565 148.054ZM293.127 148.054C292.227 148.054 291.429 147.856 290.733 147.46C290.037 147.052 289.485 146.494 289.077 145.786C288.681 145.066 288.483 144.25 288.483 143.338C288.483 142.414 288.669 141.604 289.041 140.908C289.413 140.2 289.923 139.648 290.571 139.252C291.231 138.844 291.969 138.64 292.785 138.64C293.601 138.64 294.333 138.838 294.981 139.234C295.641 139.618 296.157 140.158 296.529 140.854C296.913 141.55 297.105 142.348 297.105 143.248C297.105 143.26 297.105 143.272 297.105 143.284C297.105 143.296 297.105 143.314 297.105 143.338H288.681V142.996H296.907L296.763 143.266C296.763 142.45 296.589 141.718 296.241 141.07C295.893 140.422 295.419 139.912 294.819 139.54C294.231 139.168 293.553 138.982 292.785 138.982C292.029 138.982 291.351 139.168 290.751 139.54C290.151 139.912 289.677 140.422 289.329 141.07C288.993 141.718 288.825 142.45 288.825 143.266V143.338C288.825 144.19 289.011 144.946 289.383 145.606C289.755 146.266 290.265 146.782 290.913 147.154C291.561 147.526 292.299 147.712 293.127 147.712C293.751 147.712 294.339 147.592 294.891 147.352C295.455 147.112 295.923 146.752 296.295 146.272L296.547 146.524C296.139 147.028 295.635 147.412 295.035 147.676C294.435 147.928 293.799 148.054 293.127 148.054ZM300.195 148V138.694H300.501L305.163 146.38H305.001L309.627 138.694H309.933V148H309.591V139.216H309.699L305.163 146.704H304.965L300.411 139.216H300.555V148H300.195ZM318.652 148V138.694H322.306C323.29 138.694 324.064 138.892 324.628 139.288C325.204 139.684 325.492 140.272 325.492 141.052C325.492 141.82 325.21 142.396 324.646 142.78C324.094 143.152 323.374 143.338 322.486 143.338L322.72 143.176C323.812 143.176 324.604 143.38 325.096 143.788C325.588 144.184 325.834 144.772 325.834 145.552C325.834 146.344 325.552 146.95 324.988 147.37C324.424 147.79 323.554 148 322.378 148H318.652ZM319.012 147.658H322.432C323.428 147.658 324.184 147.49 324.7 147.154C325.216 146.818 325.474 146.284 325.474 145.552C325.474 144.82 325.246 144.286 324.79 143.95C324.334 143.614 323.608 143.446 322.612 143.446H319.012V147.658ZM319.012 143.104H322.324C323.212 143.104 323.902 142.936 324.394 142.6C324.886 142.252 325.132 141.742 325.132 141.07C325.132 140.398 324.886 139.894 324.394 139.558C323.902 139.21 323.212 139.036 322.324 139.036H319.012V143.104ZM335.244 148V145.786V145.48V141.916C335.244 140.944 334.992 140.212 334.488 139.72C333.984 139.228 333.252 138.982 332.292 138.982C331.596 138.982 330.96 139.102 330.384 139.342C329.808 139.582 329.316 139.894 328.908 140.278L328.656 140.026C329.1 139.606 329.64 139.27 330.276 139.018C330.912 138.766 331.578 138.64 332.274 138.64C333.354 138.64 334.176 138.916 334.74 139.468C335.316 140.02 335.604 140.83 335.604 141.898V148H335.244ZM331.698 148.054C331.002 148.054 330.408 147.946 329.916 147.73C329.424 147.514 329.046 147.208 328.782 146.812C328.53 146.416 328.404 145.96 328.404 145.444C328.404 145 328.506 144.592 328.71 144.22C328.926 143.836 329.274 143.53 329.754 143.302C330.234 143.062 330.888 142.942 331.716 142.942H335.442V143.284H331.698C330.642 143.284 329.886 143.488 329.43 143.896C328.986 144.292 328.764 144.802 328.764 145.426C328.764 146.122 329.022 146.68 329.538 147.1C330.054 147.508 330.774 147.712 331.698 147.712C332.598 147.712 333.336 147.508 333.912 147.1C334.5 146.68 334.944 146.092 335.244 145.336L335.424 145.57C335.172 146.314 334.728 146.914 334.092 147.37C333.468 147.826 332.67 148.054 331.698 148.054ZM345.546 147.676L345.438 147.82V138.694H345.798V147.82L345.654 147.676H351.414L351.27 147.82V138.694H351.63V148H339.588V138.694H339.948V147.82L339.804 147.676H345.546ZM181.967 176V166.892L182.111 167.036H178.187V166.694H186.107V167.036H182.183L182.327 166.892V176H181.967ZM191.206 176.054C190.342 176.054 189.568 175.856 188.884 175.46C188.212 175.052 187.678 174.494 187.282 173.786C186.886 173.066 186.688 172.25 186.688 171.338C186.688 170.414 186.886 169.604 187.282 168.908C187.678 168.2 188.212 167.648 188.884 167.252C189.568 166.844 190.342 166.64 191.206 166.64C192.07 166.64 192.844 166.844 193.528 167.252C194.212 167.648 194.746 168.2 195.13 168.908C195.526 169.604 195.724 170.414 195.724 171.338C195.724 172.25 195.526 173.066 195.13 173.786C194.746 174.494 194.212 175.052 193.528 175.46C192.844 175.856 192.07 176.054 191.206 176.054ZM191.206 175.712C191.998 175.712 192.706 175.526 193.33 175.154C193.966 174.782 194.464 174.266 194.824 173.606C195.184 172.946 195.364 172.19 195.364 171.338C195.364 170.474 195.184 169.718 194.824 169.07C194.464 168.41 193.966 167.9 193.33 167.54C192.706 167.168 191.998 166.982 191.206 166.982C190.414 166.982 189.706 167.168 189.082 167.54C188.458 167.9 187.96 168.41 187.588 169.07C187.228 169.718 187.048 170.474 187.048 171.338C187.048 172.19 187.228 172.946 187.588 173.606C187.96 174.266 188.458 174.782 189.082 175.154C189.706 175.526 190.414 175.712 191.206 175.712ZM198.963 176V166.694H202.617C203.601 166.694 204.375 166.892 204.939 167.288C205.515 167.684 205.803 168.272 205.803 169.052C205.803 169.82 205.521 170.396 204.957 170.78C204.405 171.152 203.685 171.338 202.797 171.338L203.031 171.176C204.123 171.176 204.915 171.38 205.407 171.788C205.899 172.184 206.145 172.772 206.145 173.552C206.145 174.344 205.863 174.95 205.299 175.37C204.735 175.79 203.865 176 202.689 176H198.963ZM199.323 175.658H202.743C203.739 175.658 204.495 175.49 205.011 175.154C205.527 174.818 205.785 174.284 205.785 173.552C205.785 172.82 205.557 172.286 205.101 171.95C204.645 171.614 203.919 171.446 202.923 171.446H199.323V175.658ZM199.323 171.104H202.635C203.523 171.104 204.213 170.936 204.705 170.6C205.197 170.252 205.443 169.742 205.443 169.07C205.443 168.398 205.197 167.894 204.705 167.558C204.213 167.21 203.523 167.036 202.635 167.036H199.323V171.104ZM215.554 176V173.786V173.48V169.916C215.554 168.944 215.302 168.212 214.798 167.72C214.294 167.228 213.562 166.982 212.602 166.982C211.906 166.982 211.27 167.102 210.694 167.342C210.118 167.582 209.626 167.894 209.218 168.278L208.966 168.026C209.41 167.606 209.95 167.27 210.586 167.018C211.222 166.766 211.888 166.64 212.584 166.64C213.664 166.64 214.486 166.916 215.05 167.468C215.626 168.02 215.914 168.83 215.914 169.898V176H215.554ZM212.008 176.054C211.312 176.054 210.718 175.946 210.226 175.73C209.734 175.514 209.356 175.208 209.092 174.812C208.84 174.416 208.714 173.96 208.714 173.444C208.714 173 208.816 172.592 209.02 172.22C209.236 171.836 209.584 171.53 210.064 171.302C210.544 171.062 211.198 170.942 212.026 170.942H215.752V171.284H212.008C210.952 171.284 210.196 171.488 209.74 171.896C209.296 172.292 209.074 172.802 209.074 173.426C209.074 174.122 209.332 174.68 209.848 175.1C210.364 175.508 211.084 175.712 212.008 175.712C212.908 175.712 213.646 175.508 214.222 175.1C214.81 174.68 215.254 174.092 215.554 173.336L215.734 173.57C215.482 174.314 215.038 174.914 214.402 175.37C213.778 175.826 212.98 176.054 212.008 176.054ZM224.434 176.054C223.582 176.054 222.82 175.856 222.148 175.46C221.476 175.052 220.942 174.494 220.546 173.786C220.162 173.078 219.97 172.268 219.97 171.356C219.97 170.432 220.162 169.616 220.546 168.908C220.942 168.2 221.476 167.648 222.148 167.252C222.82 166.844 223.582 166.64 224.434 166.64C225.286 166.64 226.054 166.844 226.738 167.252C227.422 167.648 227.962 168.2 228.358 168.908C228.754 169.616 228.952 170.432 228.952 171.356C228.952 172.268 228.754 173.078 228.358 173.786C227.962 174.494 227.422 175.052 226.738 175.46C226.054 175.856 225.286 176.054 224.434 176.054ZM219.916 179.492V166.694H220.276V170.114L220.096 171.374L220.276 172.634V179.492H219.916ZM224.434 175.712C225.226 175.712 225.934 175.532 226.558 175.172C227.194 174.8 227.692 174.284 228.052 173.624C228.412 172.964 228.592 172.208 228.592 171.356C228.592 170.492 228.412 169.736 228.052 169.088C227.692 168.428 227.194 167.912 226.558 167.54C225.934 167.168 225.226 166.982 224.434 166.982C223.642 166.982 222.928 167.168 222.292 167.54C221.668 167.912 221.176 168.428 220.816 169.088C220.456 169.736 220.276 170.492 220.276 171.356C220.276 172.208 220.456 172.964 220.816 173.624C221.176 174.284 221.668 174.8 222.292 175.172C222.928 175.532 223.642 175.712 224.434 175.712ZM236.668 176V166.694H240.322C241.306 166.694 242.08 166.892 242.644 167.288C243.22 167.684 243.508 168.272 243.508 169.052C243.508 169.82 243.226 170.396 242.662 170.78C242.11 171.152 241.39 171.338 240.502 171.338L240.736 171.176C241.828 171.176 242.62 171.38 243.112 171.788C243.604 172.184 243.85 172.772 243.85 173.552C243.85 174.344 243.568 174.95 243.004 175.37C242.44 175.79 241.57 176 240.394 176H236.668ZM237.028 175.658H240.448C241.444 175.658 242.2 175.49 242.716 175.154C243.232 174.818 243.49 174.284 243.49 173.552C243.49 172.82 243.262 172.286 242.806 171.95C242.35 171.614 241.624 171.446 240.628 171.446H237.028V175.658ZM237.028 171.104H240.34C241.228 171.104 241.918 170.936 242.41 170.6C242.902 170.252 243.148 169.742 243.148 169.07C243.148 168.398 242.902 167.894 242.41 167.558C241.918 167.21 241.228 167.036 240.34 167.036H237.028V171.104ZM253.169 176V163.598L253.331 163.742H249.929V163.4H253.511V176H253.169ZM261.77 176.054C260.822 176.054 259.982 175.796 259.25 175.28C258.53 174.752 257.966 174.014 257.558 173.066C257.162 172.106 256.964 170.984 256.964 169.7C256.964 168.416 257.162 167.3 257.558 166.352C257.966 165.392 258.53 164.654 259.25 164.138C259.982 163.61 260.822 163.346 261.77 163.346C262.73 163.346 263.57 163.61 264.29 164.138C265.01 164.654 265.568 165.392 265.964 166.352C266.372 167.3 266.576 168.416 266.576 169.7C266.576 170.984 266.372 172.106 265.964 173.066C265.568 174.014 265.01 174.752 264.29 175.28C263.57 175.796 262.73 176.054 261.77 176.054ZM261.77 175.712C262.658 175.712 263.432 175.466 264.092 174.974C264.764 174.482 265.286 173.786 265.658 172.886C266.03 171.986 266.216 170.924 266.216 169.7C266.216 168.464 266.03 167.402 265.658 166.514C265.286 165.614 264.764 164.918 264.092 164.426C263.432 163.934 262.658 163.688 261.77 163.688C260.894 163.688 260.12 163.934 259.448 164.426C258.776 164.918 258.254 165.614 257.882 166.514C257.51 167.402 257.324 168.464 257.324 169.7C257.324 170.924 257.51 171.986 257.882 172.886C258.254 173.786 258.776 174.482 259.448 174.974C260.12 175.466 260.894 175.712 261.77 175.712ZM274.25 176V166.694H280.298V167.036H274.466L274.61 166.892V176H274.25ZM285.407 176.054C284.543 176.054 283.769 175.856 283.085 175.46C282.413 175.052 281.879 174.494 281.483 173.786C281.087 173.066 280.889 172.25 280.889 171.338C280.889 170.414 281.087 169.604 281.483 168.908C281.879 168.2 282.413 167.648 283.085 167.252C283.769 166.844 284.543 166.64 285.407 166.64C286.271 166.64 287.045 166.844 287.729 167.252C288.413 167.648 288.947 168.2 289.331 168.908C289.727 169.604 289.925 170.414 289.925 171.338C289.925 172.25 289.727 173.066 289.331 173.786C288.947 174.494 288.413 175.052 287.729 175.46C287.045 175.856 286.271 176.054 285.407 176.054ZM285.407 175.712C286.199 175.712 286.907 175.526 287.531 175.154C288.167 174.782 288.665 174.266 289.025 173.606C289.385 172.946 289.565 172.19 289.565 171.338C289.565 170.474 289.385 169.718 289.025 169.07C288.665 168.41 288.167 167.9 287.531 167.54C286.907 167.168 286.199 166.982 285.407 166.982C284.615 166.982 283.907 167.168 283.283 167.54C282.659 167.9 282.161 168.41 281.789 169.07C281.429 169.718 281.249 170.474 281.249 171.338C281.249 172.19 281.429 172.946 281.789 173.606C282.161 174.266 282.659 174.782 283.283 175.154C283.907 175.526 284.615 175.712 285.407 175.712ZM297.7 176.054C296.848 176.054 296.086 175.856 295.414 175.46C294.742 175.052 294.208 174.494 293.812 173.786C293.428 173.078 293.236 172.268 293.236 171.356C293.236 170.432 293.428 169.616 293.812 168.908C294.208 168.2 294.742 167.648 295.414 167.252C296.086 166.844 296.848 166.64 297.7 166.64C298.552 166.64 299.32 166.844 300.004 167.252C300.688 167.648 301.228 168.2 301.624 168.908C302.02 169.616 302.218 170.432 302.218 171.356C302.218 172.268 302.02 173.078 301.624 173.786C301.228 174.494 300.688 175.052 300.004 175.46C299.32 175.856 298.552 176.054 297.7 176.054ZM293.182 179.492V166.694H293.542V170.114L293.362 171.374L293.542 172.634V179.492H293.182ZM297.7 175.712C298.492 175.712 299.2 175.532 299.824 175.172C300.46 174.8 300.958 174.284 301.318 173.624C301.678 172.964 301.858 172.208 301.858 171.356C301.858 170.492 301.678 169.736 301.318 169.088C300.958 168.428 300.46 167.912 299.824 167.54C299.2 167.168 298.492 166.982 297.7 166.982C296.908 166.982 296.194 167.168 295.558 167.54C294.934 167.912 294.442 168.428 294.082 169.088C293.722 169.736 293.542 170.492 293.542 171.356C293.542 172.208 293.722 172.964 294.082 173.624C294.442 174.284 294.934 174.8 295.558 175.172C296.194 175.532 296.908 175.712 297.7 175.712ZM308.962 176.054C308.098 176.054 307.324 175.856 306.64 175.46C305.968 175.052 305.434 174.494 305.038 173.786C304.642 173.066 304.444 172.25 304.444 171.338C304.444 170.414 304.642 169.604 305.038 168.908C305.434 168.2 305.968 167.648 306.64 167.252C307.324 166.844 308.098 166.64 308.962 166.64C309.826 166.64 310.6 166.844 311.284 167.252C311.968 167.648 312.502 168.2 312.886 168.908C313.282 169.604 313.48 170.414 313.48 171.338C313.48 172.25 313.282 173.066 312.886 173.786C312.502 174.494 311.968 175.052 311.284 175.46C310.6 175.856 309.826 176.054 308.962 176.054ZM308.962 175.712C309.754 175.712 310.462 175.526 311.086 175.154C311.722 174.782 312.22 174.266 312.58 173.606C312.94 172.946 313.12 172.19 313.12 171.338C313.12 170.474 312.94 169.718 312.58 169.07C312.22 168.41 311.722 167.9 311.086 167.54C310.462 167.168 309.754 166.982 308.962 166.982C308.17 166.982 307.462 167.168 306.838 167.54C306.214 167.9 305.716 168.41 305.344 169.07C304.984 169.718 304.804 170.474 304.804 171.338C304.804 172.19 304.984 172.946 305.344 173.606C305.716 174.266 306.214 174.782 306.838 175.154C307.462 175.526 308.17 175.712 308.962 175.712ZM323.109 175.82V167.036H317.727L317.601 169.718C317.565 170.426 317.511 171.14 317.439 171.86C317.379 172.568 317.277 173.222 317.133 173.822C317.001 174.41 316.809 174.884 316.557 175.244C316.317 175.604 316.005 175.796 315.621 175.82L315.243 175.676C315.639 175.7 315.963 175.55 316.215 175.226C316.467 174.89 316.659 174.434 316.791 173.858C316.923 173.282 317.019 172.634 317.079 171.914C317.151 171.194 317.205 170.462 317.241 169.718L317.385 166.694H323.469V175.82H323.109ZM314.811 178.412V175.676H325.017V178.412H324.657V176H315.171V178.412H314.811ZM333.838 176V173.786V173.48V169.916C333.838 168.944 333.586 168.212 333.082 167.72C332.578 167.228 331.846 166.982 330.886 166.982C330.19 166.982 329.554 167.102 328.978 167.342C328.402 167.582 327.91 167.894 327.502 168.278L327.25 168.026C327.694 167.606 328.234 167.27 328.87 167.018C329.506 166.766 330.172 166.64 330.868 166.64C331.948 166.64 332.77 166.916 333.334 167.468C333.91 168.02 334.198 168.83 334.198 169.898V176H333.838ZM330.292 176.054C329.596 176.054 329.002 175.946 328.51 175.73C328.018 175.514 327.64 175.208 327.376 174.812C327.124 174.416 326.998 173.96 326.998 173.444C326.998 173 327.1 172.592 327.304 172.22C327.52 171.836 327.868 171.53 328.348 171.302C328.828 171.062 329.482 170.942 330.31 170.942H334.036V171.284H330.292C329.236 171.284 328.48 171.488 328.024 171.896C327.58 172.292 327.358 172.802 327.358 173.426C327.358 174.122 327.616 174.68 328.132 175.1C328.648 175.508 329.368 175.712 330.292 175.712C331.192 175.712 331.93 175.508 332.506 175.1C333.094 174.68 333.538 174.092 333.838 173.336L334.018 173.57C333.766 174.314 333.322 174.914 332.686 175.37C332.062 175.826 331.264 176.054 330.292 176.054ZM336.562 176L340.36 171.104L340.342 171.23L336.778 166.694H337.228L340.594 171.014H340.45L343.816 166.694H344.248L340.648 171.302L340.666 171.086L344.518 176H344.05L340.486 171.392H340.576L337.012 176H336.562Z" fill="white"/>
</svg>
