<svg width="105" height="30" viewBox="0 0 105 30" fill="none" xmlns="http://www.w3.org/2000/svg">
<g clip-path="url(#clip0_1_706)">
<path d="M82.4847 9.18243C82.6269 8.9391 82.9674 8.9391 83.1093 9.18243L84.2256 11.0933C84.2766 11.1803 84.3591 11.2425 84.4545 11.2658L86.5518 11.7761C86.8191 11.8411 86.9241 12.1769 86.745 12.3923L85.3374 14.0836C85.2732 14.1607 85.2417 14.2613 85.2501 14.3628L85.4301 16.589C85.4529 16.8725 85.1775 17.0801 84.9246 16.9698L82.9386 16.1043C82.848 16.0648 82.746 16.0648 82.6554 16.1043L80.6694 16.9698C80.4165 17.0801 80.1411 16.8725 80.1639 16.589L80.3442 14.3628C80.3523 14.2613 80.3208 14.1607 80.2566 14.0836L78.849 12.3923C78.6699 12.1769 78.7752 11.8411 79.0422 11.7761L81.1395 11.2658C81.2352 11.2425 81.3177 11.1803 81.3684 11.0933L82.4847 9.18243Z" fill="#00CCCC"/>
<path d="M94.5957 9.18243C94.7379 8.93907 95.0784 8.93907 95.2206 9.18243L96.3369 11.0933C96.3876 11.1803 96.4701 11.2425 96.5658 11.2657L98.6631 11.7761C98.9301 11.8411 99.0354 12.1769 98.856 12.3923L97.4487 14.0836C97.3845 14.1607 97.353 14.2613 97.3611 14.3627L97.5411 16.589C97.5642 16.8725 97.2888 17.08 97.0359 16.9698L95.0496 16.1043C94.9593 16.0648 94.8573 16.0648 94.7667 16.1043L92.7807 16.9698C92.5278 17.08 92.2524 16.8725 92.2752 16.589L92.4552 14.3627C92.4636 14.2613 92.4321 14.1607 92.3679 14.0836L90.9603 12.3923C90.7809 12.1769 90.8862 11.8411 91.1535 11.7761L93.2508 11.2657C93.3462 11.2425 93.4287 11.1803 93.4797 11.0933L94.5957 9.18243Z" fill="#00CCCC"/>
<path fill-rule="evenodd" clip-rule="evenodd" d="M63.2523 21.444C63.663 22.8072 64.8645 23.8278 66.3237 23.9726C66.4413 23.9843 66.5607 23.9903 66.6816 23.9903H66.6912C66.4269 24.2278 66.1356 24.4433 65.8173 24.637C65.7954 24.6504 65.7732 24.6636 65.751 24.6768C65.5398 24.8017 65.3172 24.9173 65.0829 25.0234C64.5672 25.2497 64.0074 25.4219 63.4035 25.5399C62.1918 24.7642 61.2729 23.5711 60.8502 22.1635H60.9957C61.0905 22.1635 61.1826 22.1614 61.2729 22.1574C61.9449 22.1273 62.4861 21.9847 62.8962 21.7296C62.9757 21.6802 63.0504 21.6265 63.12 21.5686C63.1662 21.5286 63.2103 21.4871 63.2523 21.444ZM63.1005 18.0742V14.047C62.529 13.9515 61.9197 13.9038 61.2729 13.9038H60.5937V17.473H60.9957C61.0905 17.473 61.1826 17.4751 61.2729 17.4793C61.9449 17.5106 62.4861 17.6587 62.8962 17.9236C62.9685 17.9701 63.0366 18.0204 63.1005 18.0742ZM60.5937 9.50379V6.08709C60.5937 2.72529 63.3195 0 66.6816 0H98.9121C102.274 0 105 2.72529 105 6.08709V20.4097C105 23.7715 102.274 26.4968 98.9121 26.4968H74.2026L71.0955 29.2676C69.8019 30.4212 67.9788 30.1236 67.0032 28.9913C68.2833 28.4008 69.4347 27.5905 70.3842 26.5434L73.2471 23.9903H98.9121C100.89 23.9903 102.493 22.3872 102.493 20.4097V6.08709C102.493 4.10955 100.89 2.50645 98.9121 2.50645H66.6816C64.7037 2.50645 63.1005 4.10955 63.1005 6.08709V9.6048C62.4966 9.53589 61.8861 9.50379 61.2729 9.50379H60.5937Z" fill="#00CCCC"/>
<path fill-rule="evenodd" clip-rule="evenodd" d="M72.0078 9.18243C71.8656 8.9391 71.5251 8.9391 71.3832 9.18243L70.2669 11.0933C70.2159 11.1803 70.1334 11.2425 70.038 11.2658L68.6622 11.6006C69.693 12.3105 70.5891 13.2073 71.301 14.2985C71.7243 14.9414 72.0561 15.6145 72.3045 16.3081L73.8231 16.9698C74.076 17.0801 74.3514 16.8725 74.3283 16.589L74.1483 14.3628C74.1402 14.2613 74.1717 14.1607 74.2359 14.0836L75.6435 12.3923C75.8226 12.1769 75.7173 11.8411 75.4503 11.7761L73.353 11.2658C73.2573 11.2425 73.1748 11.1803 73.1241 11.0933L72.0078 9.18243Z" fill="#00CCCC"/>
<path d="M11.384 23.582H7.48155V27.3572H3.9255V23.582H0V20.2416H3.9255V16.4664H7.48155V20.2416H11.384V23.582Z" fill="white"/>
<path d="M23.7234 25.6641H21.2295V29.9198H16.6575V13.9038H24.0467C25.5091 13.9038 26.7791 14.1479 27.8567 14.636C28.9343 15.1088 29.7656 15.7952 30.3504 16.6952C30.9354 17.5799 31.2279 18.6247 31.2279 19.8297C31.2279 20.989 30.951 22.0033 30.3966 22.8728C29.858 23.7269 29.0806 24.3981 28.0646 24.8862L31.5513 29.9198H26.656L23.7234 25.6641ZM26.6098 19.8297C26.6098 19.0823 26.3712 18.5027 25.894 18.0908C25.4168 17.679 24.7086 17.4731 23.7696 17.4731H21.2295V22.1635H23.7696C24.7086 22.1635 25.4168 21.9652 25.894 21.5686C26.3712 21.1568 26.6098 20.5771 26.6098 19.8297Z" fill="white"/>
<path d="M49.0368 26.4192V29.9198H36.0594V13.9038H48.7365V17.4044H40.5855V20.1043H47.7666V23.4905H40.5855V26.4192H49.0368Z" fill="white"/>
<path d="M61.2723 13.9038C62.7348 13.9038 64.0047 14.1479 65.0823 14.636C66.1599 15.1088 66.9912 15.7952 67.5762 16.6952C68.1612 17.5799 68.4537 18.6247 68.4537 19.8297C68.4537 21.0347 68.1612 22.0796 67.5762 22.9643C66.9912 23.849 66.1599 24.5354 65.0823 25.0235C64.0047 25.4963 62.7348 25.7328 61.2723 25.7328H58.455V29.9198H53.883V13.9038H61.2723ZM60.9951 22.1635C61.9341 22.1635 62.6424 21.9652 63.1194 21.5686C63.5967 21.1568 63.8355 20.5771 63.8355 19.8297C63.8355 19.0823 63.5967 18.5027 63.1194 18.0908C62.6424 17.679 61.9341 17.4731 60.9951 17.4731H58.455V22.1635H60.9951Z" fill="white"/>
</g>
<defs>
<clipPath id="clip0_1_706">
<rect width="105" height="30" fill="white"/>
</clipPath>
</defs>
</svg>
