<svg width="31" height="30" viewBox="0 0 31 30" fill="none" xmlns="http://www.w3.org/2000/svg">
<g clip-path="url(#clip0_1_28)">
<path d="M15.9375 30C24.2218 30 30.9375 23.2843 30.9375 15C30.9375 6.71573 24.2218 0 15.9375 0C7.65323 0 0.9375 6.71573 0.9375 15C0.9375 23.2843 7.65323 30 15.9375 30Z" fill="#0FE3E3"/>
<path fill-rule="evenodd" clip-rule="evenodd" d="M23.0084 16.3431L16.6444 22.7071C16.2539 23.0976 15.6207 23.0976 15.2302 22.7071L8.86625 16.3431C8.47573 15.9526 8.47573 15.3195 8.86625 14.9289C9.25678 14.5384 9.88994 14.5384 10.2805 14.9289L14.9373 19.5858V7H16.9373V19.5858L21.5942 14.9289C21.9847 14.5384 22.6179 14.5384 23.0084 14.9289C23.3989 15.3195 23.3989 15.9526 23.0084 16.3431Z" fill="white"/>
</g>
<defs>
<clipPath id="clip0_1_28">
<rect width="30" height="30" fill="white" transform="translate(0.9375)"/>
</clipPath>
</defs>
</svg>
