<svg width="300" height="87" viewBox="0 0 300 87" fill="none" xmlns="http://www.w3.org/2000/svg">
<g clip-path="url(#clip0_1_8)">
<path d="M235.671 26.8784C236.077 26.1831 237.05 26.1831 237.455 26.8784L240.645 32.3379C240.79 32.5867 241.026 32.7644 241.299 32.8308L247.291 34.289C248.055 34.4747 248.355 35.4341 247.843 36.0495L243.821 40.8819C243.638 41.1021 243.548 41.3895 243.572 41.6793L244.086 48.04C244.151 48.8501 243.364 49.4431 242.642 49.1281L236.967 46.6551C236.709 46.5424 236.417 46.5424 236.158 46.6551L230.484 49.1281C229.761 49.4431 228.975 48.8501 229.04 48.04L229.555 41.6793C229.578 41.3895 229.488 41.1021 229.305 40.8819L225.283 36.0495C224.771 35.4341 225.072 34.4747 225.835 34.289L231.827 32.8308C232.101 32.7644 232.336 32.5867 232.481 32.3379L235.671 26.8784Z" fill="#00CCCC"/>
<path d="M270.273 26.8784C270.68 26.1831 271.653 26.1831 272.059 26.8784L275.248 32.3379C275.393 32.5867 275.629 32.7643 275.902 32.8307L281.895 34.2889C282.657 34.4746 282.958 35.434 282.446 36.0495L278.425 40.8818C278.241 41.102 278.151 41.3894 278.175 41.6793L278.689 48.04C278.755 48.85 277.968 49.443 277.245 49.1281L271.57 46.6551C271.312 46.5423 271.021 46.5423 270.762 46.6551L265.088 49.1281C264.365 49.443 263.578 48.85 263.643 48.04L264.158 41.6793C264.182 41.3894 264.092 41.102 263.908 40.8818L259.887 36.0495C259.374 35.434 259.675 34.4746 260.439 34.2889L266.431 32.8307C266.703 32.7643 266.939 32.5867 267.085 32.3379L270.273 26.8784Z" fill="#00CCCC"/>
<path fill-rule="evenodd" clip-rule="evenodd" d="M180.721 61.9114C181.894 65.8064 185.327 68.7223 189.496 69.1361C189.832 69.1695 190.173 69.1866 190.519 69.1866H190.546C189.791 69.865 188.959 70.481 188.049 71.0344C187.987 71.0726 187.923 71.1104 187.86 71.148C187.257 71.5049 186.621 71.8351 185.951 72.1384C184.478 72.785 182.878 73.2768 181.153 73.6139C177.691 71.3977 175.065 67.9888 173.858 63.967H174.273C174.544 63.967 174.807 63.9612 175.065 63.9497C176.985 63.8637 178.532 63.4562 179.703 62.7274C179.931 62.5862 180.144 62.4327 180.343 62.2673C180.475 62.1532 180.601 62.0346 180.721 61.9114ZM180.287 52.2833V40.7773C178.654 40.5044 176.913 40.3679 175.065 40.3679H173.125V50.5659H174.273C174.544 50.5659 174.807 50.5719 175.065 50.5839C176.985 50.6732 178.532 51.0963 179.703 51.8531C179.91 51.9861 180.105 52.1296 180.287 52.2833ZM173.125 27.7965V18.0345C173.125 8.42939 180.913 0.642853 190.519 0.642853H282.606C292.212 0.642853 300 8.42939 300 18.0345V58.9562C300 68.5614 292.212 76.3479 282.606 76.3479H212.007L203.13 84.2647C199.434 87.5606 194.225 86.7103 191.438 83.4751C195.095 81.7879 198.385 79.4728 201.098 76.4811L209.277 69.1866H282.606C288.256 69.1866 292.838 64.6063 292.838 58.9562V18.0345C292.838 12.3844 288.256 7.80414 282.606 7.80414H190.519C184.868 7.80414 180.287 12.3844 180.287 18.0345V28.0851C178.562 27.8883 176.817 27.7965 175.065 27.7965H173.125Z" fill="#00CCCC"/>
<path fill-rule="evenodd" clip-rule="evenodd" d="M205.737 26.8784C205.33 26.1831 204.357 26.1831 203.952 26.8784L200.763 32.3379C200.617 32.5867 200.381 32.7644 200.109 32.8308L196.178 33.7874C199.123 35.8156 201.683 38.3781 203.717 41.4958C204.927 43.3326 205.875 45.2559 206.584 47.2374L210.923 49.1281C211.646 49.4431 212.433 48.8501 212.367 48.04L211.852 41.6793C211.829 41.3895 211.919 41.1021 212.103 40.8819L216.124 36.0495C216.636 35.4341 216.335 34.4747 215.572 34.289L209.58 32.8308C209.307 32.7644 209.071 32.5867 208.926 32.3379L205.737 26.8784Z" fill="#00CCCC"/>
<path d="M32.5257 68.0201H21.3759V78.8064H11.2157V68.0201H0V58.4759H11.2157V47.6896H21.3759V58.4759H32.5257V68.0201Z" fill="white"/>
<path d="M67.7811 73.9689H60.6557V86.128H47.5927V40.368H68.7047C72.8831 40.368 76.5118 41.0653 79.5905 42.4599C82.6694 43.8109 85.0445 45.772 86.7155 48.3433C88.3869 50.871 89.2226 53.8563 89.2226 57.2992C89.2226 60.6114 88.4315 63.5095 86.8475 65.9936C85.3084 68.4341 83.0873 70.3517 80.1844 71.7463L90.1466 86.128H76.1598L67.7811 73.9689ZM76.0279 57.2992C76.0279 55.1637 75.3461 53.5077 73.9827 52.331C72.6192 51.1543 70.5959 50.5659 67.913 50.5659H60.6557V63.9671H67.913C70.5959 63.9671 72.6192 63.4005 73.9827 62.2674C75.3461 61.0907 76.0279 59.4347 76.0279 57.2992Z" fill="white"/>
<path d="M140.105 76.1262V86.128H103.027V40.368H139.247V50.3698H115.959V58.0837H136.476V67.7586H115.959V76.1262H140.105Z" fill="white"/>
<path d="M175.064 40.368C179.242 40.368 182.871 41.0653 185.949 42.4599C189.028 43.8109 191.403 45.772 193.075 48.3433C194.746 50.871 195.582 53.8563 195.582 57.2992C195.582 60.7421 194.746 63.7274 193.075 66.2551C191.403 68.7828 189.028 70.7439 185.949 72.1385C182.871 73.4895 179.242 74.1651 175.064 74.1651H167.014V86.128H153.951V40.368H175.064ZM174.272 63.9671C176.955 63.9671 178.978 63.4005 180.341 62.2674C181.705 61.0907 182.387 59.4347 182.387 57.2992C182.387 55.1637 181.705 53.5077 180.341 52.331C178.978 51.1543 176.955 50.5659 174.272 50.5659H167.014V63.9671H174.272Z" fill="white"/>
</g>
<defs>
<clipPath id="clip0_1_8">
<rect width="300" height="85.7143" fill="white" transform="translate(0 0.642853)"/>
</clipPath>
</defs>
</svg>
