<svg width="60" height="61" viewBox="0 0 60 61" fill="none" xmlns="http://www.w3.org/2000/svg">
<g clip-path="url(#clip0_1_621)">
<path d="M55 0.96875H5C2.23858 0.96875 0 3.20733 0 5.96875V55.9688C0 58.7302 2.23858 60.9688 5 60.9688H55C57.7614 60.9688 60 58.7302 60 55.9688V5.96875C60 3.20733 57.7614 0.96875 55 0.96875Z" fill="#2A1646"/>
<path d="M38.7071 31.6761C39.0976 31.2856 39.0976 30.6524 38.7071 30.2619L32.3431 23.8979C31.9526 23.5074 31.3195 23.5074 30.9289 23.8979C30.5384 24.2885 30.5384 24.9216 30.9289 25.3121L36.5858 30.969L30.9289 36.6259C30.5384 37.0164 30.5384 37.6495 30.9289 38.0401C31.3195 38.4306 31.9526 38.4306 32.3431 38.0401L38.7071 31.6761ZM23 31.969H38V29.969H23V31.969Z" fill="white"/>
</g>
<defs>
<clipPath id="clip0_1_621">
<rect width="60" height="60" fill="white" transform="translate(0 0.96875)"/>
</clipPath>
</defs>
</svg>
