<svg width="60" height="61" viewBox="0 0 60 61" fill="none" xmlns="http://www.w3.org/2000/svg">
<g clip-path="url(#clip0_1_618)">
<path d="M5 60.9687L55 60.9688C57.7614 60.9688 60 58.7302 60 55.9688L60 5.96875C60 3.20732 57.7614 0.96875 55 0.96875L5 0.96875C2.23857 0.96875 0 3.20732 0 5.96875L0 55.9687C0 58.7302 2.23857 60.9687 5 60.9687Z" fill="#2A1646"/>
<path d="M21.2929 30.2619C20.9024 30.6524 20.9024 31.2856 21.2929 31.6761L27.6569 38.0401C28.0474 38.4306 28.6805 38.4306 29.0711 38.0401C29.4616 37.6495 29.4616 37.0164 29.0711 36.6259L23.4142 30.969L29.0711 25.3121C29.4616 24.9216 29.4616 24.2885 29.0711 23.8979C28.6805 23.5074 28.0474 23.5074 27.6569 23.8979L21.2929 30.2619ZM37 29.969H22V31.969H37V29.969Z" fill="white"/>
</g>
<defs>
<clipPath id="clip0_1_618">
<rect width="60" height="60" fill="white" transform="translate(0 0.96875)"/>
</clipPath>
</defs>
</svg>
