<svg width="200" height="67" viewBox="0 0 200 67" fill="none" xmlns="http://www.w3.org/2000/svg">
<rect width="200" height="62" rx="5" fill="#2A1646"/>
<path d="M11.918 25V15.2H15.684C16.6547 15.2 17.4247 15.41 17.994 15.83C18.5727 16.2407 18.862 16.8567 18.862 17.678C18.862 18.4993 18.582 19.1107 18.022 19.512C17.4713 19.904 16.7527 20.1 15.866 20.1L16.104 19.918C17.1867 19.918 18.0033 20.1327 18.554 20.562C19.1047 20.982 19.38 21.6073 19.38 22.438C19.38 23.2593 19.0953 23.894 18.526 24.342C17.966 24.7807 17.1073 25 15.95 25H11.918ZM12.198 24.734H16.006C17.014 24.734 17.7793 24.552 18.302 24.188C18.834 23.8147 19.1 23.2313 19.1 22.438C19.1 21.6447 18.834 21.066 18.302 20.702C17.7793 20.338 17.014 20.156 16.006 20.156H12.198V24.734ZM12.198 19.89H15.726C16.6313 19.89 17.3313 19.7033 17.826 19.33C18.33 18.9567 18.582 18.406 18.582 17.678C18.582 16.95 18.33 16.3993 17.826 16.026C17.3313 15.6527 16.6313 15.466 15.726 15.466H12.198V19.89ZM28.9693 25V17.762H29.2493V25H28.9693ZM24.7693 20.506C25.656 20.5153 26.328 20.7067 26.7853 21.08C27.252 21.4533 27.4853 22.004 27.4853 22.732C27.4853 23.488 27.2427 24.062 26.7573 24.454C26.2813 24.846 25.5767 25.0373 24.6433 25.028L22.1653 25V17.762H22.4453V20.478L24.7693 20.506ZM24.6713 24.776C25.5113 24.7853 26.1413 24.6173 26.5613 24.272C26.9907 23.9267 27.2053 23.418 27.2053 22.746C27.2053 22.0833 26.9953 21.5887 26.5753 21.262C26.1553 20.9353 25.5207 20.7673 24.6713 20.758L22.4453 20.73V24.748L24.6713 24.776ZM37.9466 25L34.6286 21.318L34.8806 21.206L38.2826 25H37.9466ZM32.5286 25V17.762H32.8086V25H32.5286ZM32.7106 21.444V21.192H34.9086V21.444H32.7106ZM34.8806 21.402L34.6286 21.318L37.7226 17.762H38.0586L34.8806 21.402ZM39.4107 27.758C39.0934 27.758 38.7994 27.702 38.5287 27.59C38.2674 27.4873 38.0387 27.3287 37.8427 27.114L38.0527 26.89C38.2487 27.0953 38.4541 27.2447 38.6687 27.338C38.8834 27.4407 39.1354 27.492 39.4247 27.492C39.7794 27.492 40.0967 27.3893 40.3767 27.184C40.6567 26.988 40.9227 26.6193 41.1747 26.078L41.7067 24.902L41.7767 24.804L44.9827 17.762H45.3047L41.4547 26.162C41.2774 26.554 41.0814 26.8667 40.8667 27.1C40.6614 27.3333 40.4374 27.5013 40.1947 27.604C39.9614 27.7067 39.7001 27.758 39.4107 27.758ZM41.7627 25.154L38.3607 17.762H38.6827L41.8887 24.804L41.7627 25.154ZM47.1985 25V17.762H53.2745V25H52.9945V17.916L53.1065 18.028H47.3665L47.4785 17.916V25H47.1985ZM65.0201 24.86V18.028H60.8341L60.7361 20.114C60.7081 20.6647 60.6661 21.22 60.6101 21.78C60.5634 22.3307 60.4841 22.8393 60.3721 23.306C60.2694 23.7633 60.1201 24.132 59.9241 24.412C59.7374 24.692 59.4948 24.8413 59.1961 24.86L58.9021 24.748C59.2101 24.7667 59.4621 24.65 59.6581 24.398C59.8541 24.1367 60.0034 23.782 60.1061 23.334C60.2088 22.886 60.2834 22.382 60.3301 21.822C60.3861 21.262 60.4281 20.6927 60.4561 20.114L60.5681 17.762H65.3001V24.86H65.0201ZM58.5661 26.876V24.748H66.5041V26.876H66.2241V25H58.8461V26.876H58.5661ZM67.2048 24.972L67.2608 24.72C67.3168 24.7293 67.3774 24.7433 67.4428 24.762C67.5081 24.7713 67.5641 24.776 67.6108 24.776C67.9281 24.776 68.1848 24.65 68.3808 24.398C68.5768 24.1367 68.7261 23.7867 68.8288 23.348C68.9408 22.9 69.0201 22.4007 69.0668 21.85C69.1228 21.29 69.1648 20.716 69.1928 20.128L69.3188 17.762H74.0788V25H73.7988V17.916L73.9108 18.028H69.4868L69.5988 17.916L69.4728 20.184C69.4354 20.8093 69.3841 21.416 69.3188 22.004C69.2628 22.5827 69.1741 23.1007 69.0528 23.558C68.9314 24.0153 68.7588 24.3793 68.5348 24.65C68.3108 24.9113 68.0214 25.042 67.6668 25.042C67.5921 25.042 67.5174 25.0327 67.4428 25.014C67.3681 25.0047 67.2888 24.9907 67.2048 24.972ZM82.1187 25V22.256L82.2307 22.368H79.5007C78.6327 22.368 77.956 22.1813 77.4707 21.808C76.9947 21.4253 76.7567 20.856 76.7567 20.1C76.7567 19.2973 77.018 18.7093 77.5407 18.336C78.0634 17.9533 78.754 17.762 79.6127 17.762H82.3987V25H82.1187ZM76.7427 25L78.7727 22.2H79.0947L77.0647 25H76.7427ZM82.1187 22.214V17.916L82.2307 18.028H79.6407C78.8194 18.028 78.18 18.1913 77.7227 18.518C77.2654 18.8447 77.0367 19.372 77.0367 20.1C77.0367 21.444 77.872 22.116 79.5427 22.116H82.2307L82.1187 22.214ZM91.9152 25.042C91.2432 25.042 90.6412 24.888 90.1092 24.58C89.5865 24.2627 89.1712 23.8287 88.8632 23.278C88.5552 22.718 88.4012 22.0833 88.4012 21.374C88.4012 20.6553 88.5552 20.0253 88.8632 19.484C89.1712 18.9333 89.5865 18.504 90.1092 18.196C90.6412 17.8787 91.2432 17.72 91.9152 17.72C92.5872 17.72 93.1892 17.8787 93.7212 18.196C94.2532 18.504 94.6685 18.9333 94.9672 19.484C95.2752 20.0253 95.4292 20.6553 95.4292 21.374C95.4292 22.0833 95.2752 22.718 94.9672 23.278C94.6685 23.8287 94.2532 24.2627 93.7212 24.58C93.1892 24.888 92.5872 25.042 91.9152 25.042ZM91.9152 24.776C92.5312 24.776 93.0819 24.6313 93.5672 24.342C94.0619 24.0527 94.4492 23.6513 94.7292 23.138C95.0092 22.6247 95.1492 22.0367 95.1492 21.374C95.1492 20.702 95.0092 20.114 94.7292 19.61C94.4492 19.0967 94.0619 18.7 93.5672 18.42C93.0819 18.1307 92.5312 17.986 91.9152 17.986C91.2992 17.986 90.7485 18.1307 90.2632 18.42C89.7779 18.7 89.3905 19.0967 89.1012 19.61C88.8212 20.114 88.6812 20.702 88.6812 21.374C88.6812 22.0367 88.8212 22.6247 89.1012 23.138C89.3905 23.6513 89.7779 24.0527 90.2632 24.342C90.7485 24.6313 91.2992 24.776 91.9152 24.776ZM98.9211 25V17.916L99.0331 18.028H95.9811V17.762H102.141V18.028H99.0891L99.2011 17.916V25H98.9211ZM105.027 25.042C105.54 25.042 106.016 24.958 106.455 24.79C106.903 24.622 107.262 24.384 107.533 24.076C107.813 23.7587 107.953 23.3807 107.953 22.942C107.953 22.4007 107.724 21.9667 107.267 21.64C106.809 21.3133 106.156 21.15 105.307 21.15L105.265 21.304C105.722 21.304 106.137 21.234 106.511 21.094C106.884 20.954 107.183 20.7533 107.407 20.492C107.631 20.2307 107.743 19.918 107.743 19.554C107.743 19.162 107.617 18.8307 107.365 18.56C107.122 18.28 106.795 18.07 106.385 17.93C105.974 17.79 105.531 17.72 105.055 17.72C104.635 17.72 104.219 17.776 103.809 17.888C103.398 18 103.001 18.1727 102.619 18.406L102.745 18.644C103.099 18.4293 103.468 18.2707 103.851 18.168C104.233 18.056 104.607 17.9953 104.971 17.986C105.409 17.9767 105.815 18.0327 106.189 18.154C106.571 18.2753 106.879 18.4573 107.113 18.7C107.346 18.9333 107.463 19.2273 107.463 19.582C107.463 19.8993 107.36 20.1747 107.155 20.408C106.959 20.632 106.688 20.8047 106.343 20.926C105.997 21.038 105.615 21.094 105.195 21.094H104.117V21.36H105.181C105.937 21.36 106.539 21.5 106.987 21.78C107.444 22.06 107.673 22.4473 107.673 22.942C107.673 23.278 107.561 23.586 107.337 23.866C107.122 24.146 106.819 24.37 106.427 24.538C106.044 24.6967 105.601 24.7807 105.097 24.79C104.63 24.7993 104.159 24.7293 103.683 24.58C103.207 24.4213 102.796 24.1693 102.451 23.824L102.269 24.006C102.642 24.37 103.076 24.636 103.571 24.804C104.065 24.9627 104.551 25.042 105.027 25.042ZM117.44 25V17.762H117.72V25H117.44ZM113.24 20.506C114.127 20.5153 114.799 20.7067 115.256 21.08C115.723 21.4533 115.956 22.004 115.956 22.732C115.956 23.488 115.713 24.062 115.228 24.454C114.752 24.846 114.047 25.0373 113.114 25.028L110.636 25V17.762H110.916V20.478L113.24 20.506ZM113.142 24.776C113.982 24.7853 114.612 24.6173 115.032 24.272C115.461 23.9267 115.676 23.418 115.676 22.746C115.676 22.0833 115.466 21.5887 115.046 21.262C114.626 20.9353 113.991 20.7673 113.142 20.758L110.916 20.73V24.748L113.142 24.776ZM120.999 25V17.762H123.841C124.607 17.762 125.209 17.916 125.647 18.224C126.095 18.532 126.319 18.9893 126.319 19.596C126.319 20.1933 126.1 20.6413 125.661 20.94C125.232 21.2293 124.672 21.374 123.981 21.374L124.163 21.248C125.013 21.248 125.629 21.4067 126.011 21.724C126.394 22.032 126.585 22.4893 126.585 23.096C126.585 23.712 126.366 24.1833 125.927 24.51C125.489 24.8367 124.812 25 123.897 25H120.999ZM121.279 24.734H123.939C124.714 24.734 125.302 24.6033 125.703 24.342C126.105 24.0807 126.305 23.6653 126.305 23.096C126.305 22.5267 126.128 22.1113 125.773 21.85C125.419 21.5887 124.854 21.458 124.079 21.458H121.279V24.734ZM121.279 21.192H123.855C124.546 21.192 125.083 21.0613 125.465 20.8C125.848 20.5293 126.039 20.1327 126.039 19.61C126.039 19.0873 125.848 18.6953 125.465 18.434C125.083 18.1633 124.546 18.028 123.855 18.028H121.279V21.192ZM133.904 25V23.278V23.04V20.268C133.904 19.512 133.708 18.9427 133.316 18.56C132.924 18.1773 132.354 17.986 131.608 17.986C131.066 17.986 130.572 18.0793 130.124 18.266C129.676 18.4527 129.293 18.6953 128.976 18.994L128.78 18.798C129.125 18.4713 129.545 18.21 130.04 18.014C130.534 17.818 131.052 17.72 131.594 17.72C132.434 17.72 133.073 17.9347 133.512 18.364C133.96 18.7933 134.184 19.4233 134.184 20.254V25H133.904ZM131.146 25.042C130.604 25.042 130.142 24.958 129.76 24.79C129.377 24.622 129.083 24.384 128.878 24.076C128.682 23.768 128.584 23.4133 128.584 23.012C128.584 22.6667 128.663 22.3493 128.822 22.06C128.99 21.7613 129.26 21.5233 129.634 21.346C130.007 21.1593 130.516 21.066 131.16 21.066H134.058V21.332H131.146C130.324 21.332 129.736 21.4907 129.382 21.808C129.036 22.116 128.864 22.5127 128.864 22.998C128.864 23.5393 129.064 23.9733 129.466 24.3C129.867 24.6173 130.427 24.776 131.146 24.776C131.846 24.776 132.42 24.6173 132.868 24.3C133.325 23.9733 133.67 23.516 133.904 22.928L134.044 23.11C133.848 23.6887 133.502 24.1553 133.008 24.51C132.522 24.8647 131.902 25.042 131.146 25.042ZM140.419 27.758C140.101 27.758 139.807 27.702 139.537 27.59C139.275 27.4873 139.047 27.3287 138.851 27.114L139.061 26.89C139.257 27.0953 139.462 27.2447 139.677 27.338C139.891 27.4407 140.143 27.492 140.433 27.492C140.787 27.492 141.105 27.3893 141.385 27.184C141.665 26.988 141.931 26.6193 142.183 26.078L142.715 24.902L142.785 24.804L145.991 17.762H146.313L142.463 26.162C142.285 26.554 142.089 26.8667 141.875 27.1C141.669 27.3333 141.445 27.5013 141.203 27.604C140.969 27.7067 140.708 27.758 140.419 27.758ZM142.771 25.154L139.369 17.762H139.691L142.897 24.804L142.771 25.154ZM156.323 25L153.509 21.318L153.761 21.206L156.673 25H156.323ZM151.619 21.444V21.192H153.789V21.444H151.619ZM153.775 21.402L153.509 21.318L156.113 17.762H156.449L153.775 21.402ZM146.873 25H146.523L149.435 21.206L149.687 21.318L146.873 25ZM151.731 25H151.451V17.762H151.731V25ZM151.549 21.444H149.407V21.192H151.549V21.444ZM149.435 21.402L146.747 17.762H147.083L149.687 21.318L149.435 21.402ZM161.275 25.042C160.575 25.042 159.955 24.888 159.413 24.58C158.872 24.2627 158.443 23.8287 158.125 23.278C157.817 22.718 157.663 22.0833 157.663 21.374C157.663 20.6553 157.808 20.0253 158.097 19.484C158.387 18.9333 158.783 18.504 159.287 18.196C159.801 17.8787 160.375 17.72 161.009 17.72C161.644 17.72 162.213 17.874 162.717 18.182C163.231 18.4807 163.632 18.9007 163.921 19.442C164.22 19.9833 164.369 20.604 164.369 21.304C164.369 21.3133 164.369 21.3227 164.369 21.332C164.369 21.3413 164.369 21.3553 164.369 21.374H157.817V21.108H164.215L164.103 21.318C164.103 20.6833 163.968 20.114 163.697 19.61C163.427 19.106 163.058 18.7093 162.591 18.42C162.134 18.1307 161.607 17.986 161.009 17.986C160.421 17.986 159.894 18.1307 159.427 18.42C158.961 18.7093 158.592 19.106 158.321 19.61C158.06 20.114 157.929 20.6833 157.929 21.318V21.374C157.929 22.0367 158.074 22.6247 158.363 23.138C158.653 23.6513 159.049 24.0527 159.553 24.342C160.057 24.6313 160.631 24.776 161.275 24.776C161.761 24.776 162.218 24.6827 162.647 24.496C163.086 24.3093 163.45 24.0293 163.739 23.656L163.935 23.852C163.618 24.244 163.226 24.5427 162.759 24.748C162.293 24.944 161.798 25.042 161.275 25.042ZM11.638 46V38.762H14.48C15.2453 38.762 15.8473 38.916 16.286 39.224C16.734 39.532 16.958 39.9893 16.958 40.596C16.958 41.1933 16.7387 41.6413 16.3 41.94C15.8707 42.2293 15.3107 42.374 14.62 42.374L14.802 42.248C15.6513 42.248 16.2673 42.4067 16.65 42.724C17.0327 43.032 17.224 43.4893 17.224 44.096C17.224 44.712 17.0047 45.1833 16.566 45.51C16.1273 45.8367 15.4507 46 14.536 46H11.638ZM11.918 45.734H14.578C15.3527 45.734 15.9407 45.6033 16.342 45.342C16.7433 45.0807 16.944 44.6653 16.944 44.096C16.944 43.5267 16.7667 43.1113 16.412 42.85C16.0573 42.5887 15.4927 42.458 14.718 42.458H11.918V45.734ZM11.918 42.192H14.494C15.1847 42.192 15.7213 42.0613 16.104 41.8C16.4867 41.5293 16.678 41.1327 16.678 40.61C16.678 40.0873 16.4867 39.6953 16.104 39.434C15.7213 39.1633 15.1847 39.028 14.494 39.028H11.918V42.192ZM25.3685 46L22.0505 42.318L22.3025 42.206L25.7045 46H25.3685ZM19.9505 46V38.762H20.2305V46H19.9505ZM20.1325 42.444V42.192H22.3305V42.444H20.1325ZM22.3025 42.402L22.0505 42.318L25.1445 38.762H25.4805L22.3025 42.402ZM26.0524 45.972L26.1084 45.72C26.1644 45.7293 26.2251 45.7433 26.2904 45.762C26.3558 45.7713 26.4118 45.776 26.4584 45.776C26.7758 45.776 27.0324 45.65 27.2284 45.398C27.4244 45.1367 27.5738 44.7867 27.6764 44.348C27.7884 43.9 27.8678 43.4007 27.9144 42.85C27.9704 42.29 28.0124 41.716 28.0404 41.128L28.1664 38.762H32.9264V46H32.6464V38.916L32.7584 39.028H28.3344L28.4464 38.916L28.3204 41.184C28.2831 41.8093 28.2318 42.416 28.1664 43.004C28.1104 43.5827 28.0218 44.1007 27.9004 44.558C27.7791 45.0153 27.6064 45.3793 27.3824 45.65C27.1584 45.9113 26.8691 46.042 26.5144 46.042C26.4398 46.042 26.3651 46.0327 26.2904 46.014C26.2158 46.0047 26.1364 45.9907 26.0524 45.972ZM36.2064 46V38.762H36.4864V42.192H38.7404V42.458H36.4864V46H36.2064ZM42.0444 46.042C41.391 46.042 40.803 45.888 40.2804 45.58C39.7577 45.2627 39.347 44.8287 39.0484 44.278C38.7497 43.718 38.6004 43.0833 38.6004 42.374C38.6004 41.6553 38.7497 41.0253 39.0484 40.484C39.347 39.9333 39.7577 39.504 40.2804 39.196C40.803 38.8787 41.391 38.72 42.0444 38.72C42.707 38.72 43.295 38.8787 43.8084 39.196C44.331 39.504 44.7417 39.9333 45.0404 40.484C45.339 41.0253 45.4884 41.6553 45.4884 42.374C45.4884 43.0833 45.339 43.718 45.0404 44.278C44.7417 44.8287 44.331 45.2627 43.8084 45.58C43.295 45.888 42.707 46.042 42.0444 46.042ZM42.0444 45.776C42.651 45.776 43.1924 45.6313 43.6684 45.342C44.1444 45.0527 44.5177 44.6513 44.7884 44.138C45.0684 43.6247 45.2084 43.0367 45.2084 42.374C45.2084 41.702 45.0684 41.114 44.7884 40.61C44.5177 40.0967 44.1444 39.7 43.6684 39.42C43.1924 39.1307 42.651 38.986 42.0444 38.986C41.447 38.986 40.9057 39.1307 40.4204 39.42C39.9444 39.7 39.5664 40.0967 39.2864 40.61C39.0157 41.114 38.8804 41.702 38.8804 42.374C38.8804 43.0367 39.0157 43.6247 39.2864 44.138C39.5664 44.6513 39.9444 45.0527 40.4204 45.342C40.9057 45.6313 41.447 45.776 42.0444 45.776ZM52.5972 42.738C52.1025 42.9527 51.6125 43.116 51.1272 43.228C50.6512 43.3307 50.2079 43.382 49.7972 43.382C49.0132 43.382 48.3739 43.2 47.8792 42.836C47.3845 42.472 47.1372 41.9307 47.1372 41.212V38.762H47.4172V41.212C47.4172 41.828 47.6319 42.304 48.0612 42.64C48.4999 42.9667 49.0785 43.13 49.7972 43.13C50.2079 43.13 50.6512 43.074 51.1272 42.962C51.6032 42.85 52.0979 42.682 52.6112 42.458L52.5972 42.738ZM52.5552 46V38.762H52.8352V46H52.5552ZM58.9686 46.042C58.2686 46.042 57.6479 45.888 57.1066 45.58C56.5653 45.2627 56.1359 44.8287 55.8186 44.278C55.5106 43.718 55.3566 43.0833 55.3566 42.374C55.3566 41.6553 55.5013 41.0253 55.7906 40.484C56.0799 39.9333 56.4766 39.504 56.9806 39.196C57.4939 38.8787 58.0679 38.72 58.7026 38.72C59.3373 38.72 59.9066 38.874 60.4106 39.182C60.9239 39.4807 61.3253 39.9007 61.6146 40.442C61.9133 40.9833 62.0626 41.604 62.0626 42.304C62.0626 42.3133 62.0626 42.3227 62.0626 42.332C62.0626 42.3413 62.0626 42.3553 62.0626 42.374H55.5106V42.108H61.9086L61.7966 42.318C61.7966 41.6833 61.6613 41.114 61.3906 40.61C61.1199 40.106 60.7513 39.7093 60.2846 39.42C59.8273 39.1307 59.2999 38.986 58.7026 38.986C58.1146 38.986 57.5873 39.1307 57.1206 39.42C56.6539 39.7093 56.2853 40.106 56.0146 40.61C55.7533 41.114 55.6226 41.6833 55.6226 42.318V42.374C55.6226 43.0367 55.7673 43.6247 56.0566 44.138C56.3459 44.6513 56.7426 45.0527 57.2466 45.342C57.7506 45.6313 58.3246 45.776 58.9686 45.776C59.4539 45.776 59.9113 45.6827 60.3406 45.496C60.7793 45.3093 61.1433 45.0293 61.4326 44.656L61.6286 44.852C61.3113 45.244 60.9193 45.5427 60.4526 45.748C59.9859 45.944 59.4913 46.042 58.9686 46.042ZM64.4661 46V38.762H64.7461V42.22H70.1921V38.762H70.4721V46H70.1921V42.472H64.7461V46H64.4661ZM77.2493 46V38.762H80.0913C80.8567 38.762 81.4587 38.916 81.8973 39.224C82.3453 39.532 82.5693 39.9893 82.5693 40.596C82.5693 41.1933 82.35 41.6413 81.9113 41.94C81.482 42.2293 80.922 42.374 80.2313 42.374L80.4133 42.248C81.2627 42.248 81.8787 42.4067 82.2613 42.724C82.644 43.032 82.8353 43.4893 82.8353 44.096C82.8353 44.712 82.616 45.1833 82.1773 45.51C81.7387 45.8367 81.062 46 80.1473 46H77.2493ZM77.5293 45.734H80.1893C80.964 45.734 81.552 45.6033 81.9533 45.342C82.3547 45.0807 82.5553 44.6653 82.5553 44.096C82.5553 43.5267 82.378 43.1113 82.0233 42.85C81.6687 42.5887 81.104 42.458 80.3293 42.458H77.5293V45.734ZM77.5293 42.192H80.1053C80.796 42.192 81.3327 42.0613 81.7153 41.8C82.098 41.5293 82.2893 41.1327 82.2893 40.61C82.2893 40.0873 82.098 39.6953 81.7153 39.434C81.3327 39.1633 80.796 39.028 80.1053 39.028H77.5293V42.192ZM91.8478 46.042C91.1665 46.042 90.5552 45.888 90.0138 45.58C89.4818 45.2627 89.0618 44.8287 88.7538 44.278C88.4458 43.7273 88.2918 43.0927 88.2918 42.374C88.2918 41.6553 88.4458 41.0207 88.7538 40.47C89.0618 39.9193 89.4818 39.49 90.0138 39.182C90.5552 38.874 91.1665 38.72 91.8478 38.72C92.3705 38.72 92.8558 38.818 93.3038 39.014C93.7612 39.21 94.1438 39.504 94.4518 39.896L94.2558 40.106C93.9758 39.7233 93.6258 39.4433 93.2058 39.266C92.7858 39.0793 92.3332 38.986 91.8478 38.986C91.2225 38.986 90.6625 39.1307 90.1678 39.42C89.6732 39.7 89.2812 40.0967 88.9918 40.61C88.7118 41.114 88.5718 41.702 88.5718 42.374C88.5718 43.046 88.7118 43.6387 88.9918 44.152C89.2812 44.656 89.6732 45.0527 90.1678 45.342C90.6625 45.6313 91.2225 45.776 91.8478 45.776C92.3332 45.776 92.7858 45.6827 93.2058 45.496C93.6258 45.3093 93.9758 45.0293 94.2558 44.656L94.4518 44.866C94.1438 45.258 93.7612 45.552 93.3038 45.748C92.8558 45.944 92.3705 46.042 91.8478 46.042ZM97.7727 46V38.916L97.8847 39.028H94.8327V38.762H100.993V39.028H97.9407L98.0527 38.916V46H97.7727ZM104.958 46.042C104.286 46.042 103.684 45.888 103.152 45.58C102.63 45.2627 102.214 44.8287 101.906 44.278C101.598 43.718 101.444 43.0833 101.444 42.374C101.444 41.6553 101.598 41.0253 101.906 40.484C102.214 39.9333 102.63 39.504 103.152 39.196C103.684 38.8787 104.286 38.72 104.958 38.72C105.63 38.72 106.232 38.8787 106.764 39.196C107.296 39.504 107.712 39.9333 108.01 40.484C108.318 41.0253 108.472 41.6553 108.472 42.374C108.472 43.0833 108.318 43.718 108.01 44.278C107.712 44.8287 107.296 45.2627 106.764 45.58C106.232 45.888 105.63 46.042 104.958 46.042ZM104.958 45.776C105.574 45.776 106.125 45.6313 106.61 45.342C107.105 45.0527 107.492 44.6513 107.772 44.138C108.052 43.6247 108.192 43.0367 108.192 42.374C108.192 41.702 108.052 41.114 107.772 40.61C107.492 40.0967 107.105 39.7 106.61 39.42C106.125 39.1307 105.574 38.986 104.958 38.986C104.342 38.986 103.792 39.1307 103.306 39.42C102.821 39.7 102.434 40.0967 102.144 40.61C101.864 41.114 101.724 41.702 101.724 42.374C101.724 43.0367 101.864 43.6247 102.144 44.138C102.434 44.6513 102.821 45.0527 103.306 45.342C103.792 45.6313 104.342 45.776 104.958 45.776ZM110.992 46V38.762H111.272V45.524L116.928 38.762H117.152V46H116.872V39.238L111.216 46H110.992ZM120.425 46V38.762H120.663L124.289 44.74H124.163L127.761 38.762H127.999V46H127.733V39.168H127.817L124.289 44.992H124.135L120.593 39.168H120.705V46H120.425ZM134.025 46.042C133.353 46.042 132.751 45.888 132.219 45.58C131.696 45.2627 131.281 44.8287 130.973 44.278C130.665 43.718 130.511 43.0833 130.511 42.374C130.511 41.6553 130.665 41.0253 130.973 40.484C131.281 39.9333 131.696 39.504 132.219 39.196C132.751 38.8787 133.353 38.72 134.025 38.72C134.697 38.72 135.299 38.8787 135.831 39.196C136.363 39.504 136.778 39.9333 137.077 40.484C137.385 41.0253 137.539 41.6553 137.539 42.374C137.539 43.0833 137.385 43.718 137.077 44.278C136.778 44.8287 136.363 45.2627 135.831 45.58C135.299 45.888 134.697 46.042 134.025 46.042ZM134.025 45.776C134.641 45.776 135.191 45.6313 135.677 45.342C136.171 45.0527 136.559 44.6513 136.839 44.138C137.119 43.6247 137.259 43.0367 137.259 42.374C137.259 41.702 137.119 41.114 136.839 40.61C136.559 40.0967 136.171 39.7 135.677 39.42C135.191 39.1307 134.641 38.986 134.025 38.986C133.409 38.986 132.858 39.1307 132.373 39.42C131.887 39.7 131.5 40.0967 131.211 40.61C130.931 41.114 130.791 41.702 130.791 42.374C130.791 43.0367 130.931 43.6247 131.211 44.138C131.5 44.6513 131.887 45.0527 132.373 45.342C132.858 45.6313 133.409 45.776 134.025 45.776ZM142.844 46.042C142.163 46.042 141.551 45.888 141.01 45.58C140.478 45.2627 140.058 44.8287 139.75 44.278C139.442 43.7273 139.288 43.0927 139.288 42.374C139.288 41.6553 139.442 41.0207 139.75 40.47C140.058 39.9193 140.478 39.49 141.01 39.182C141.551 38.874 142.163 38.72 142.844 38.72C143.367 38.72 143.852 38.818 144.3 39.014C144.757 39.21 145.14 39.504 145.448 39.896L145.252 40.106C144.972 39.7233 144.622 39.4433 144.202 39.266C143.782 39.0793 143.329 38.986 142.844 38.986C142.219 38.986 141.659 39.1307 141.164 39.42C140.669 39.7 140.277 40.0967 139.988 40.61C139.708 41.114 139.568 41.702 139.568 42.374C139.568 43.046 139.708 43.6387 139.988 44.152C140.277 44.656 140.669 45.0527 141.164 45.342C141.659 45.6313 142.219 45.776 142.844 45.776C143.329 45.776 143.782 45.6827 144.202 45.496C144.622 45.3093 144.972 45.0293 145.252 44.656L145.448 44.866C145.14 45.258 144.757 45.552 144.3 45.748C143.852 45.944 143.367 46.042 142.844 46.042ZM148.769 46V38.916L148.881 39.028H145.829V38.762H151.989V39.028H148.937L149.049 38.916V46H148.769ZM156.17 41.506C157.056 41.5153 157.728 41.7067 158.186 42.08C158.652 42.4533 158.886 43.004 158.886 43.732C158.886 44.488 158.643 45.062 158.158 45.454C157.682 45.846 156.977 46.0373 156.044 46.028L153.566 46V38.762H153.846V41.478L156.17 41.506ZM156.072 45.776C156.912 45.7853 157.542 45.6173 157.962 45.272C158.391 44.9267 158.606 44.418 158.606 43.746C158.606 43.0833 158.396 42.5887 157.976 42.262C157.556 41.9353 156.921 41.7673 156.072 41.758L153.846 41.73V45.748L156.072 45.776Z" fill="white"/>
<mask id="path-3-inside-1_1_721" fill="white">
<path d="M95 62H105V67H95V62Z"/>
</mask>
<path d="M95 62V57H90V62H95ZM105 62H110V57H105V62ZM95 67H105V57H95V67ZM100 62V67H110V62H100ZM100 67V62H90V67H100Z" fill="#2A1646" mask="url(#path-3-inside-1_1_721)"/>
</svg>
