<svg width="26" height="26" viewBox="0 0 26 26" fill="none" xmlns="http://www.w3.org/2000/svg">
<g clip-path="url(#clip0_1_528)">
<path d="M13.2656 25.3438C20.1692 25.3438 25.7656 19.7473 25.7656 12.8438C25.7656 5.94019 20.1692 0.34375 13.2656 0.34375C6.36207 0.34375 0.765625 5.94019 0.765625 12.8438C0.765625 19.7473 6.36207 25.3438 13.2656 25.3438Z" fill="#00CCCC"/>
<path d="M12.1815 14.942C12.1815 14.4567 12.2889 14.0553 12.5035 13.738C12.7275 13.4207 13.0495 13.0707 13.4695 12.688C13.7775 12.408 14.0015 12.1747 14.1415 11.988C14.2909 11.792 14.3655 11.5727 14.3655 11.33C14.3655 10.9847 14.2255 10.714 13.9455 10.518C13.6749 10.3126 13.3109 10.21 12.8535 10.21C12.4149 10.21 12.0229 10.3033 11.6775 10.49C11.3415 10.6673 11.0569 10.9193 10.8235 11.246L9.12955 10.252C9.52155 9.65465 10.0489 9.19265 10.7115 8.86598C11.3835 8.53931 12.1769 8.37598 13.0915 8.37598C14.1649 8.37598 15.0235 8.60465 15.6675 9.06198C16.3209 9.51931 16.6475 10.154 16.6475 10.966C16.6475 11.3487 16.5822 11.6847 16.4515 11.974C16.3302 12.2633 16.1762 12.5107 15.9895 12.716C15.8122 12.912 15.5789 13.1407 15.2895 13.402C14.9442 13.71 14.6922 13.9713 14.5335 14.186C14.3749 14.3913 14.2955 14.6433 14.2955 14.942H12.1815ZM13.2455 18.456C12.8629 18.456 12.5409 18.3347 12.2795 18.092C12.0275 17.84 11.9015 17.5367 11.9015 17.182C11.9015 16.8273 12.0275 16.5333 12.2795 16.3C12.5315 16.0573 12.8535 15.936 13.2455 15.936C13.6375 15.936 13.9595 16.0573 14.2115 16.3C14.4635 16.5333 14.5895 16.8273 14.5895 17.182C14.5895 17.5367 14.4589 17.84 14.1975 18.092C13.9455 18.3347 13.6282 18.456 13.2455 18.456Z" fill="white"/>
</g>
<defs>
<clipPath id="clip0_1_528">
<rect width="25" height="25" fill="white" transform="translate(0.765625 0.34375)"/>
</clipPath>
</defs>
</svg>
