<svg width="26" height="29" viewBox="0 0 26 29" fill="none" xmlns="http://www.w3.org/2000/svg">
<g clip-path="url(#clip0_1_165)">
<path d="M12.5353 4.25582C12.9245 3.61329 13.8567 3.61329 14.2459 4.25582L17.6324 9.84637C17.7716 10.0763 17.9976 10.2404 18.2593 10.3018L24.6227 11.795C25.354 11.9666 25.6421 12.8531 25.1513 13.4218L20.8808 18.3701C20.7052 18.5736 20.6189 18.8392 20.6414 19.1071L21.1877 25.6204C21.2505 26.369 20.4963 26.917 19.8038 26.6259L13.778 24.0937C13.5302 23.9896 13.2509 23.9896 13.0032 24.0937L6.97743 26.6259C6.28488 26.917 5.5307 26.369 5.59349 25.6204L6.13981 19.1071C6.16228 18.8392 6.07598 18.5736 5.90037 18.3701L1.62993 13.4218C1.13912 12.8531 1.42719 11.9666 2.15855 11.795L8.52194 10.3018C8.78363 10.2404 9.00956 10.0763 9.14882 9.84637L12.5353 4.25582Z" fill="url(#paint0_linear_1_165)"/>
</g>
<defs>
<linearGradient id="paint0_linear_1_165" x1="8.66562" y1="3.85625" x2="25.8781" y2="33.8938" gradientUnits="userSpaceOnUse">
<stop stop-color="#FDF2A1"/>
<stop offset="1" stop-color="#FE8102"/>
</linearGradient>
<clipPath id="clip0_1_165">
<rect width="25" height="24" fill="white" transform="translate(0.890625 2.84375)"/>
</clipPath>
</defs>
</svg>
