<svg width="55" height="56" viewBox="0 0 55 56" fill="none" xmlns="http://www.w3.org/2000/svg">
<g clip-path="url(#clip0_1_677)">
<path d="M27.5 55.0938C42.6878 55.0938 55 42.7816 55 27.5938C55 12.4059 42.6878 0.09375 27.5 0.09375C12.3122 0.09375 0 12.4059 0 27.5938C0 42.7816 12.3122 55.0938 27.5 55.0938Z" fill="#220E3F"/>
<path d="M12.5835 26.9986L39.0981 16.7755C40.3287 16.3309 41.4035 17.0757 41.0048 18.9365L41.0071 18.9342L36.4925 40.2032C36.1579 41.7111 35.2619 42.0778 34.0083 41.3673L27.1333 36.3005L23.8173 39.4951C23.4506 39.8617 23.1412 40.1711 22.4308 40.1711L22.9189 33.1746L35.6606 21.6636C36.2152 21.1755 35.5369 20.9005 34.8058 21.3863L19.0598 31.3L12.2719 29.1825C10.7983 28.715 10.7662 27.709 12.5835 26.9986Z" fill="white"/>
</g>
<defs>
<clipPath id="clip0_1_677">
<rect width="55" height="55" fill="white" transform="translate(0 0.09375)"/>
</clipPath>
</defs>
</svg>
