<svg width="55" height="56" viewBox="0 0 55 56" fill="none" xmlns="http://www.w3.org/2000/svg">
<g clip-path="url(#clip0_1_649)">
<path d="M27.5 55.0938C42.6878 55.0938 55 42.7816 55 27.5938C55 12.4059 42.6878 0.09375 27.5 0.09375C12.3122 0.09375 0 12.4059 0 27.5938C0 42.7816 12.3122 55.0938 27.5 55.0938Z" fill="#00CCCC"/>
<path d="M43.4568 36.889C43.4568 37.2941 43.3819 37.8231 43.2318 38.4756C43.0817 39.1283 42.9242 39.6421 42.7592 40.0172C42.4442 40.7675 41.5288 41.5626 40.0135 42.4028C38.6032 43.168 37.2078 43.5505 35.8276 43.5505C35.4225 43.5505 35.0287 43.5243 34.6459 43.4718C34.2634 43.4192 33.832 43.3255 33.352 43.1904C32.8719 43.0555 32.5156 42.9467 32.283 42.864C32.0505 42.7817 31.6341 42.6277 31.034 42.4028C30.4338 42.1778 30.0662 42.0427 29.9311 41.9976C28.4608 41.4725 27.148 40.8499 25.9928 40.1297C24.0723 38.9446 22.0882 37.3278 20.0402 35.2799C17.9922 33.232 16.3756 31.2477 15.1903 29.3273C14.4702 28.172 13.8475 26.8593 13.3224 25.389C13.2774 25.2539 13.1424 24.8863 12.9173 24.286C12.6923 23.686 12.5385 23.2696 12.456 23.0371C12.3734 22.8044 12.2647 22.4482 12.1296 21.9681C11.9946 21.488 11.9008 21.0566 11.8483 20.6741C11.7958 20.2915 11.7695 19.8976 11.7695 19.4925C11.7695 18.1122 12.1521 16.7169 12.9173 15.3066C13.7575 13.7912 14.5527 12.876 15.3029 12.5609C15.6779 12.3959 16.1918 12.2384 16.8445 12.0883C17.4971 11.9383 18.026 11.8633 18.4311 11.8633C18.6411 11.8633 18.7987 11.8858 18.9037 11.9308C19.1737 12.0208 19.5713 12.591 20.0965 13.6412C20.2615 13.9263 20.4865 14.3314 20.7716 14.8565C21.0567 15.3816 21.3192 15.8579 21.5593 16.2856C21.7993 16.7131 22.0319 17.1145 22.2569 17.4896C22.302 17.5496 22.4332 17.7371 22.6507 18.0522C22.8682 18.3673 23.0296 18.6336 23.1346 18.8511C23.2396 19.0687 23.2922 19.2825 23.2922 19.4925C23.2922 19.7926 23.0783 20.1677 22.6507 20.6178C22.2232 21.0679 21.7581 21.4805 21.2555 21.8556C20.7529 22.2306 20.2877 22.6283 19.8601 23.0484C19.4325 23.4685 19.2187 23.8134 19.2187 24.0835C19.2187 24.2186 19.2563 24.3874 19.3313 24.59C19.4063 24.7926 19.4701 24.9463 19.5226 25.0513C19.5751 25.1563 19.6801 25.3365 19.8376 25.5913C19.9952 25.8464 20.0815 25.989 20.0965 26.0191C21.2367 28.0745 22.542 29.8374 24.0124 31.3077C25.4827 32.778 27.2456 34.0833 29.301 35.2236C29.3311 35.2387 29.4737 35.325 29.7287 35.4825C29.9836 35.64 30.1638 35.7451 30.2688 35.7976C30.3738 35.8501 30.5275 35.9137 30.7301 35.9888C30.9326 36.0637 31.1015 36.1013 31.2366 36.1013C31.5066 36.1013 31.8516 35.8874 32.2716 35.4599C32.6917 35.0323 33.0894 34.5672 33.4644 34.0645C33.8395 33.562 34.2521 33.0969 34.7023 32.6694C35.1525 32.2418 35.5275 32.0279 35.8276 32.0279C36.0377 32.0279 36.2513 32.0804 36.4688 32.1854C36.6866 32.2905 36.9528 32.4518 37.2678 32.6694C37.5829 32.8869 37.7705 33.0181 37.8305 33.0632C38.2055 33.2882 38.6068 33.5208 39.0346 33.7607C39.4622 34.0009 39.9384 34.2634 40.4637 34.5484C40.9888 34.8336 41.3937 35.0586 41.6789 35.2236C42.7291 35.7487 43.2993 36.1463 43.3893 36.4164C43.4344 36.5214 43.4568 36.6789 43.4568 36.889Z" fill="white"/>
</g>
<defs>
<clipPath id="clip0_1_649">
<rect width="55" height="55" fill="white" transform="translate(0 0.09375)"/>
</clipPath>
</defs>
</svg>
