<svg width="60" height="61" viewBox="0 0 60 61" fill="none" xmlns="http://www.w3.org/2000/svg">
<g clip-path="url(#clip0_1_442)">
<path d="M30 60.8438C46.5685 60.8438 60 47.4123 60 30.8438C60 14.2752 46.5685 0.84375 30 0.84375C13.4315 0.84375 0 14.2752 0 30.8438C0 47.4123 13.4315 60.8438 30 60.8438Z" fill="#2A1646"/>
<mask id="mask0_1_442" style="mask-type:luminance" maskUnits="userSpaceOnUse" x="15" y="16" width="29" height="30">
<path d="M44 16.8438H15V45.8438H44V16.8438Z" fill="white"/>
</mask>
<g mask="url(#mask0_1_442)">
<path d="M33.5781 38.1973H29.0469C28.5777 38.1973 28.1973 38.5777 28.1973 39.0469C28.1973 39.5161 28.5777 39.8965 29.0469 39.8965H33.5781C34.0473 39.8965 34.4277 39.5161 34.4277 39.0469C34.4277 38.5777 34.0473 38.1973 33.5781 38.1973Z" fill="#00CCCC"/>
<path d="M29.0469 36.2715H32.2188C32.688 36.2715 33.0684 35.8911 33.0684 35.4219C33.0684 34.9527 32.688 34.5723 32.2188 34.5723H29.0469C28.5777 34.5723 28.1973 34.9527 28.1973 35.4219C28.1973 35.8911 28.5777 36.2715 29.0469 36.2715Z" fill="#00CCCC"/>
<path d="M44 25.9062C44 22.1896 40.9764 19.166 37.2598 19.166C34.3166 19.166 31.8083 21.0623 30.8917 23.6972H17.5488C16.1434 23.6972 15 24.8406 15 26.246V40.9726C15 42.378 16.1434 43.5214 17.5488 43.5214H38.6758C40.0812 43.5214 41.2246 42.378 41.2246 40.9726V31.3534C42.9055 30.1265 44 28.1419 44 25.9062ZM37.2598 20.8652C40.0394 20.8652 42.3008 23.1266 42.3008 25.9062C42.3008 28.6858 40.0394 30.9472 37.2598 30.9472C34.4801 30.9472 32.2188 28.6858 32.2188 25.9062C32.2188 23.1266 34.4801 20.8652 37.2598 20.8652ZM39.5254 40.9726C39.5254 41.4411 39.1443 41.8222 38.6758 41.8222H17.5488C17.0804 41.8222 16.6992 41.4411 16.6992 40.9726V26.246C16.6992 25.7776 17.0804 25.3964 17.5488 25.3964H30.5387C30.5261 25.5648 30.5195 25.7347 30.5195 25.9062C30.5195 29.6228 33.5432 32.6464 37.2598 32.6464C38.0543 32.6464 38.817 32.5078 39.5254 32.2543V40.9726Z" fill="#00CCCC"/>
<path d="M35.5933 27.6455C35.7215 27.902 35.9705 28.0764 36.2553 28.1095C36.2881 28.1132 36.3208 28.1152 36.3533 28.1152C36.6037 28.1152 36.8435 28.0044 37.0059 27.8095L39.2716 25.0907C39.5719 24.7303 39.5232 24.1946 39.1628 23.8941C38.8024 23.5938 38.2666 23.6425 37.9662 24.0029L36.5322 25.7237L36.2069 25.0732C35.997 24.6535 35.4867 24.4833 35.067 24.6932C34.6473 24.903 34.4772 25.4134 34.6871 25.8331L35.5933 27.6455Z" fill="#00CCCC"/>
<path d="M24.464 33.9858C25.0207 33.4228 25.3652 32.6494 25.3652 31.7968C25.3652 30.0791 23.9677 28.6816 22.25 28.6816C20.5323 28.6816 19.1348 30.0791 19.1348 31.7968C19.1348 32.6494 19.4793 33.4228 20.036 33.9858C19.2118 34.64 18.6816 35.6496 18.6816 36.7812V39.0468C18.6816 39.516 19.062 39.8964 19.5312 39.8964H24.9688C25.438 39.8964 25.8184 39.516 25.8184 39.0468V36.7812C25.8184 35.6496 25.2882 34.64 24.464 33.9858ZM20.834 31.7968C20.834 31.016 21.4692 30.3808 22.25 30.3808C23.0308 30.3808 23.666 31.016 23.666 31.7968C23.666 32.5776 23.0308 33.2128 22.25 33.2128C21.4692 33.2128 20.834 32.5776 20.834 31.7968ZM24.1191 38.1972H20.3809V36.7812C20.3809 35.7506 21.2194 34.9121 22.25 34.9121C23.2806 34.9121 24.1191 35.7506 24.1191 36.7812V38.1972Z" fill="#00CCCC"/>
</g>
</g>
<defs>
<clipPath id="clip0_1_442">
<rect width="60" height="60" fill="white" transform="translate(0 0.84375)"/>
</clipPath>
</defs>
</svg>
