<svg width="60" height="61" viewBox="0 0 60 61" fill="none" xmlns="http://www.w3.org/2000/svg">
<g clip-path="url(#clip0_1_401)">
<path d="M30 60.8438C46.5685 60.8438 60 47.4123 60 30.8438C60 14.2752 46.5685 0.84375 30 0.84375C13.4315 0.84375 0 14.2752 0 30.8438C0 47.4123 13.4315 60.8438 30 60.8438Z" fill="#2A1646"/>
<mask id="mask0_1_401" style="mask-type:luminance" maskUnits="userSpaceOnUse" x="16" y="17" width="27" height="28">
<path d="M43 17.8438H16V44.8438H43V17.8438Z" fill="white"/>
</mask>
<g mask="url(#mask0_1_401)">
<path d="M40.4786 28.8734H36.7586V27.484V25.1031C36.7586 21.699 34.3421 18.7133 31.0126 18.0038C30.0085 17.7898 28.9908 17.7896 27.987 18.0038C24.6577 18.7133 22.2412 21.699 22.2412 25.1032V27.4842V28.8736H18.5212C18.1708 28.8736 17.8867 29.1576 17.8867 29.508C17.8867 29.8584 18.1708 30.1425 18.5212 30.1425H40.4786C40.829 30.1425 41.1131 29.8584 41.1131 29.508C41.1131 29.1576 40.829 28.8734 40.4786 28.8734ZM30.7482 19.245C33.4955 19.8305 35.4897 22.2942 35.4897 25.1032V26.8497H23.5102V25.1032C23.5102 22.2942 25.5043 19.8305 28.2518 19.245C29.0798 19.0686 29.92 19.0686 30.7482 19.245Z" fill="#00CCCC"/>
<path d="M36.5276 37.852C36.2995 37.7498 36.032 37.7912 35.8457 37.9578L29.5566 43.5745H29.4438L23.1547 37.9578C22.9682 37.7911 22.7011 37.7495 22.4728 37.852C22.2447 37.9543 22.0977 38.181 22.0977 38.4311V44.209C22.0977 44.5594 22.3817 44.8434 22.7321 44.8434H29.1987H29.2017H29.2046H29.799H30.4187H36.2686C36.619 44.8434 36.903 44.5594 36.903 44.209V38.4311C36.9027 38.181 36.7558 37.9541 36.5276 37.852Z" fill="#00CCCC"/>
<path d="M25.1196 36.1778H26.2298C27.567 36.1778 28.6815 35.218 28.8798 33.8957L29.1277 32.2427H29.8713L30.1193 33.8957C30.3175 35.218 31.432 36.1778 32.7692 36.1778H33.8794C35.262 36.1778 36.4082 35.1405 36.5459 33.7649L36.8249 30.9736H36.1238H29.6811H29.3181H22.8754H22.1743L22.4533 33.7649C22.5909 35.1406 23.7371 36.1778 25.1196 36.1778Z" fill="#00CCCC"/>
</g>
</g>
<defs>
<clipPath id="clip0_1_401">
<rect width="60" height="60" fill="white" transform="translate(0 0.84375)"/>
</clipPath>
</defs>
</svg>
