<svg width="60" height="61" viewBox="0 0 60 61" fill="none" xmlns="http://www.w3.org/2000/svg">
<g clip-path="url(#clip0_1_394)">
<path d="M30 60.8438C46.5685 60.8438 60 47.4123 60 30.8438C60 14.2752 46.5685 0.84375 30 0.84375C13.4315 0.84375 0 14.2752 0 30.8438C0 47.4123 13.4315 60.8438 30 60.8438Z" fill="#2A1646"/>
<path d="M37.3195 18.6835L16.9445 24.143C15.3717 24.5644 14.4349 26.187 14.8563 27.7598L18.132 39.9848C18.5534 41.5577 20.176 42.4944 21.7488 42.073L42.1238 36.6135C43.6967 36.1921 44.6334 34.5695 44.212 32.9967L40.9363 20.7717C40.5149 19.1989 38.8923 18.2621 37.3195 18.6835ZM17.3813 25.773L37.7563 20.3135C38.4303 20.1329 39.1257 20.5344 39.3063 21.2085L39.7431 22.8385L16.9231 28.9531L16.4863 27.3231C16.3057 26.649 16.7072 25.9536 17.3813 25.773ZM41.6871 34.9835L21.3121 40.443C20.638 40.6236 19.9426 40.2221 19.762 39.5481L17.3598 30.5831L40.1798 24.4685L42.582 33.4335C42.7626 34.1075 42.3611 34.8029 41.6871 34.9835Z" fill="#00CCCC"/>
<path d="M23.5094 37.2337L22.6944 37.452C22.2444 37.5726 21.7817 37.3055 21.6611 36.8554L21.4427 36.0404C21.3221 35.5903 21.5892 35.1276 22.0393 35.007L22.8543 34.7887C23.3044 34.6681 23.7671 34.9352 23.8877 35.3853L24.1061 36.2003C24.2267 36.6504 23.9595 37.1131 23.5094 37.2337Z" fill="#00CCCC"/>
</g>
<defs>
<clipPath id="clip0_1_394">
<rect width="60" height="60" fill="white" transform="translate(0 0.84375)"/>
</clipPath>
</defs>
</svg>
