<svg width="60" height="61" viewBox="0 0 60 61" fill="none" xmlns="http://www.w3.org/2000/svg">
<g clip-path="url(#clip0_1_432)">
<path d="M30 60.8438C46.5685 60.8438 60 47.4123 60 30.8438C60 14.2752 46.5685 0.84375 30 0.84375C13.4315 0.84375 0 14.2752 0 30.8438C0 47.4123 13.4315 60.8438 30 60.8438Z" fill="#2A1646"/>
<mask id="mask0_1_432" style="mask-type:luminance" maskUnits="userSpaceOnUse" x="17" y="16" width="27" height="28">
<path d="M44 16.8438H17V43.8438H44V16.8438Z" fill="white"/>
</mask>
<g mask="url(#mask0_1_432)">
<path d="M40.254 20.9986C37.7057 18.3387 34.1798 16.8375 30.4961 16.8443C23.0518 16.8349 17.0094 22.8621 17 30.3065C16.9954 33.9874 18.4963 37.5101 21.1543 40.0567C21.162 40.0643 21.1649 40.0759 21.1726 40.0827C21.2507 40.1579 21.3355 40.2215 21.4146 40.2938C21.6315 40.4866 21.8484 40.6861 22.0768 40.8722C22.1992 40.9686 22.3265 41.065 22.4518 41.1537C22.6677 41.3146 22.8837 41.4756 23.1092 41.6241C23.2625 41.7205 23.4206 41.8169 23.5777 41.9133C23.7859 42.0386 23.9932 42.1649 24.2081 42.2796C24.3904 42.376 24.5763 42.4589 24.7614 42.5466C24.9639 42.643 25.1634 42.7393 25.3707 42.8261C25.5779 42.9129 25.7861 42.9804 25.9963 43.0555C26.2064 43.1307 26.3876 43.2001 26.5891 43.2618C26.8166 43.3303 27.0499 43.3832 27.2812 43.4401C27.474 43.4873 27.661 43.5413 27.8596 43.5799C28.1257 43.633 28.3956 43.6667 28.6655 43.7033C28.8323 43.7265 28.9952 43.7592 29.1639 43.7756C29.6054 43.819 30.0507 43.8431 30.4999 43.8431C30.9491 43.8431 31.3945 43.819 31.8359 43.7756C32.0046 43.7592 32.1675 43.7265 32.3343 43.7033C32.6042 43.6667 32.8741 43.633 33.1402 43.5799C33.3329 43.5413 33.5258 43.4835 33.7186 43.4401C33.9499 43.3832 34.1832 43.3302 34.4107 43.2618C34.6122 43.2001 34.8069 43.125 35.0035 43.0555C35.2002 42.9861 35.4238 42.9109 35.6291 42.8261C35.8344 42.7413 36.0359 42.642 36.2384 42.5466C36.4234 42.4589 36.6095 42.3759 36.7917 42.2796C37.0066 42.1649 37.2139 42.0386 37.4221 41.9133C37.5792 41.8169 37.7373 41.7292 37.8906 41.6241C38.1162 41.4757 38.3321 41.3147 38.548 41.1537C38.6733 41.0572 38.8005 40.9705 38.923 40.8722C39.1514 40.689 39.3683 40.4943 39.5852 40.2938C39.6642 40.2215 39.7491 40.1579 39.8272 40.0827C39.8349 40.076 39.8378 40.0644 39.8455 40.0567C45.2212 34.9067 45.404 26.3741 40.254 20.9986ZM38.0874 39.0474C37.912 39.2016 37.7307 39.3481 37.5476 39.4898C37.4397 39.5728 37.3317 39.6547 37.2208 39.7337C37.0463 39.86 36.869 39.9796 36.6887 40.0943C36.5576 40.1781 36.4236 40.2591 36.2886 40.3382C36.1189 40.4346 35.9464 40.5309 35.7719 40.6273C35.6177 40.7064 35.4605 40.7806 35.3025 40.8539C35.1445 40.9272 34.9699 41.0052 34.7993 41.0737C34.6287 41.1421 34.4475 41.2067 34.2691 41.2664C34.1062 41.3224 33.9433 41.3802 33.7784 41.4293C33.5857 41.4872 33.3842 41.5344 33.1846 41.5826C33.0285 41.6192 32.8743 41.6607 32.7162 41.6916C32.4877 41.7359 32.2544 41.7668 32.0202 41.7986C31.8872 41.8159 31.7551 41.84 31.6211 41.8535C31.2509 41.8892 30.8759 41.9104 30.4971 41.9104C30.1182 41.9104 29.7433 41.8892 29.3731 41.8535C29.2391 41.84 29.107 41.8159 28.974 41.7986C28.7397 41.7668 28.5065 41.7359 28.278 41.6916C28.1199 41.6608 27.9656 41.6193 27.8095 41.5826C27.61 41.5345 27.4114 41.4862 27.2157 41.4293C27.0509 41.3802 26.888 41.3224 26.7251 41.2664C26.5467 41.2048 26.3684 41.1421 26.1949 41.0737C26.0213 41.0052 25.8575 40.93 25.6917 40.8539C25.5258 40.7778 25.3764 40.7064 25.2222 40.6273C25.0478 40.5368 24.8752 40.4413 24.7055 40.3382C24.5706 40.2591 24.4366 40.1781 24.3055 40.0943C24.1252 39.9796 23.9478 39.86 23.7733 39.7337C23.6625 39.6547 23.5545 39.5728 23.4465 39.4898C23.2634 39.3481 23.0822 39.2007 22.9067 39.0474C22.8643 39.0156 22.8257 38.9751 22.7843 38.9384C22.8274 35.6592 24.9341 32.7637 28.0409 31.7134C29.5943 32.4524 31.3979 32.4524 32.9514 31.7134C36.0581 32.7637 38.1647 35.6591 38.2079 38.9384C38.1674 38.9751 38.1288 39.0117 38.0874 39.0474ZM27.1347 24.5733C28.1784 22.717 30.5293 22.0584 32.3855 23.1021C34.2418 24.1459 34.9004 26.4967 33.8567 28.353C33.5104 28.9688 33.0015 29.4778 32.3855 29.8241C32.3807 29.8241 32.3749 29.8241 32.3691 29.8299C32.1135 29.9721 31.8433 30.0866 31.5632 30.1711C31.5131 30.1856 31.4668 30.2049 31.4138 30.2174C31.3174 30.2425 31.2162 30.2598 31.1169 30.2772C30.93 30.3099 30.7408 30.3288 30.5511 30.334H30.4412C30.2514 30.3288 30.0623 30.3099 29.8753 30.2772C29.7789 30.2598 29.6767 30.2425 29.5784 30.2174C29.5273 30.2049 29.482 30.1856 29.429 30.1711C29.1489 30.0866 28.8788 29.9722 28.6232 29.8299L28.6058 29.8241C26.7496 28.7804 26.0909 26.4295 27.1347 24.5733ZM39.918 37.0269C39.2994 34.1416 37.3994 31.6955 34.7569 30.3823C36.917 28.0292 36.7606 24.3704 34.4075 22.2103C32.0544 20.0501 28.3956 20.2065 26.2354 22.5597C24.2046 24.7719 24.2046 28.1702 26.2354 30.3823C23.5929 31.6956 21.6929 34.1416 21.0743 37.0269C17.3779 31.8202 18.6022 24.6028 23.8089 20.9063C29.0157 17.2099 36.2331 18.4342 39.9295 23.6409C41.3191 25.5982 42.065 27.9395 42.0638 30.3398C42.0638 32.7382 41.3135 35.0764 39.918 37.0269Z" fill="#00CCCC"/>
</g>
</g>
<defs>
<clipPath id="clip0_1_432">
<rect width="60" height="60" fill="white" transform="translate(0 0.84375)"/>
</clipPath>
</defs>
</svg>
