<svg width="60" height="61" viewBox="0 0 60 61" fill="none" xmlns="http://www.w3.org/2000/svg">
<g clip-path="url(#clip0_1_421)">
<path d="M30 60.8438C46.5685 60.8438 60 47.4123 60 30.8438C60 14.2752 46.5685 0.84375 30 0.84375C13.4315 0.84375 0 14.2752 0 30.8438C0 47.4123 13.4315 60.8438 30 60.8438Z" fill="#2A1646"/>
<mask id="mask0_1_421" style="mask-type:luminance" maskUnits="userSpaceOnUse" x="16" y="17" width="27" height="28">
<path d="M43 17.8438H16V44.8438H43V17.8438Z" fill="white"/>
</mask>
<g mask="url(#mask0_1_421)">
<path d="M34.1693 34.7006L35.7535 33.1164C37.3717 31.4982 38.2629 29.3466 38.2629 27.058C38.2629 22.3229 34.431 18.4902 29.6951 18.4902C27.4065 18.4902 25.255 19.3814 23.6367 20.9997C20.2961 24.3403 20.2961 29.7758 23.6367 33.1164L25.1797 34.6594C20.1575 35.2262 16 36.8018 16 39.3156C16 45.8127 43 45.8368 43 39.3156C43 36.8603 39.0336 35.3 34.1693 34.7006ZM22.8262 27.058C22.8262 23.2619 25.8983 20.1892 29.6951 20.1892C31.5298 20.1892 33.2547 20.9037 34.5521 22.2011C37.2302 24.8792 37.2302 29.2369 34.5521 31.915L29.695 36.772L24.838 31.915C23.5407 30.6176 22.8262 28.8927 22.8262 27.058ZM38.1865 41.3663C33.4106 42.8932 25.5902 42.8935 20.8135 41.3663C18.6621 40.6785 17.699 39.8407 17.699 39.3156C17.699 38.7905 18.6621 37.9527 20.8135 37.2649C22.4615 36.738 24.5059 36.3805 26.7393 36.219L29.0944 38.574C29.4258 38.9056 29.9641 38.9058 30.2957 38.574L32.6222 36.2476C38.1733 36.7061 41.3009 38.2992 41.3009 39.3156C41.301 39.8407 40.3379 40.6785 38.1865 41.3663Z" fill="#00CCCC"/>
<path d="M33.4072 27.0578C33.4072 25.0109 31.7419 23.3457 29.695 23.3457C27.6481 23.3457 25.9829 25.0109 25.9829 27.0578C25.9829 29.1047 27.6481 30.7699 29.695 30.7699C31.7419 30.7699 33.4072 29.1047 33.4072 27.0578ZM27.682 27.0578C27.682 25.9478 28.585 25.0447 29.695 25.0447C30.805 25.0447 31.7081 25.9478 31.7081 27.0578C31.7081 28.1678 30.805 29.0709 29.695 29.0709C28.585 29.0709 27.682 28.1678 27.682 27.0578Z" fill="#00CCCC"/>
</g>
</g>
<defs>
<clipPath id="clip0_1_421">
<rect width="60" height="60" fill="white" transform="translate(0 0.84375)"/>
</clipPath>
</defs>
</svg>
