<svg width="161" height="61" viewBox="0 0 161 61" fill="none" xmlns="http://www.w3.org/2000/svg">
<g clip-path="url(#clip0_1_456)">
<path d="M151.131 20.2891H9.13432C4.08957 20.2891 0 24.3786 0 29.4234C0 34.4681 4.08957 38.5577 9.13432 38.5577H151.131C156.176 38.5577 160.266 34.4681 160.266 29.4234C160.266 24.3786 156.176 20.2891 151.131 20.2891Z" fill="#FFECEC"/>
<path d="M10.7097 25.9897H12.6145V31.3849L16.5664 25.9897H18.3648V34.2719H16.4717V28.8885L12.5199 34.2719H10.7097V25.9897Z" fill="#FF3A3C"/>
<path d="M23.3138 34.3663C22.6355 34.3663 22.0242 34.2283 21.4799 33.9522C20.9435 33.6682 20.5216 33.2778 20.2139 32.7808C19.9142 32.2839 19.7643 31.7199 19.7643 31.0889C19.7643 30.4579 19.9142 29.8939 20.2139 29.397C20.5216 28.9001 20.9435 28.5136 21.4799 28.2375C22.0242 27.9535 22.6355 27.8115 23.3138 27.8115C23.9843 27.8115 24.568 27.9535 25.0649 28.2375C25.5698 28.5136 25.9365 28.9119 26.1653 29.4325L24.7337 30.2015C24.4024 29.6178 23.9251 29.326 23.302 29.326C22.8208 29.326 22.4225 29.4838 22.107 29.7993C21.7915 30.1148 21.6337 30.5447 21.6337 31.0889C21.6337 31.6332 21.7915 32.0631 22.107 32.3786C22.4225 32.6941 22.8208 32.8518 23.302 32.8518C23.933 32.8518 24.4103 32.56 24.7337 31.9763L26.1653 32.7572C25.9365 33.262 25.5698 33.6564 25.0649 33.9404C24.568 34.2244 23.9843 34.3663 23.3138 34.3663Z" fill="#FF3A3C"/>
<path d="M30.091 31.8581H29.1326V34.2717H27.2869V27.9062H29.1326V30.3791H30.1265L31.8539 27.9062H33.8179L31.5936 30.9589L33.9718 34.2717H31.7947L30.091 31.8581Z" fill="#FF3A3C"/>
<path d="M40.9005 27.8115C41.5473 27.8115 42.127 27.9535 42.6397 28.2375C43.1524 28.5136 43.5547 28.9001 43.8465 29.397C44.1384 29.8939 44.2843 30.4579 44.2843 31.0889C44.2843 31.7199 44.1384 32.2839 43.8465 32.7808C43.5547 33.2778 43.1524 33.6682 42.6397 33.9522C42.127 34.2283 41.5473 34.3663 40.9005 34.3663C40.3404 34.3663 39.8277 34.2637 39.3623 34.0587C38.897 33.8457 38.5104 33.5499 38.2028 33.1713C37.8952 32.7848 37.6901 32.3431 37.5876 31.8462H36.712V34.2716H34.8781V27.9062H36.712V30.2489H37.5994C37.7809 29.5075 38.1673 28.9159 38.7589 28.4741C39.3505 28.0324 40.0644 27.8115 40.9005 27.8115ZM40.9005 32.8518C41.35 32.8518 41.7208 32.6941 42.0126 32.3786C42.3124 32.0552 42.4623 31.6253 42.4623 31.0889C42.4623 30.5447 42.3124 30.1148 42.0126 29.7993C41.7208 29.4838 41.35 29.326 40.9005 29.326C40.4429 29.326 40.0644 29.4838 39.7646 29.7993C39.4728 30.1148 39.3268 30.5447 39.3268 31.0889C39.3268 31.6253 39.4728 32.0552 39.7646 32.3786C40.0644 32.6941 40.4429 32.8518 40.9005 32.8518Z" fill="#FF3A3C"/>
<path d="M51.2925 27.9062V34.2717H49.4467V31.9053C48.9104 32.1736 48.3188 32.3076 47.672 32.3076C46.8122 32.3076 46.1614 32.1144 45.7198 31.7279C45.2859 31.3335 45.069 30.7261 45.069 29.9058V27.9062H46.9148V29.7875C46.9148 30.174 47.0133 30.454 47.2106 30.6276C47.4156 30.8011 47.7075 30.8878 48.0861 30.8878C48.5672 30.8878 49.0207 30.7853 49.4467 30.5802V27.9062H51.2925Z" fill="#FF3A3C"/>
<path d="M59.2527 31.1126C59.2527 31.1363 59.2408 31.3019 59.2172 31.6095H54.4017C54.4884 32.0039 54.6936 32.3155 55.017 32.5442C55.3403 32.7729 55.7426 32.8873 56.2237 32.8873C56.555 32.8873 56.8469 32.84 57.0993 32.7454C57.3597 32.6428 57.6002 32.485 57.8211 32.2721L58.8031 33.337C58.2036 34.0232 57.3281 34.3663 56.1765 34.3663C55.4587 34.3663 54.8237 34.2283 54.2715 33.9522C53.7194 33.6682 53.2934 33.2778 52.9937 32.7808C52.694 32.2839 52.5441 31.7199 52.5441 31.0889C52.5441 30.4658 52.6901 29.9057 52.9819 29.4088C53.2816 28.904 53.6879 28.5136 54.2005 28.2375C54.7212 27.9535 55.3009 27.8115 55.9398 27.8115C56.5629 27.8115 57.1269 27.9457 57.6318 28.2138C58.1366 28.482 58.531 28.8685 58.815 29.3733C59.1068 29.8702 59.2527 30.45 59.2527 31.1126ZM55.9516 29.2077C55.5336 29.2077 55.1826 29.326 54.8986 29.5626C54.6147 29.7993 54.4412 30.1227 54.3781 30.5328H57.5134C57.4503 30.1305 57.2768 29.8111 56.9929 29.5744C56.7089 29.3299 56.3618 29.2077 55.9516 29.2077Z" fill="#FF3A3C"/>
<path d="M60.6675 27.9062H62.5014V30.3909H65.27V27.9062H67.1158V34.2717H65.27V31.8935H62.5014V34.2717H60.6675V27.9062Z" fill="#FF3A3C"/>
<path d="M72.2335 27.9062H74.0674V31.6924L77.1673 27.9062H78.8592V34.2717H77.0253V30.4855L73.9372 34.2717H72.2335V27.9062Z" fill="#FF3A3C"/>
<path d="M84.7049 30.959C85.0838 31.0773 85.3755 31.2588 85.5802 31.5033C85.7939 31.7478 85.8999 32.0396 85.8999 32.3788C85.8999 32.7811 85.7618 33.136 85.4857 33.4437C85.2095 33.7434 84.8315 33.9761 84.3498 34.1418C83.869 34.3074 83.325 34.3902 82.7176 34.3902C82.2204 34.3902 81.7313 34.3389 81.2501 34.2364C80.7689 34.1339 80.3233 33.98 79.9131 33.775L80.41 32.4853C81.0805 32.8087 81.8219 32.9704 82.6346 32.9704C83.0685 32.9704 83.4072 32.9073 83.6521 32.7811C83.9044 32.647 84.031 32.4617 84.031 32.225C84.031 32.0199 83.9438 31.8661 83.7704 31.7636C83.597 31.6531 83.3447 31.598 83.0127 31.598H81.7115V30.4502H82.8475C83.1705 30.4502 83.4195 30.399 83.5929 30.2965C83.7663 30.1939 83.8534 30.0441 83.8534 29.8468C83.8534 29.6417 83.7425 29.484 83.5214 29.3736C83.3085 29.2631 83.0011 29.208 82.5993 29.208C81.9837 29.208 81.3132 29.3538 80.5875 29.6457L80.1379 28.3678C81.0213 27.9814 81.8811 27.7881 82.7176 27.7881C83.2929 27.7881 83.8058 27.8591 84.2553 28.0011C84.7131 28.1431 85.0715 28.3521 85.332 28.6282C85.5925 28.8964 85.7224 29.2119 85.7224 29.5747C85.7224 29.8744 85.632 30.1465 85.4503 30.3911C85.2687 30.6277 85.0205 30.817 84.7049 30.959Z" fill="#FF3A3C"/>
<path d="M94.3438 27.8115C94.9356 27.8115 95.4723 27.9496 95.9531 28.2257C96.4421 28.4938 96.8251 28.8764 97.1004 29.3733C97.3766 29.8623 97.5146 30.4342 97.5146 31.0889C97.5146 31.7436 97.3766 32.3194 97.1004 32.8163C96.8251 33.3054 96.4421 33.6879 95.9531 33.964C95.4723 34.2323 94.9356 34.3663 94.3438 34.3663C93.5318 34.3663 92.8924 34.11 92.4272 33.5973V36.567H90.5813V27.9062H92.3442V28.6398C92.802 28.0876 93.4685 27.8115 94.3438 27.8115ZM94.0241 32.8518C94.4975 32.8518 94.8846 32.6941 95.1838 32.3786C95.492 32.0552 95.6457 31.6253 95.6457 31.0889C95.6457 30.5526 95.492 30.1267 95.1838 29.8111C94.8846 29.4877 94.4975 29.326 94.0241 29.326C93.5516 29.326 93.1612 29.4877 92.853 29.8111C92.5538 30.1267 92.4034 30.5526 92.4034 31.0889C92.4034 31.6253 92.5538 32.0552 92.853 32.3786C93.1612 32.6941 93.5516 32.8518 94.0241 32.8518Z" fill="#FF3A3C"/>
<path d="M104.996 31.1126C104.996 31.1363 104.985 31.3019 104.961 31.6095H100.145C100.233 32.0039 100.437 32.3155 100.761 32.5442C101.084 32.7729 101.487 32.8873 101.968 32.8873C102.299 32.8873 102.591 32.84 102.843 32.7454C103.103 32.6428 103.344 32.485 103.564 32.2721L104.547 33.337C103.947 34.0232 103.072 34.3663 101.92 34.3663C101.202 34.3663 100.567 34.2283 100.016 33.9522C99.4633 33.6682 99.0376 33.2778 98.7376 32.7808C98.4376 32.2839 98.288 31.7199 98.288 31.0889C98.288 30.4658 98.4335 29.9057 98.7261 29.4088C99.0253 28.904 99.4313 28.5136 99.9441 28.2375C100.465 27.9535 101.045 27.8115 101.684 27.8115C102.307 27.8115 102.871 27.9457 103.375 28.2138C103.88 28.482 104.275 28.8685 104.559 29.3733C104.851 29.8702 104.996 30.45 104.996 31.1126ZM101.696 29.2077C101.277 29.2077 100.926 29.326 100.643 29.5626C100.358 29.7993 100.185 30.1227 100.122 30.5328H103.257C103.194 30.1305 103.02 29.8111 102.737 29.5744C102.452 29.3299 102.106 29.2077 101.696 29.2077Z" fill="#FF3A3C"/>
<path d="M106.411 27.9063H108.245V31.6925L111.345 27.9063H113.037V34.2718H111.203V30.4856L108.115 34.2718H106.411V27.9063ZM109.606 27.2201C108.218 27.2201 107.519 26.6088 107.512 25.3862H108.718C108.727 25.6623 108.801 25.8792 108.944 26.0369C109.093 26.1868 109.31 26.2618 109.594 26.2618C109.878 26.2618 110.095 26.1868 110.245 26.0369C110.402 25.8792 110.481 25.6623 110.481 25.3862H111.712C111.704 26.6088 111.002 27.2201 109.606 27.2201Z" fill="#FF3A3C"/>
<path d="M120.159 29.4207H118.006V34.2717H116.172V29.4207H114.019V27.9062H120.159V29.4207Z" fill="#FF3A3C"/>
<path d="M121.143 27.9062H122.977V31.6924L126.077 27.9062H127.769V34.2717H125.935V30.4855L122.847 34.2717H121.143V27.9062Z" fill="#FF3A3C"/>
<path d="M129.543 27.9062H131.377V30.3909H134.146V27.9062H135.992V34.2717H134.146V31.8935H131.377V34.2717H129.543V27.9062Z" fill="#FF3A3C"/>
<path d="M142.857 29.4207H139.592V34.2717H137.759V27.9062H142.857V29.4207Z" fill="#FF3A3C"/>
<path d="M146.309 27.8115C147.295 27.8115 148.052 28.0482 148.58 28.5215C149.109 28.9868 149.373 29.6928 149.373 30.6393V34.2716H147.646V33.4789C147.299 34.0705 146.652 34.3663 145.705 34.3663C145.216 34.3663 144.791 34.2835 144.427 34.1179C144.072 33.9522 143.8 33.7234 143.611 33.4316C143.422 33.1397 143.328 32.8084 143.328 32.4378C143.328 31.8462 143.548 31.3808 143.99 31.0416C144.44 30.7025 145.129 30.5328 146.06 30.5328H147.527C147.527 30.1305 147.405 29.823 147.161 29.6099C146.916 29.3891 146.549 29.2787 146.06 29.2787C145.721 29.2787 145.386 29.3339 145.054 29.4443C144.731 29.5468 144.455 29.6888 144.227 29.8702L143.563 28.5806C143.911 28.3361 144.325 28.1468 144.806 28.0127C145.295 27.8786 145.796 27.8115 146.309 27.8115ZM146.167 33.124C146.482 33.124 146.762 33.053 147.007 32.911C147.251 32.7612 147.425 32.5442 147.527 32.2602V31.6095H146.262C145.504 31.6095 145.126 31.858 145.126 32.3549C145.126 32.5915 145.216 32.7808 145.398 32.9228C145.587 33.057 145.843 33.124 146.167 33.124Z" fill="#FF3A3C"/>
<path d="M129.269 58.207L28.596 3.07666" stroke="#00CCCC" stroke-width="3.2875" stroke-linecap="round" stroke-linejoin="round"/>
<path d="M126.777 3.0874L30.1859 58.1682" stroke="#00CCCC" stroke-width="3.2875" stroke-linecap="round" stroke-linejoin="round"/>
</g>
<defs>
<clipPath id="clip0_1_456">
<rect width="160.266" height="59.9969" fill="white" transform="translate(0 0.845215)"/>
</clipPath>
</defs>
</svg>
