<svg width="60" height="61" viewBox="0 0 60 61" fill="none" xmlns="http://www.w3.org/2000/svg">
<g clip-path="url(#clip0_1_382)">
<path d="M30 60.8438C46.5685 60.8438 60 47.4123 60 30.8438C60 14.2752 46.5685 0.84375 30 0.84375C13.4315 0.84375 0 14.2752 0 30.8438C0 47.4123 13.4315 60.8438 30 60.8438Z" fill="#2A1646"/>
<path d="M40.6006 40.0449C39.5449 40.0449 38.6469 40.7305 38.3268 41.6796H31.8001C31.5611 40.9708 30.9998 40.4096 30.291 40.1706V38.4628H38.9922C39.429 38.4628 39.7832 38.1087 39.7832 37.6718V18.6348C39.7832 18.198 39.429 17.8438 38.9922 17.8438H20.0078C19.571 17.8438 19.2168 18.198 19.2168 18.6348V37.6718C19.2168 38.1087 19.571 38.4628 20.0078 38.4628H28.709V40.1884C28.025 40.437 27.4857 40.9884 27.2526 41.6796H20.6732C20.3531 40.7305 19.4551 40.0449 18.3994 40.0449C17.0764 40.0449 16 41.1213 16 42.4444C16 43.7674 17.0764 44.8438 18.3994 44.8438C19.4355 44.8438 20.3203 44.1835 20.6553 43.2617H27.2705C28.0358 45.3672 31.0179 45.3648 31.7822 43.2617H38.3447C38.6797 44.1835 39.5645 44.8438 40.6006 44.8438C41.9236 44.8438 43 43.7674 43 42.4444C43 41.1213 41.9236 40.0449 40.6006 40.0449ZM20.7988 25.8067H38.2012V30.5527H20.7988V25.8067ZM38.2012 19.4258V24.2246H20.7988V19.4258H38.2012ZM20.7988 32.1348H38.2012V36.8809H20.7988V32.1348ZM18.3994 43.2617C17.9487 43.2617 17.582 42.8951 17.582 42.4444C17.582 41.9937 17.9487 41.6269 18.3994 41.6269C18.8501 41.6269 19.2168 41.9937 19.2168 42.4444C19.2168 42.8951 18.8501 43.2617 18.3994 43.2617ZM29.5264 43.2617C29.0756 43.2617 28.709 42.8951 28.709 42.4444C28.709 41.9937 29.0756 41.6269 29.5264 41.6269C29.9771 41.6269 30.3438 41.9937 30.3438 42.4444C30.3438 42.8951 29.9771 43.2617 29.5264 43.2617ZM40.6006 43.2617C40.1499 43.2617 39.7832 42.8951 39.7832 42.4444C39.7832 41.9937 40.1499 41.6269 40.6006 41.6269C41.0513 41.6269 41.418 41.9937 41.418 42.4444C41.418 42.8951 41.0513 43.2617 40.6006 43.2617Z" fill="#00CCCC"/>
<path d="M23.1719 22.6425C23.6087 22.6425 23.9629 22.2884 23.9629 21.8515C23.9629 21.4146 23.6087 21.0605 23.1719 21.0605C22.735 21.0605 22.3809 21.4146 22.3809 21.8515C22.3809 22.2884 22.735 22.6425 23.1719 22.6425Z" fill="#00CCCC"/>
<path d="M23.1719 28.9708C23.6087 28.9708 23.9629 28.6166 23.9629 28.1797C23.9629 27.7429 23.6087 27.3887 23.1719 27.3887C22.735 27.3887 22.3809 27.7429 22.3809 28.1797C22.3809 28.6166 22.735 28.9708 23.1719 28.9708Z" fill="#00CCCC"/>
<path d="M23.1719 35.2989C23.6087 35.2989 23.9629 34.9447 23.9629 34.5079C23.9629 34.071 23.6087 33.7168 23.1719 33.7168C22.735 33.7168 22.3809 34.071 22.3809 34.5079C22.3809 34.9447 22.735 35.2989 23.1719 35.2989Z" fill="#00CCCC"/>
<path d="M26.3359 22.6425H35.8281C36.265 22.6425 36.6191 22.2884 36.6191 21.8515C36.6191 21.4147 36.265 21.0605 35.8281 21.0605H26.3359C25.8991 21.0605 25.5449 21.4147 25.5449 21.8515C25.5449 22.2884 25.8991 22.6425 26.3359 22.6425Z" fill="#00CCCC"/>
<path d="M35.8281 27.3887H26.3359C25.8991 27.3887 25.5449 27.7429 25.5449 28.1797C25.5449 28.6166 25.8991 28.9708 26.3359 28.9708H35.8281C36.265 28.9708 36.6191 28.6166 36.6191 28.1797C36.6191 27.7429 36.265 27.3887 35.8281 27.3887Z" fill="#00CCCC"/>
<path d="M36.6191 34.5079C36.6191 34.071 36.265 33.7168 35.8281 33.7168H26.3359C25.8991 33.7168 25.5449 34.071 25.5449 34.5079C25.5449 34.9447 25.8991 35.2989 26.3359 35.2989H35.8281C36.265 35.2989 36.6191 34.9447 36.6191 34.5079Z" fill="#00CCCC"/>
</g>
<defs>
<clipPath id="clip0_1_382">
<rect width="60" height="60" fill="white" transform="translate(0 0.84375)"/>
</clipPath>
</defs>
</svg>
