<svg width="60" height="61" viewBox="0 0 60 61" fill="none" xmlns="http://www.w3.org/2000/svg">
<g clip-path="url(#clip0_1_413)">
<path d="M30 60.8438C46.5685 60.8438 60 47.4123 60 30.8438C60 14.2752 46.5685 0.84375 30 0.84375C13.4315 0.84375 0 14.2752 0 30.8438C0 47.4123 13.4315 60.8438 30 60.8438Z" fill="#2A1646"/>
<path d="M45.3463 37.2585C46.4209 36.6381 46.7903 35.2596 46.1698 34.185L38.2248 20.4238C37.7551 19.6103 36.9604 19.026 36.0442 18.8195L28.1551 17.0396C27.325 16.8525 26.4625 16.9842 25.7263 17.4092L17.2321 22.3134C16.1574 22.9338 15.7881 24.3123 16.4085 25.3869L27.6585 44.8725C28.279 45.9471 29.6574 46.3165 30.7321 45.696L45.3463 37.2585ZM18.3571 24.2619L26.8513 19.3578C27.0968 19.216 27.3844 19.1721 27.6609 19.2345L35.5494 21.0144C35.8552 21.0827 36.1198 21.2779 36.2762 21.5488L44.2213 35.31L29.6071 43.7475L18.3571 24.2619Z" fill="#00CCCC"/>
<path d="M37.3609 30.1776C36.8231 30.4881 36.6386 31.1766 36.9491 31.7144L37.5116 32.6887L35.076 34.0949L34.5135 33.1207C34.203 32.5829 33.5145 32.3984 32.9767 32.7089C32.4389 33.0194 32.2544 33.7079 32.5649 34.2457L33.1274 35.2199L30.6917 36.6262L30.1292 35.6519C29.8187 35.1141 29.1302 34.9296 28.5924 35.2401C28.0546 35.5506 27.8701 36.2391 28.1806 36.7769L28.7431 37.7512C29.3636 38.8258 30.742 39.1952 31.8167 38.5748L38.6367 34.6373C39.7113 34.0168 40.0807 32.6383 39.4602 31.5637L38.8977 30.5894C38.5872 30.0516 37.8987 29.8671 37.3609 30.1776Z" fill="#00CCCC"/>
<path d="M33.0117 24.8944L26.1917 28.8319C25.117 29.4523 24.7477 30.8308 25.3681 31.9054L25.9306 32.8797C26.2411 33.4175 26.9296 33.602 27.4674 33.2915C28.0052 32.981 28.1897 32.2925 27.8792 31.7547L27.3167 30.7804L29.7524 29.3742L30.3149 30.3485C30.6254 30.8863 31.3139 31.0707 31.8517 30.7602C32.3895 30.4497 32.574 29.7613 32.2635 29.2235L31.701 28.2492L34.1366 26.8429L34.6992 27.8172C35.0097 28.355 35.6981 28.5395 36.2359 28.229C36.7737 27.9185 36.9582 27.23 36.6477 26.6922L36.0852 25.7179C35.4648 24.6433 34.0863 24.2739 33.0117 24.8944Z" fill="#00CCCC"/>
</g>
<defs>
<clipPath id="clip0_1_413">
<rect width="60" height="60" fill="white" transform="translate(0 0.84375)"/>
</clipPath>
</defs>
</svg>
