<svg width="64" height="65" viewBox="0 0 64 65" fill="none" xmlns="http://www.w3.org/2000/svg">
<g clip-path="url(#clip0_1_279)">
<path d="M32 63.8438C49.1208 63.8438 63 49.9646 63 32.8438C63 15.7229 49.1208 1.84375 32 1.84375C14.8792 1.84375 1 15.7229 1 32.8438C1 49.9646 14.8792 63.8438 32 63.8438Z" fill="#35EBEB" stroke="#220E3F" stroke-width="2"/>
<path d="M43.297 27.944L30.636 40.6041C29.6985 41.5418 28.1776 41.5418 27.2391 40.6041L20.7034 34.0679C19.7655 33.1302 19.7655 31.6091 20.7034 30.6712C21.6415 29.7331 23.1623 29.7331 24.1 30.6709L28.9381 35.509L39.8999 24.5471C40.838 23.609 42.3589 23.6097 43.2966 24.5471C44.2344 25.485 44.2344 27.0055 43.297 27.944Z" fill="white"/>
</g>
<defs>
<clipPath id="clip0_1_279">
<rect width="64" height="64" fill="white" transform="translate(0 0.84375)"/>
</clipPath>
</defs>
</svg>
