<svg width="65" height="65" viewBox="0 0 65 65" fill="none" xmlns="http://www.w3.org/2000/svg">
<g clip-path="url(#clip0_1_330)">
<path d="M32.3906 63.8438C49.5115 63.8438 63.3906 49.9646 63.3906 32.8438C63.3906 15.7229 49.5115 1.84375 32.3906 1.84375C15.2698 1.84375 1.39062 15.7229 1.39062 32.8438C1.39062 49.9646 15.2698 63.8438 32.3906 63.8438Z" fill="#FF4D4D" stroke="#220E3F" stroke-width="2"/>
<path d="M36.3506 32.8446L43.7753 25.4198C44.5957 24.5995 44.5957 23.2695 43.7753 22.4504L42.7855 21.4606C41.9649 20.64 40.6349 20.64 39.8158 21.4606L32.3914 28.8851L24.9666 21.459C24.1463 20.6387 22.8163 20.6387 21.9972 21.459L21.0059 22.4489C20.1855 23.2695 20.1855 24.5995 21.0059 25.4186L28.4319 32.8446L21.0074 40.269C20.1868 41.0896 20.1868 42.4196 21.0074 43.2387L21.9972 44.2285C22.8176 45.0489 24.1476 45.0489 24.9666 44.2285L32.3914 36.8038L39.8158 44.2285C40.6364 45.0489 41.9664 45.0489 42.7855 44.2285L43.7753 43.2387C44.5957 42.4181 44.5957 41.0881 43.7753 40.269L36.3506 32.8446Z" fill="white"/>
</g>
<defs>
<clipPath id="clip0_1_330">
<rect width="64" height="64" fill="white" transform="translate(0.390625 0.84375)"/>
</clipPath>
</defs>
</svg>
